<svg width="157" height="55" viewBox="0 0 157 55" fill="none" xmlns="http://www.w3.org/2000/svg">
<path d="M12.5665 31.8093C10.4664 31.8093 8.61027 31.4169 6.99807 30.632C5.38588 29.8471 4.1237 28.638 3.21154 27.0046C2.29938 25.3712 1.8433 23.2817 1.8433 20.7361C1.8433 17.0875 2.79789 14.3298 4.70706 12.463C6.61624 10.5751 9.23605 9.63107 12.5665 9.63107C14.6666 9.63107 16.5227 10.0235 18.1349 10.8084C19.7471 11.5933 21.0093 12.8024 21.9215 14.4358C22.8336 16.048 23.2897 18.1375 23.2897 20.7043C23.2897 24.3529 22.3351 27.1212 20.4259 29.0092C18.538 30.876 15.9182 31.8093 12.5665 31.8093ZM12.5665 26.7182C13.3938 26.7182 14.1151 26.5379 14.7302 26.1773C15.3454 25.7954 15.8227 25.1696 16.1621 24.2999C16.5227 23.409 16.703 22.1998 16.703 20.6725C16.703 19.1451 16.5227 17.9466 16.1621 17.0769C15.8227 16.2071 15.3454 15.6025 14.7302 15.2631C14.1151 14.9025 13.3938 14.7222 12.5665 14.7222C11.7392 14.7222 11.0179 14.9131 10.4028 15.295C9.78759 15.6556 9.29969 16.2708 8.93907 17.1405C8.59966 18.0102 8.42995 19.2194 8.42995 20.7679C8.42995 22.2953 8.59966 23.4938 8.93907 24.3635C9.29969 25.2121 9.78759 25.8166 10.4028 26.1773C11.0179 26.5379 11.7392 26.7182 12.5665 26.7182ZM36.0538 31.8093C35.7993 31.8093 35.3538 31.7881 34.7174 31.7457C34.1022 31.7245 33.4446 31.5972 32.7446 31.3639C32.0446 31.1305 31.4506 30.7169 30.9627 30.1229L31.9809 28.341V36.5823H26.317V18.7633C26.317 18.0633 26.5186 17.4481 26.9216 16.9178C27.3247 16.3874 27.8868 15.942 28.608 15.5813C29.3293 15.2207 30.1884 14.9556 31.1854 14.7858C32.1824 14.5949 33.2855 14.4995 34.4947 14.4995C36.2554 14.4995 37.7615 14.7752 39.0131 15.3268C40.2858 15.8571 41.2616 16.7587 41.9405 18.0314C42.6405 19.3042 42.9905 21.0543 42.9905 23.2817C42.9905 24.9575 42.7041 26.4424 42.1314 27.7364C41.5798 29.0092 40.7843 30.0062 39.7449 30.7275C38.7267 31.4487 37.4963 31.8093 36.0538 31.8093ZM34.0492 27.2909C34.7492 27.2909 35.3326 27.1849 35.7993 26.9727C36.2872 26.7394 36.6478 26.3257 36.8811 25.7318C37.1357 25.1166 37.263 24.2257 37.263 23.0589C37.263 22.168 37.1569 21.4467 36.9448 20.8952C36.7539 20.3437 36.4357 19.9406 35.9902 19.6861C35.5659 19.4103 34.9826 19.2724 34.2401 19.2724C33.2643 19.2724 32.6385 19.3573 32.3628 19.527C32.1082 19.6967 31.9809 19.9194 31.9809 20.1952V26.8136C32.2779 26.9621 32.6279 27.0788 33.031 27.1637C33.434 27.2485 33.7734 27.2909 34.0492 27.2909ZM53.1491 32.1275C50.9642 32.1275 49.3732 31.6502 48.3762 30.6956C47.4004 29.7411 46.9125 28.394 46.9125 26.6546V19.4315H44.7488V15.1359H46.9125V10.7448H53.0219V15.1359H56.3311V19.4315H53.0219V26.1136C53.0219 26.5167 53.1279 26.8136 53.3401 27.0046C53.5734 27.1955 53.9022 27.2909 54.3265 27.2909C54.6235 27.2909 54.9629 27.2167 55.3447 27.0682C55.7265 26.9197 56.0553 26.7288 56.3311 26.4955V31.3639C55.8008 31.6608 55.2598 31.8624 54.7083 31.9684C54.178 32.0745 53.6583 32.1275 53.1491 32.1275ZM59.7229 31.332V15.4541H65.514L65.5777 31.332H59.7229ZM59.6592 13.2267V9.05832H65.5777V13.2267H59.6592Z" fill="#E33AFF"/>
<path d="M85.1679 20.2906V31.332H79.3767V21.6907C79.3767 21.2664 79.3131 20.9058 79.1858 20.6088C79.0797 20.2906 78.91 20.0467 78.6767 19.877C78.4645 19.6861 78.1888 19.5482 77.8494 19.4633C77.5312 19.3785 77.1599 19.336 76.7357 19.336C76.3326 19.336 75.9826 19.3997 75.6856 19.527C75.4098 19.633 75.2401 19.7391 75.1765 19.8452V31.332H69.3853V16.5359C69.746 16.345 70.2763 16.1435 70.9763 15.9314C71.6764 15.698 72.4612 15.4859 73.331 15.295C74.2219 15.104 75.1129 14.9449 76.0038 14.8177C76.8948 14.6904 77.7009 14.6267 78.4221 14.6267C79.8222 14.6267 81.0207 14.7965 82.0177 15.1359C83.0359 15.4541 83.8102 16.0268 84.3405 16.8541C84.8921 17.6602 85.1679 18.8057 85.1679 20.2906ZM79.504 17.8087C80.1404 17.2147 80.9677 16.6844 81.9859 16.2177C83.0253 15.7298 84.1178 15.348 85.2633 15.0722C86.4088 14.7752 87.4589 14.6267 88.4135 14.6267C89.8135 14.6267 91.0121 14.7965 92.0091 15.1359C93.0273 15.4541 93.8016 16.0268 94.3319 16.8541C94.8834 17.6602 95.1592 18.8057 95.1592 20.2906V31.332H89.368V21.6907C89.368 21.2664 89.3044 20.9058 89.1771 20.6088C89.0711 20.2906 88.9014 20.0467 88.668 19.877C88.4559 19.6861 88.1801 19.5482 87.8407 19.4633C87.5225 19.3785 87.1513 19.336 86.727 19.336C86.324 19.336 85.974 19.3997 85.677 19.527C85.4012 19.633 85.2315 19.7391 85.1679 19.8452L79.504 17.8087ZM99.0313 31.332V15.4541H104.822L104.886 31.332H99.0313ZM98.9676 13.2267V9.05832H104.886V13.2267H98.9676ZM113.594 31.8093C112.448 31.8093 111.451 31.682 110.603 31.4275C109.776 31.1729 109.033 30.929 108.376 30.6956V25.7954C108.715 26.0712 109.171 26.3682 109.744 26.6864C110.317 27.0046 110.964 27.2803 111.685 27.5137C112.406 27.7258 113.159 27.8319 113.944 27.8319C114.559 27.8319 114.941 27.747 115.089 27.5773C115.259 27.3864 115.344 27.1849 115.344 26.9727C115.344 26.7182 115.185 26.5061 114.867 26.3364C114.549 26.1454 114.135 25.9863 113.626 25.8591C113.117 25.7318 112.576 25.6257 112.003 25.5409C111.536 25.456 111.07 25.3075 110.603 25.0954C110.157 24.862 109.754 24.5439 109.394 24.1408C109.033 23.7378 108.747 23.2392 108.535 22.6453C108.322 22.0513 108.216 21.3619 108.216 20.577C108.216 19.4527 108.429 18.5193 108.853 17.7769C109.298 17.0344 109.871 16.4405 110.571 15.995C111.292 15.5495 112.056 15.2313 112.862 15.0404C113.689 14.8495 114.474 14.7646 115.217 14.7858C116.702 14.8495 117.847 15.0086 118.653 15.2631C119.459 15.4965 120.159 15.8253 120.753 16.2495L120.785 20.5452C120.106 20.1634 119.385 19.7815 118.621 19.3997C117.879 19.0179 117.041 18.8269 116.108 18.8269C115.323 18.8269 114.814 18.933 114.58 19.1451C114.368 19.3573 114.262 19.6118 114.262 19.9088C114.262 20.227 114.358 20.4816 114.549 20.6725C114.761 20.8422 115.026 20.9801 115.344 21.0861C115.683 21.1922 116.055 21.2983 116.458 21.4043C116.988 21.5316 117.529 21.6801 118.08 21.8498C118.653 21.9983 119.184 22.2422 119.671 22.5816C120.181 22.9211 120.584 23.3983 120.881 24.0135C121.199 24.6075 121.358 25.4136 121.358 26.4318C121.315 27.7895 120.934 28.8607 120.212 29.6456C119.512 30.4305 118.579 30.9926 117.412 31.332C116.246 31.6502 114.973 31.8093 113.594 31.8093ZM131.673 32.1275C129.488 32.1275 127.897 31.6502 126.9 30.6956C125.924 29.7411 125.436 28.394 125.436 26.6546V19.4315H123.272V15.1359H125.436V10.7448H131.545V15.1359H134.855V19.4315H131.545V26.1136C131.545 26.5167 131.651 26.8136 131.864 27.0046C132.097 27.1955 132.426 27.2909 132.85 27.2909C133.147 27.2909 133.486 27.2167 133.868 27.0682C134.25 26.9197 134.579 26.7288 134.855 26.4955V31.3639C134.324 31.6608 133.783 31.8624 133.232 31.9684C132.702 32.0745 132.182 32.1275 131.673 32.1275ZM146.838 25.1272L142.797 31.332H136.751L144.324 21.5634L146.838 25.1272ZM155.143 31.332H148.365L136.91 15.1359H143.656L155.143 31.332ZM145.279 21.5634L149.479 15.1359H155.524L147.792 25.1272L145.279 21.5634Z" fill="#2CFFC0"/>
<path d="M7.43891 51.8011C6.95101 51.8011 6.47372 51.7375 6.00703 51.6102C5.54034 51.4936 5.11608 51.2814 4.73425 50.9738C4.35241 50.6556 4.05013 50.2155 3.82739 49.6533C3.60465 49.0912 3.49328 48.3646 3.49328 47.4737C3.49328 46.2115 3.80087 45.2145 4.41605 44.4826C5.03123 43.7508 5.96461 43.3849 7.21618 43.3849C7.4177 43.3849 7.66695 43.4114 7.96394 43.4644C8.26092 43.5174 8.56321 43.597 8.87079 43.7031C9.17838 43.7985 9.43824 43.9258 9.65037 44.0849L9.22081 44.6417V40.2347H10.8754V49.892C10.8754 50.2208 10.7694 50.5072 10.5572 50.7511C10.3557 50.9951 10.0852 51.1966 9.74583 51.3557C9.40642 51.5042 9.0352 51.6155 8.63215 51.6898C8.2291 51.764 7.83135 51.8011 7.43891 51.8011ZM7.48664 50.3534C7.96394 50.3534 8.37229 50.295 8.7117 50.1783C9.05111 50.0617 9.22081 49.9079 9.22081 49.717V45.2781C8.94504 45.119 8.65336 45.0024 8.34577 44.9281C8.03818 44.8539 7.7412 44.8167 7.45482 44.8167C6.9351 44.8167 6.50554 44.9228 6.16613 45.1349C5.83733 45.3365 5.59338 45.6388 5.43428 46.0418C5.27518 46.4342 5.19563 46.9221 5.19563 47.5055C5.19563 48.0358 5.25927 48.5184 5.38655 48.9533C5.51383 49.3776 5.74187 49.717 6.07067 49.9715C6.41008 50.2261 6.88207 50.3534 7.48664 50.3534ZM13.2768 51.5625V43.6235H14.9473L14.9633 51.5625H13.2768ZM13.2291 42.303V40.7916H15.011V42.303H13.2291ZM20.5279 51.8011C19.7537 51.7905 19.0961 51.6314 18.5551 51.3239C18.0248 51.0057 17.6218 50.5496 17.346 49.9556C17.0808 49.3616 16.9482 48.6404 16.9482 47.7919C16.9482 46.8903 17.0596 46.1532 17.2824 45.5804C17.5157 45.0077 17.8286 44.5622 18.221 44.244C18.6241 43.9258 19.0749 43.7084 19.5734 43.5917C20.0825 43.4644 20.6075 43.4008 21.1484 43.4008C21.7212 43.4008 22.2409 43.475 22.7076 43.6235C23.1743 43.772 23.5508 44 23.8372 44.3076C24.1236 44.6046 24.2668 44.9918 24.2668 45.469V51.8011C24.2668 52.2254 24.1978 52.6178 24.0599 52.9785C23.9326 53.3497 23.7205 53.6785 23.4235 53.9649C23.1372 54.2513 22.7553 54.474 22.278 54.6331C21.8007 54.7922 21.2174 54.8717 20.5279 54.8717C19.9764 54.8717 19.4832 54.824 19.0483 54.7285C18.6135 54.6437 18.2528 54.5535 17.9665 54.4581V52.9307C18.1362 52.9944 18.3483 53.0633 18.6029 53.1376C18.8574 53.2118 19.1385 53.2755 19.4461 53.3285C19.7643 53.3921 20.0878 53.4239 20.4166 53.4239C21.0424 53.4239 21.5091 53.3444 21.8166 53.1853C22.1348 53.0262 22.347 52.8194 22.453 52.5648C22.5591 52.3209 22.6121 52.0557 22.6121 51.7693V50.5602L23.0576 50.9261C22.8667 51.0852 22.628 51.2337 22.3417 51.3716C22.0659 51.4989 21.7689 51.5996 21.4507 51.6739C21.1431 51.7587 20.8355 51.8011 20.5279 51.8011ZM20.7984 50.4488C21.106 50.4488 21.4189 50.4117 21.7371 50.3374C22.0553 50.2526 22.347 50.1306 22.6121 49.9715V45.7872C22.6121 45.5115 22.5379 45.31 22.3894 45.1827C22.2515 45.0448 22.0606 44.9493 21.8166 44.8963C21.5727 44.8433 21.3128 44.8167 21.0371 44.8167C20.3901 44.8167 19.8916 44.9493 19.5415 45.2145C19.2021 45.469 18.9688 45.8191 18.8415 46.2645C18.7142 46.71 18.6506 47.2032 18.6506 47.7441C18.6506 48.5502 18.8256 49.2025 19.1756 49.7011C19.5256 50.1996 20.0666 50.4488 20.7984 50.4488ZM26.623 51.5625V43.6235H28.2935L28.3095 51.5625H26.623ZM26.5753 42.303V40.7916H28.3572V42.303H26.5753ZM33.556 51.7693C32.8347 51.7693 32.262 51.5784 31.8377 51.1966C31.424 50.8147 31.2172 50.2526 31.2172 49.5101V44.9599H29.9285V43.5758H31.2172V41.3484H32.9355V43.5758H34.8765V44.9599H32.9355V49.176C32.9355 49.5473 32.9991 49.8283 33.1264 50.0193C33.2643 50.1996 33.5135 50.2897 33.8742 50.2897C34.0545 50.2897 34.2348 50.2685 34.4151 50.2261C34.5954 50.173 34.7492 50.1094 34.8765 50.0352V51.5148C34.6856 51.5996 34.4681 51.6633 34.2242 51.7057C33.9908 51.7481 33.7681 51.7693 33.556 51.7693ZM39.7097 51.8011C39.296 51.8011 38.8983 51.7587 38.5165 51.6739C38.1346 51.5996 37.7846 51.467 37.4664 51.2761C37.1588 51.0852 36.9096 50.8253 36.7186 50.4965C36.5383 50.1571 36.4482 49.7382 36.4482 49.2397C36.4482 48.6457 36.5649 48.1578 36.7982 47.776C37.0315 47.3941 37.3656 47.1078 37.8005 46.9168C38.2354 46.7259 38.7551 46.6305 39.3597 46.6305C39.7627 46.6305 40.1233 46.6623 40.4415 46.7259C40.7703 46.7896 41.062 46.8797 41.3166 46.9964C41.5817 47.1025 41.8045 47.2244 41.9848 47.3623L42.1598 48.4601C41.9265 48.301 41.6136 48.1684 41.2211 48.0623C40.8287 47.9457 40.4044 47.8873 39.9483 47.8873C39.3438 47.8873 38.8824 47.9934 38.5642 48.2055C38.2566 48.4177 38.1028 48.7359 38.1028 49.1601C38.1028 49.4783 38.193 49.7382 38.3733 49.9397C38.5536 50.1306 38.7763 50.2738 39.0415 50.3693C39.3172 50.4541 39.6036 50.4965 39.9006 50.4965C40.5264 50.4965 40.9878 50.4541 41.2848 50.3693C41.5817 50.2844 41.7302 50.0882 41.7302 49.7806V46.4395C41.7302 45.8774 41.5605 45.469 41.2211 45.2145C40.8817 44.9493 40.3991 44.8167 39.7733 44.8167C39.3279 44.8167 38.8665 44.891 38.3892 45.0395C37.9119 45.1774 37.5194 45.3736 37.2119 45.6281V44.069C37.5088 43.8675 37.9384 43.7084 38.5005 43.5917C39.0733 43.4644 39.662 43.4008 40.2665 43.4008C40.5635 43.4008 40.8605 43.4326 41.1575 43.4962C41.4651 43.5493 41.7514 43.6394 42.0166 43.7667C42.2818 43.8834 42.5151 44.0478 42.7166 44.2599C42.9288 44.4614 43.0932 44.7107 43.2098 45.0077C43.3265 45.3046 43.3849 45.6547 43.3849 46.0577V49.8761C43.3849 50.3958 43.2205 50.7988 42.8916 51.0852C42.5735 51.361 42.1386 51.5466 41.587 51.642C41.0355 51.7481 40.4097 51.8011 39.7097 51.8011ZM47.3869 51.5625H45.7323V40.5529H47.3869V51.5625ZM57.1576 51.8011C56.744 51.8011 56.3462 51.7587 55.9644 51.6739C55.5826 51.5996 55.2326 51.467 54.9144 51.2761C54.6068 51.0852 54.3575 50.8253 54.1666 50.4965C53.9863 50.1571 53.8961 49.7382 53.8961 49.2397C53.8961 48.6457 54.0128 48.1578 54.2461 47.776C54.4795 47.3941 54.8136 47.1078 55.2485 46.9168C55.6833 46.7259 56.203 46.6305 56.8076 46.6305C57.2107 46.6305 57.5713 46.6623 57.8895 46.7259C58.2183 46.7896 58.51 46.8797 58.7645 46.9964C59.0297 47.1025 59.2524 47.2244 59.4327 47.3623L59.6077 48.4601C59.3744 48.301 59.0615 48.1684 58.6691 48.0623C58.2766 47.9457 57.8524 47.8873 57.3963 47.8873C56.7917 47.8873 56.3303 47.9934 56.0121 48.2055C55.7045 48.4177 55.5507 48.7359 55.5507 49.1601C55.5507 49.4783 55.6409 49.7382 55.8212 49.9397C56.0015 50.1306 56.2243 50.2738 56.4894 50.3693C56.7652 50.4541 57.0516 50.4965 57.3486 50.4965C57.9743 50.4965 58.4357 50.4541 58.7327 50.3693C59.0297 50.2844 59.1782 50.0882 59.1782 49.7806V46.4395C59.1782 45.8774 59.0085 45.469 58.6691 45.2145C58.3297 44.9493 57.8471 44.8167 57.2213 44.8167C56.7758 44.8167 56.3144 44.891 55.8371 45.0395C55.3598 45.1774 54.9674 45.3736 54.6598 45.6281V44.069C54.9568 43.8675 55.3863 43.7084 55.9485 43.5917C56.5212 43.4644 57.1099 43.4008 57.7145 43.4008C58.0115 43.4008 58.3084 43.4326 58.6054 43.4962C58.913 43.5493 59.1994 43.6394 59.4646 43.7667C59.7297 43.8834 59.9631 44.0478 60.1646 44.2599C60.3767 44.4614 60.5411 44.7107 60.6578 45.0077C60.7745 45.3046 60.8328 45.6547 60.8328 46.0577V49.8761C60.8328 50.3958 60.6684 50.7988 60.3396 51.0852C60.0214 51.361 59.5865 51.5466 59.035 51.642C58.4835 51.7481 57.8577 51.8011 57.1576 51.8011ZM66.3463 51.8011C65.572 51.7905 64.9144 51.6314 64.3735 51.3239C63.8431 51.0057 63.4401 50.5496 63.1643 49.9556C62.8992 49.3616 62.7666 48.6404 62.7666 47.7919C62.7666 46.8903 62.878 46.1532 63.1007 45.5804C63.334 45.0077 63.6469 44.5622 64.0394 44.244C64.4424 43.9258 64.8932 43.7084 65.3917 43.5917C65.9008 43.4644 66.4258 43.4008 66.9668 43.4008C67.5395 43.4008 68.0592 43.475 68.5259 43.6235C68.9926 43.772 69.3691 44 69.6555 44.3076C69.9419 44.6046 70.0851 44.9918 70.0851 45.469V51.8011C70.0851 52.2254 70.0161 52.6178 69.8783 52.9785C69.751 53.3497 69.5389 53.6785 69.2419 53.9649C68.9555 54.2513 68.5737 54.474 68.0964 54.6331C67.6191 54.7922 67.0357 54.8717 66.3463 54.8717C65.7947 54.8717 65.3015 54.824 64.8667 54.7285C64.4318 54.6437 64.0712 54.5535 63.7848 54.4581V52.9307C63.9545 52.9944 64.1666 53.0633 64.4212 53.1376C64.6758 53.2118 64.9568 53.2755 65.2644 53.3285C65.5826 53.3921 65.9061 53.4239 66.2349 53.4239C66.8607 53.4239 67.3274 53.3444 67.635 53.1853C67.9532 53.0262 68.1653 52.8194 68.2714 52.5648C68.3774 52.3209 68.4305 52.0557 68.4305 51.7693V50.5602L68.8759 50.9261C68.685 51.0852 68.4464 51.2337 68.16 51.3716C67.8842 51.4989 67.5873 51.5996 67.2691 51.6739C66.9615 51.7587 66.6539 51.8011 66.3463 51.8011ZM66.6168 50.4488C66.9243 50.4488 67.2372 50.4117 67.5554 50.3374C67.8736 50.2526 68.1653 50.1306 68.4305 49.9715V45.7872C68.4305 45.5115 68.3562 45.31 68.2077 45.1827C68.0698 45.0448 67.8789 44.9493 67.635 44.8963C67.391 44.8433 67.1312 44.8167 66.8554 44.8167C66.2084 44.8167 65.7099 44.9493 65.3599 45.2145C65.0205 45.469 64.7871 45.8191 64.6599 46.2645C64.5326 46.71 64.4689 47.2032 64.4689 47.7441C64.4689 48.5502 64.6439 49.2025 64.994 49.7011C65.344 50.1996 65.8849 50.4488 66.6168 50.4488ZM75.8301 51.8011C75.0453 51.8011 74.3611 51.642 73.7778 51.3239C73.205 51.0057 72.7596 50.5337 72.4414 49.9079C72.1338 49.2821 71.98 48.5184 71.98 47.6169C71.98 46.2274 72.3035 45.1774 72.9505 44.4667C73.6081 43.7455 74.5202 43.3849 75.687 43.3849C76.5461 43.3849 77.2408 43.5758 77.7711 43.9576C78.3015 44.3395 78.6833 44.8751 78.9166 45.5645C79.1606 46.2433 79.2773 47.0388 79.2667 47.951H72.9823L72.9346 46.71H77.9939L77.5961 47.1078C77.5643 46.2911 77.3946 45.6971 77.087 45.3259C76.7794 44.944 76.2968 44.7531 75.6392 44.7531C75.215 44.7531 74.8543 44.8433 74.5574 45.0236C74.2604 45.1933 74.0323 45.4903 73.8732 45.9145C73.7247 46.3282 73.6505 46.9009 73.6505 47.6328C73.6505 48.5237 73.8573 49.2025 74.271 49.6692C74.6846 50.1253 75.2945 50.3534 76.1006 50.3534C76.4612 50.3534 76.7953 50.3215 77.1029 50.2579C77.4211 50.1943 77.7128 50.1147 77.978 50.0193C78.2431 49.9132 78.4712 49.8124 78.6621 49.717V51.2602C78.2909 51.4193 77.8719 51.5466 77.4052 51.642C76.9385 51.7481 76.4135 51.8011 75.8301 51.8011ZM81.1875 44.2281C81.4209 44.1114 81.6807 44.0053 81.9671 43.9099C82.2641 43.8038 82.577 43.7137 82.9058 43.6394C83.2346 43.5652 83.5687 43.5068 83.9081 43.4644C84.2475 43.422 84.5763 43.4008 84.8945 43.4008C85.6476 43.4008 86.2627 43.5068 86.74 43.719C87.2173 43.9205 87.5726 44.2387 87.806 44.6736C88.0393 45.0978 88.156 45.6335 88.156 46.2804V51.5625H86.4855V46.5032C86.4855 46.3017 86.459 46.1054 86.4059 45.9145C86.3635 45.713 86.2733 45.5327 86.1355 45.3736C86.0082 45.2039 85.8173 45.0713 85.5627 44.9758C85.3188 44.8804 84.9953 44.8327 84.5922 44.8327C84.3058 44.8327 84.0088 44.8592 83.7013 44.9122C83.4043 44.9652 83.1232 45.0395 82.858 45.1349V51.5625H81.1875V44.2281ZM94.0257 51.7216C93.5378 51.7216 93.0605 51.6527 92.5938 51.5148C92.1272 51.3769 91.7029 51.1541 91.3211 50.8466C90.9498 50.5284 90.6528 50.1094 90.4301 49.5897C90.2074 49.0594 90.096 48.4018 90.096 47.6169C90.096 46.8108 90.2021 46.1373 90.4142 45.5963C90.6263 45.0554 90.918 44.6258 91.2892 44.3076C91.6605 43.9788 92.0794 43.7455 92.5461 43.6076C93.0234 43.4697 93.5113 43.4008 94.0098 43.4008C94.4341 43.4008 94.8583 43.4432 95.2826 43.5281C95.7069 43.6023 96.0993 43.719 96.4599 43.8781V45.3736C96.0993 45.2145 95.7387 45.0925 95.3781 45.0077C95.0174 44.9122 94.6409 44.8645 94.2485 44.8645C93.4212 44.8645 92.7954 45.0713 92.3711 45.485C91.9575 45.8986 91.7506 46.5668 91.7506 47.4896C91.7506 48.4442 91.9468 49.1442 92.3393 49.5897C92.7423 50.0246 93.3946 50.242 94.2962 50.242C94.6886 50.242 95.0705 50.1943 95.4417 50.0988C95.8129 49.9927 96.1576 49.8655 96.4758 49.717V51.2125C96.1046 51.3822 95.7175 51.5095 95.3144 51.5943C94.9114 51.6792 94.4818 51.7216 94.0257 51.7216ZM99.6434 54.649C99.4418 54.649 99.2509 54.6278 99.0706 54.5854C98.8903 54.5535 98.7312 54.5111 98.5933 54.4581V53.0262C98.7206 53.0686 98.8479 53.1057 98.9752 53.1376C99.1024 53.1694 99.2403 53.1853 99.3888 53.1853C99.707 53.1853 99.9722 53.1004 100.184 52.9307C100.396 52.761 100.577 52.5171 100.725 52.1989C100.874 51.8807 100.996 51.4989 101.091 51.0534L101.123 51.8807L97.7183 43.5758H99.6116L101.918 49.8761H101.68L103.955 43.5758H105.689L102.396 52.0557C102.131 52.7345 101.844 53.2595 101.537 53.6308C101.229 54.0126 100.911 54.2778 100.582 54.4263C100.264 54.5748 99.951 54.649 99.6434 54.649Z" fill="white"/>
</svg>
