<svg width="217" height="69" viewBox="0 0 217 69" fill="none" xmlns="http://www.w3.org/2000/svg">
<path d="M16.6775 44.4476C13.7629 44.4476 11.1869 43.903 8.9495 42.8137C6.71206 41.7245 4.96039 40.0464 3.69447 37.7795C2.42855 35.5126 1.7956 32.6128 1.7956 29.08C1.7956 24.0163 3.12039 20.1892 5.76998 17.5984C8.41958 14.9783 12.0554 13.6682 16.6775 13.6682C19.592 13.6682 22.168 14.2129 24.4055 15.3021C26.6429 16.3914 28.3946 18.0695 29.6605 20.3364C30.9264 22.5738 31.5594 25.4736 31.5594 29.0358C31.5594 34.0995 30.2346 37.9414 27.585 40.5616C24.9648 43.1523 21.329 44.4476 16.6775 44.4476ZM16.6775 37.3821C17.8256 37.3821 18.8266 37.1318 19.6803 36.6313C20.5341 36.1014 21.1965 35.233 21.6675 34.0259C22.168 32.7894 22.4183 31.1114 22.4183 28.9917C22.4183 26.872 22.168 25.2087 21.6675 24.0016C21.1965 22.7946 20.5341 21.9555 19.6803 21.4845C18.8266 20.984 17.8256 20.7338 16.6775 20.7338C15.5293 20.7338 14.5284 20.9988 13.6746 21.5287C12.8208 22.0291 12.1437 22.8829 11.6432 24.0899C11.1722 25.297 10.9367 26.9751 10.9367 29.1242C10.9367 31.2438 11.1722 32.9072 11.6432 34.1142C12.1437 35.2918 12.8208 36.1309 13.6746 36.6313C14.5284 37.1318 15.5293 37.3821 16.6775 37.3821ZM49.2737 44.4476C48.9204 44.4476 48.3022 44.4182 47.419 44.3593C46.5652 44.3299 45.6526 44.1532 44.681 43.8294C43.7095 43.5056 42.8852 42.9315 42.2081 42.1072L43.6212 39.6342V51.0716H35.7607V26.3421C35.7607 25.3706 36.0404 24.5168 36.5998 23.7808C37.1591 23.0448 37.9393 22.4266 38.9403 21.9261C39.9412 21.4256 41.1335 21.0576 42.5172 20.8221C43.9009 20.5572 45.4318 20.4247 47.1098 20.4247C49.5533 20.4247 51.6436 20.8074 53.3805 21.5728C55.1469 22.3088 56.5012 23.56 57.4432 25.3264C58.4148 27.0928 58.9005 29.5216 58.9005 32.6128C58.9005 34.9386 58.5031 36.9993 57.7082 38.7952C56.9428 40.5616 55.8388 41.9453 54.3962 42.9462C52.9831 43.9472 51.2756 44.4476 49.2737 44.4476ZM46.4916 38.1769C47.4631 38.1769 48.2727 38.0297 48.9204 37.7353C49.5975 37.4115 50.098 36.8374 50.4218 36.0131C50.7751 35.1594 50.9517 33.9229 50.9517 32.3037C50.9517 31.0672 50.8045 30.0662 50.5101 29.3008C50.2452 28.5354 49.8036 27.976 49.1854 27.6227C48.5966 27.24 47.787 27.0487 46.7566 27.0487C45.4023 27.0487 44.5338 27.1664 44.1511 27.4019C43.7978 27.6375 43.6212 27.9466 43.6212 28.3293V37.5145C44.0334 37.7206 44.5191 37.8825 45.0785 38.0003C45.6378 38.1181 46.1089 38.1769 46.4916 38.1769ZM72.9989 44.8892C69.9666 44.8892 67.7586 44.2268 66.3749 42.9021C65.0207 41.5773 64.3436 39.7078 64.3436 37.2937V27.2695H61.3407V21.3079H64.3436V15.2138H72.8223V21.3079H77.4149V27.2695H72.8223V36.543C72.8223 37.1024 72.9695 37.5145 73.2639 37.7795C73.5877 38.0445 74.044 38.1769 74.6328 38.1769C75.045 38.1769 75.516 38.0739 76.0459 37.8678C76.5759 37.6617 77.0322 37.3968 77.4149 37.0729V43.8294C76.6789 44.2416 75.9282 44.5212 75.1627 44.6684C74.4267 44.8156 73.7055 44.8892 72.9989 44.8892ZM82.1221 43.7852V21.7495H90.1592L90.2475 43.7852H82.1221ZM82.0337 18.6583V12.8733H90.2475V18.6583H82.0337Z" fill="#E33AFF"/>
<path d="M117.435 28.4618V43.7852H109.398V30.4048C109.398 29.816 109.31 29.3155 109.133 28.9034C108.986 28.4618 108.75 28.1232 108.427 27.8877C108.132 27.6227 107.749 27.4314 107.278 27.3136C106.837 27.1959 106.322 27.137 105.733 27.137C105.173 27.137 104.688 27.2253 104.275 27.4019C103.893 27.5491 103.657 27.6963 103.569 27.8435V43.7852H95.5318V23.2509C96.0323 22.9859 96.7683 22.7063 97.7398 22.4119C98.7113 22.088 99.8006 21.7936 101.008 21.5287C102.244 21.2637 103.481 21.0429 104.717 20.8663C105.954 20.6896 107.072 20.6013 108.073 20.6013C110.016 20.6013 111.68 20.8368 113.063 21.3079C114.476 21.7495 115.551 22.5443 116.287 23.6925C117.052 24.8112 117.435 26.401 117.435 28.4618ZM109.575 25.0173C110.458 24.193 111.606 23.457 113.019 22.8093C114.462 22.1322 115.978 21.6023 117.568 21.2196C119.157 20.8074 120.615 20.6013 121.939 20.6013C123.882 20.6013 125.546 20.8368 126.929 21.3079C128.343 21.7495 129.417 22.5443 130.153 23.6925C130.919 24.8112 131.301 26.401 131.301 28.4618V43.7852H123.264V30.4048C123.264 29.816 123.176 29.3155 122.999 28.9034C122.852 28.4618 122.617 28.1232 122.293 27.8877C121.998 27.6227 121.616 27.4314 121.145 27.3136C120.703 27.1959 120.188 27.137 119.599 27.137C119.04 27.137 118.554 27.2253 118.142 27.4019C117.759 27.5491 117.523 27.6963 117.435 27.8435L109.575 25.0173ZM136.675 43.7852V21.7495H144.712L144.8 43.7852H136.675ZM136.587 18.6583V12.8733H144.8V18.6583H136.587ZM156.885 44.4476C155.296 44.4476 153.912 44.271 152.734 43.9177C151.586 43.5644 150.556 43.2259 149.643 42.9021V36.1014C150.114 36.4841 150.747 36.8963 151.542 37.3379C152.337 37.7795 153.235 38.1622 154.236 38.4861C155.237 38.7805 156.282 38.9277 157.371 38.9277C158.225 38.9277 158.755 38.8099 158.961 38.5744C159.196 38.3094 159.314 38.0297 159.314 37.7353C159.314 37.3821 159.093 37.0877 158.652 36.8521C158.21 36.5872 157.636 36.3664 156.93 36.1897C156.223 36.0131 155.472 35.8659 154.677 35.7482C154.03 35.6304 153.382 35.4243 152.734 35.1299C152.116 34.8061 151.557 34.3645 151.056 33.8051C150.556 33.2458 150.158 32.5539 149.864 31.7296C149.57 30.9053 149.422 29.9485 149.422 28.8592C149.422 27.2989 149.717 26.0035 150.306 24.9731C150.924 23.9427 151.719 23.1184 152.69 22.5002C153.691 21.8819 154.751 21.4404 155.87 21.1754C157.018 20.9104 158.107 20.7927 159.138 20.8221C161.198 20.9104 162.788 21.1312 163.907 21.4845C165.026 21.8084 165.997 22.2647 166.821 22.8535L166.866 28.815C165.923 28.2851 164.923 27.7552 163.863 27.2253C162.832 26.6954 161.669 26.4304 160.374 26.4304C159.285 26.4304 158.578 26.5776 158.254 26.872C157.96 27.1664 157.813 27.5197 157.813 27.9319C157.813 28.3735 157.945 28.7267 158.21 28.9917C158.505 29.2272 158.873 29.4186 159.314 29.5658C159.785 29.713 160.3 29.8602 160.86 30.0074C161.596 30.184 162.347 30.3901 163.112 30.6256C163.907 30.8317 164.643 31.1702 165.32 31.6413C166.027 32.1123 166.586 32.7747 166.998 33.6285C167.44 34.4528 167.66 35.5715 167.66 36.9846C167.602 38.8688 167.072 40.3555 166.071 41.4448C165.099 42.5341 163.804 43.3142 162.185 43.7852C160.565 44.2268 158.799 44.4476 156.885 44.4476ZM181.975 44.8892C178.943 44.8892 176.735 44.2268 175.351 42.9021C173.997 41.5773 173.32 39.7078 173.32 37.2937V27.2695H170.317V21.3079H173.32V15.2138H181.799V21.3079H186.391V27.2695H181.799V36.543C181.799 37.1024 181.946 37.5145 182.24 37.7795C182.564 38.0445 183.021 38.1769 183.609 38.1769C184.022 38.1769 184.493 38.0739 185.023 37.8678C185.552 37.6617 186.009 37.3968 186.391 37.0729V43.8294C185.655 44.2416 184.905 44.5212 184.139 44.6684C183.403 44.8156 182.682 44.8892 181.975 44.8892ZM203.022 35.1741L197.413 43.7852H189.023L199.533 30.2282L203.022 35.1741ZM214.548 43.7852H205.141L189.244 21.3079H198.606L214.548 43.7852ZM200.858 30.2282L206.687 21.3079H215.077L204.347 35.1741L200.858 30.2282Z" fill="#2CFFC0"/>
<path d="M63.7531 64.0718C63.0759 64.0718 62.4135 63.9835 61.7659 63.8068C61.1182 63.6449 60.5294 63.3505 59.9995 62.9236C59.4695 62.482 59.05 61.8712 58.7409 61.091C58.4318 60.3109 58.2772 59.3025 58.2772 58.0661C58.2772 56.3144 58.7041 54.9307 59.5579 53.915C60.4116 52.8994 61.707 52.3915 63.4439 52.3915C63.7236 52.3915 64.0695 52.4283 64.4817 52.5019C64.8939 52.5755 65.3134 52.6859 65.7402 52.8331C66.1671 52.9656 66.5278 53.1422 66.8222 53.363L66.226 54.1358V48.0197H68.5223V61.4222C68.5223 61.8785 68.3751 62.276 68.0807 62.6145C67.801 62.9531 67.4257 63.2328 66.9546 63.4536C66.4836 63.6596 65.9684 63.8142 65.409 63.9172C64.8497 64.0203 64.2977 64.0718 63.7531 64.0718ZM63.8193 62.0625C64.4817 62.0625 65.0484 61.9816 65.5194 61.8196C65.9905 61.6577 66.226 61.4443 66.226 61.1793V55.019C65.8433 54.7982 65.4385 54.6363 65.0116 54.5333C64.5847 54.4302 64.1726 54.3787 63.7751 54.3787C63.0539 54.3787 62.4577 54.5259 61.9867 54.8203C61.5303 55.1 61.1918 55.5195 60.971 56.0789C60.7502 56.6235 60.6398 57.3006 60.6398 58.1102C60.6398 58.8462 60.7281 59.516 60.9047 60.1195C61.0814 60.7083 61.3979 61.1793 61.8542 61.5326C62.3252 61.8859 62.9803 62.0625 63.8193 62.0625ZM71.855 63.7406V52.7227H74.1734L74.1955 63.7406H71.855ZM71.7888 50.8901V48.7925H74.2617V50.8901H71.7888ZM81.9183 64.0718C80.8437 64.0571 79.9311 63.8363 79.1804 63.4094C78.4444 62.9678 77.885 62.3348 77.5023 61.5105C77.1343 60.6862 76.9503 59.6853 76.9503 58.5077C76.9503 57.2565 77.1049 56.2334 77.414 55.4385C77.7378 54.6437 78.1721 54.0254 78.7167 53.5838C79.2761 53.1422 79.9017 52.8405 80.5935 52.6786C81.3 52.5019 82.0287 52.4136 82.7794 52.4136C83.5743 52.4136 84.2956 52.5166 84.9432 52.7227C85.5909 52.9288 86.1135 53.2453 86.5109 53.6721C86.9084 54.0843 87.1071 54.6216 87.1071 55.284V64.0718C87.1071 64.6606 87.0114 65.2052 86.82 65.7057C86.6434 66.2209 86.349 66.6772 85.9368 67.0747C85.5394 67.4721 85.0095 67.7812 84.3471 68.002C83.6847 68.2228 82.8751 68.3332 81.9183 68.3332C81.1528 68.3332 80.4684 68.267 79.8649 68.1345C79.2613 68.0167 78.7609 67.8916 78.3634 67.7591V65.6395C78.5989 65.7278 78.8933 65.8235 79.2466 65.9265C79.5999 66.0296 79.99 66.1179 80.4169 66.1915C80.8584 66.2798 81.3074 66.324 81.7637 66.324C82.6322 66.324 83.2799 66.2136 83.7068 65.9928C84.1484 65.772 84.4428 65.4849 84.59 65.1316C84.7372 64.7931 84.8108 64.4251 84.8108 64.0276V62.3496L85.429 62.8574C85.164 63.0782 84.8328 63.2843 84.4354 63.4756C84.0527 63.6523 83.6405 63.7921 83.1989 63.8952C82.772 64.0129 82.3452 64.0718 81.9183 64.0718ZM82.2936 62.195C82.7205 62.195 83.1548 62.1435 83.5964 62.0404C84.038 61.9227 84.4428 61.7534 84.8108 61.5326V55.7256C84.8108 55.3429 84.7077 55.0632 84.5016 54.8865C84.3103 54.6952 84.0453 54.5627 83.7068 54.4891C83.3682 54.4155 83.0076 54.3787 82.6248 54.3787C81.7269 54.3787 81.0351 54.5627 80.5493 54.9307C80.0783 55.284 79.7545 55.7697 79.5778 56.388C79.4012 57.0062 79.3129 57.6907 79.3129 58.4414C79.3129 59.5601 79.5557 60.4654 80.0415 61.1572C80.5272 61.8491 81.278 62.195 82.2936 62.195ZM90.3771 63.7406V52.7227H92.6955L92.7176 63.7406H90.3771ZM90.3109 50.8901V48.7925H92.7839V50.8901H90.3109ZM99.9988 64.0276C98.9979 64.0276 98.203 63.7627 97.6142 63.2328C97.0401 62.7028 96.7531 61.9227 96.7531 60.8923V54.5774H94.9646V52.6565H96.7531V49.5653H99.1377V52.6565H101.831V54.5774H99.1377V60.4286C99.1377 60.9438 99.226 61.3339 99.4027 61.5988C99.594 61.8491 99.9399 61.9742 100.44 61.9742C100.691 61.9742 100.941 61.9448 101.191 61.8859C101.441 61.8123 101.655 61.724 101.831 61.6209V63.6744C101.566 63.7921 101.265 63.8804 100.926 63.9393C100.602 63.9982 100.293 64.0276 99.9988 64.0276ZM108.539 64.0718C107.965 64.0718 107.413 64.0129 106.883 63.8952C106.353 63.7921 105.867 63.6081 105.426 63.3432C104.999 63.0782 104.653 62.7176 104.388 62.2612C104.138 61.7902 104.013 61.2088 104.013 60.5169C104.013 59.6926 104.175 59.0155 104.498 58.4856C104.822 57.9557 105.286 57.5582 105.89 57.2933C106.493 57.0283 107.214 56.8958 108.053 56.8958C108.613 56.8958 109.113 56.94 109.555 57.0283C110.011 57.1166 110.416 57.2417 110.769 57.4037C111.137 57.5509 111.446 57.7201 111.697 57.9115L111.939 59.435C111.616 59.2142 111.181 59.0302 110.637 58.883C110.092 58.7211 109.503 58.6401 108.87 58.6401C108.031 58.6401 107.391 58.7873 106.949 59.0817C106.522 59.3761 106.309 59.8177 106.309 60.4065C106.309 60.8481 106.434 61.2088 106.684 61.4884C106.935 61.7534 107.244 61.9521 107.612 62.0846C107.994 62.2024 108.392 62.2612 108.804 62.2612C109.673 62.2612 110.313 62.2024 110.725 62.0846C111.137 61.9668 111.343 61.6945 111.343 61.2676V56.6309C111.343 55.8507 111.108 55.284 110.637 54.9307C110.166 54.5627 109.496 54.3787 108.627 54.3787C108.009 54.3787 107.369 54.4817 106.706 54.6878C106.044 54.8792 105.499 55.1515 105.073 55.5048V53.3409C105.485 53.0613 106.081 52.8405 106.861 52.6786C107.656 52.5019 108.473 52.4136 109.312 52.4136C109.724 52.4136 110.136 52.4578 110.548 52.5461C110.975 52.6197 111.373 52.7448 111.741 52.9214C112.109 53.0834 112.433 53.3115 112.712 53.6059C113.007 53.8856 113.235 54.2315 113.397 54.6437C113.559 55.0558 113.64 55.5416 113.64 56.1009V61.4001C113.64 62.1214 113.411 62.6808 112.955 63.0782C112.513 63.4609 111.91 63.7185 111.145 63.851C110.379 63.9982 109.511 64.0718 108.539 64.0718ZM119.194 63.7406H116.897V48.4613H119.194V63.7406ZM132.754 64.0718C132.18 64.0718 131.628 64.0129 131.098 63.8952C130.568 63.7921 130.082 63.6081 129.64 63.3432C129.214 63.0782 128.868 62.7176 128.603 62.2612C128.352 61.7902 128.227 61.2088 128.227 60.5169C128.227 59.6926 128.389 59.0155 128.713 58.4856C129.037 57.9557 129.501 57.5582 130.104 57.2933C130.708 57.0283 131.429 56.8958 132.268 56.8958C132.827 56.8958 133.328 56.94 133.769 57.0283C134.226 57.1166 134.631 57.2417 134.984 57.4037C135.352 57.5509 135.661 57.7201 135.911 57.9115L136.154 59.435C135.83 59.2142 135.396 59.0302 134.851 58.883C134.307 58.7211 133.718 58.6401 133.085 58.6401C132.246 58.6401 131.606 58.7873 131.164 59.0817C130.737 59.3761 130.524 59.8177 130.524 60.4065C130.524 60.8481 130.649 61.2088 130.899 61.4884C131.149 61.7534 131.458 61.9521 131.826 62.0846C132.209 62.2024 132.607 62.2612 133.019 62.2612C133.887 62.2612 134.527 62.2024 134.94 62.0846C135.352 61.9668 135.558 61.6945 135.558 61.2676V56.6309C135.558 55.8507 135.322 55.284 134.851 54.9307C134.38 54.5627 133.711 54.3787 132.842 54.3787C132.224 54.3787 131.583 54.4817 130.921 54.6878C130.259 54.8792 129.714 55.1515 129.287 55.5048V53.3409C129.699 53.0613 130.295 52.8405 131.076 52.6786C131.871 52.5019 132.687 52.4136 133.527 52.4136C133.939 52.4136 134.351 52.4578 134.763 52.5461C135.19 52.6197 135.587 52.7448 135.955 52.9214C136.323 53.0834 136.647 53.3115 136.927 53.6059C137.221 53.8856 137.449 54.2315 137.611 54.6437C137.773 55.0558 137.854 55.5416 137.854 56.1009V61.4001C137.854 62.1214 137.626 62.6808 137.17 63.0782C136.728 63.4609 136.125 63.7185 135.359 63.851C134.594 63.9982 133.725 64.0718 132.754 64.0718ZM145.506 64.0718C144.431 64.0571 143.519 63.8363 142.768 63.4094C142.032 62.9678 141.473 62.3348 141.09 61.5105C140.722 60.6862 140.538 59.6853 140.538 58.5077C140.538 57.2565 140.692 56.2334 141.002 55.4385C141.325 54.6437 141.76 54.0254 142.304 53.5838C142.864 53.1422 143.489 52.8405 144.181 52.6786C144.888 52.5019 145.616 52.4136 146.367 52.4136C147.162 52.4136 147.883 52.5166 148.531 52.7227C149.179 52.9288 149.701 53.2453 150.099 53.6721C150.496 54.0843 150.695 54.6216 150.695 55.284V64.0718C150.695 64.6606 150.599 65.2052 150.408 65.7057C150.231 66.2209 149.937 66.6772 149.524 67.0747C149.127 67.4721 148.597 67.7812 147.935 68.002C147.272 68.2228 146.463 68.3332 145.506 68.3332C144.74 68.3332 144.056 68.267 143.452 68.1345C142.849 68.0167 142.348 67.8916 141.951 67.7591V65.6395C142.187 65.7278 142.481 65.8235 142.834 65.9265C143.188 66.0296 143.578 66.1179 144.004 66.1915C144.446 66.2798 144.895 66.324 145.351 66.324C146.22 66.324 146.868 66.2136 147.294 65.9928C147.736 65.772 148.03 65.4849 148.178 65.1316C148.325 64.7931 148.398 64.4251 148.398 64.0276V62.3496L149.017 62.8574C148.752 63.0782 148.42 63.2843 148.023 63.4756C147.64 63.6523 147.228 63.7921 146.787 63.8952C146.36 64.0129 145.933 64.0718 145.506 64.0718ZM145.881 62.195C146.308 62.195 146.742 62.1435 147.184 62.0404C147.626 61.9227 148.03 61.7534 148.398 61.5326V55.7256C148.398 55.3429 148.295 55.0632 148.089 54.8865C147.898 54.6952 147.633 54.5627 147.294 54.4891C146.956 54.4155 146.595 54.3787 146.212 54.3787C145.315 54.3787 144.623 54.5627 144.137 54.9307C143.666 55.284 143.342 55.7697 143.165 56.388C142.989 57.0062 142.9 57.6907 142.9 58.4414C142.9 59.5601 143.143 60.4654 143.629 61.1572C144.115 61.8491 144.866 62.195 145.881 62.195ZM158.668 64.0718C157.579 64.0718 156.629 63.851 155.819 63.4094C155.025 62.9678 154.406 62.3128 153.965 61.4443C153.538 60.5758 153.324 59.516 153.324 58.2648C153.324 56.3365 153.773 54.8792 154.671 53.8929C155.584 52.892 156.85 52.3915 158.469 52.3915C159.661 52.3915 160.626 52.6565 161.362 53.1864C162.098 53.7163 162.627 54.4597 162.951 55.4165C163.29 56.3585 163.452 57.4625 163.437 58.7285H154.715L154.649 57.0062H161.671L161.119 57.5582C161.075 56.4248 160.839 55.6005 160.412 55.0853C159.985 54.5553 159.315 54.2904 158.403 54.2904C157.814 54.2904 157.314 54.4155 156.901 54.6657C156.489 54.9013 156.173 55.3134 155.952 55.9022C155.746 56.4763 155.643 57.2712 155.643 58.2869C155.643 59.5233 155.93 60.4654 156.504 61.1131C157.078 61.746 157.924 62.0625 159.043 62.0625C159.544 62.0625 160.007 62.0184 160.434 61.93C160.876 61.8417 161.281 61.7313 161.649 61.5988C162.017 61.4516 162.333 61.3118 162.598 61.1793V63.3211C162.083 63.5419 161.501 63.7185 160.854 63.851C160.206 63.9982 159.477 64.0718 158.668 64.0718ZM166.103 53.5617C166.427 53.3998 166.787 53.2526 167.185 53.1202C167.597 52.973 168.031 52.8478 168.488 52.7448C168.944 52.6418 169.408 52.5608 169.879 52.5019C170.35 52.443 170.806 52.4136 171.247 52.4136C172.293 52.4136 173.146 52.5608 173.809 52.8552C174.471 53.1349 174.964 53.5765 175.288 54.18C175.612 54.7688 175.774 55.5121 175.774 56.4101V63.7406H173.455V56.7192C173.455 56.4395 173.419 56.1672 173.345 55.9022C173.286 55.6225 173.161 55.3723 172.97 55.1515C172.793 54.916 172.528 54.732 172.175 54.5995C171.836 54.467 171.387 54.4008 170.828 54.4008C170.431 54.4008 170.018 54.4376 169.592 54.5112C169.179 54.5848 168.789 54.6878 168.421 54.8203V63.7406H166.103V53.5617ZM183.92 63.9614C183.243 63.9614 182.58 63.8657 181.933 63.6744C181.285 63.483 180.696 63.1739 180.166 62.747C179.651 62.3054 179.239 61.724 178.93 61.0027C178.621 60.2667 178.466 59.3541 178.466 58.2648C178.466 57.1461 178.613 56.2113 178.908 55.4606C179.202 54.7099 179.607 54.1137 180.122 53.6721C180.637 53.2158 181.219 52.892 181.867 52.7006C182.529 52.5093 183.206 52.4136 183.898 52.4136C184.487 52.4136 185.076 52.4725 185.664 52.5902C186.253 52.6933 186.798 52.8552 187.298 53.076V55.1515C186.798 54.9307 186.297 54.7614 185.797 54.6437C185.296 54.5112 184.774 54.4449 184.229 54.4449C183.081 54.4449 182.212 54.732 181.624 55.3061C181.05 55.8801 180.763 56.8075 180.763 58.0881C180.763 59.4129 181.035 60.3844 181.58 61.0027C182.139 61.6062 183.044 61.908 184.295 61.908C184.84 61.908 185.37 61.8417 185.885 61.7092C186.4 61.562 186.879 61.3854 187.32 61.1793V63.2548C186.805 63.4904 186.268 63.667 185.708 63.7848C185.149 63.9025 184.553 63.9614 183.92 63.9614ZM191.716 68.0241C191.437 68.0241 191.172 67.9947 190.921 67.9358C190.671 67.8916 190.45 67.8327 190.259 67.7591V65.772C190.436 65.8308 190.612 65.8824 190.789 65.9265C190.966 65.9707 191.157 65.9928 191.363 65.9928C191.805 65.9928 192.173 65.875 192.467 65.6395C192.761 65.404 193.012 65.0654 193.218 64.6238C193.424 64.1822 193.593 63.6523 193.726 63.034L193.77 64.1822L189.045 52.6565H191.672L194.874 61.4001H194.543L197.7 52.6565H200.107L195.536 64.4251C195.168 65.3672 194.771 66.0958 194.344 66.611C193.917 67.1409 193.475 67.5089 193.019 67.715C192.577 67.9211 192.143 68.0241 191.716 68.0241Z" fill="white"/>
<circle cx="207.578" cy="60.0706" r="4.87516" fill="url(#paint0_angular_3001_188)"/>
<defs>
<radialGradient id="paint0_angular_3001_188" cx="0" cy="0" r="1" gradientUnits="userSpaceOnUse" gradientTransform="translate(207.578 60.0706) rotate(-125.116) scale(5.03368 5.00214)">
<stop stop-color="#BD2BD4"/>
<stop offset="0.345" stop-color="#722BF5"/>
<stop offset="0.66" stop-color="#118DFF"/>
<stop offset="0.97" stop-color="#2CFFC0"/>
</radialGradient>
</defs>
</svg>
