<svg width="82" height="82" viewBox="0 0 82 82" fill="none" xmlns="http://www.w3.org/2000/svg">
<path d="M58.7229 0.781576C56.1462 1.6882 54.8419 4.36037 55.6372 7.04845C55.9712 8.14595 56.9096 9.27526 57.9594 9.86377C58.7388 10.2932 58.9456 10.3409 60.3294 10.3409C62.0631 10.3409 62.8743 10.0387 63.9082 9.02076C65.3079 7.63696 65.7532 5.28291 64.9579 3.45374C64.4808 2.40396 63.1606 1.16331 62.1426 0.813388C61.236 0.511178 59.5182 0.495273 58.7229 0.781576ZM61.4428 3.50146C62.1585 3.86729 62.6198 4.63077 62.6198 5.48968C62.6198 7.79602 59.6295 8.5595 58.4207 6.57128C57.3073 4.74211 59.5182 2.4994 61.4428 3.50146Z" fill="white"/>
<path d="M38.1408 5.09198C37.8545 5.36238 37.7432 5.64868 37.7432 6.06223C37.7432 6.57121 37.9022 6.79389 39.0952 8.01864L40.4471 9.40244L39.0952 10.7385C37.9658 11.8519 37.7432 12.17 37.7432 12.5836C37.7432 13.3789 38.2681 13.9197 39.0474 13.9197C39.636 13.9197 39.795 13.8083 41.0198 12.6154L42.3558 11.3111L43.6919 12.6154C44.9167 13.8242 45.0757 13.9197 45.6801 13.9197C46.1255 13.9197 46.4277 13.8242 46.6504 13.6016C46.8731 13.3789 46.9685 13.0767 46.9685 12.6313C46.9685 12.0269 46.8731 11.8678 45.6642 10.6431L44.36 9.2911L45.6642 7.98683C46.8731 6.77799 46.9685 6.61893 46.9685 6.03042C46.9685 5.20332 46.4754 4.69433 45.6801 4.69433C45.203 4.69433 44.9644 4.8693 43.7874 6.04632L42.4513 7.39831L41.0675 6.04632C39.8427 4.85339 39.62 4.69433 39.1111 4.69433C38.6975 4.69433 38.4112 4.80567 38.1408 5.09198Z" fill="white"/>
<path d="M17.7653 11.6611C16.2542 12.186 15.7771 12.7268 16.0157 13.6334C16.0634 13.8402 16.6519 14.6832 17.3199 15.5103C17.988 16.3374 18.7355 17.2758 18.99 17.5939L19.4513 18.1666L11.4348 25.7695C7.01299 29.9368 3.37057 33.4679 3.32285 33.5951C3.27514 33.7224 3.22742 33.9769 3.22742 34.1678C3.22742 34.5336 7.79237 43.1704 8.25364 43.6794C8.77853 44.2679 9.47838 44.0611 12.9299 42.3433C16.7473 40.4505 16.8109 40.371 16.3497 38.9077C16.1906 38.4146 16.0316 37.9215 15.9838 37.7943C15.9202 37.6193 16.1429 37.5875 17.3199 37.6829C22.4098 38.0647 23.4755 38.001 24.5889 37.2217L25.1615 36.8399L25.3523 37.508C25.8613 39.3848 24.7479 41.2935 20.7397 45.4768C17.2245 49.1351 16.302 50.3598 14.9818 53.1115C13.5821 56.0541 12.9777 59.2352 13.1367 62.7822L13.2321 64.8182H11.562C9.65335 64.8182 9.22389 64.9772 8.52404 65.8839C8.07868 66.4565 8.07868 66.4883 8.03096 69.1445L7.96734 71.8167H5.45423C2.76615 71.8167 2.30488 71.9121 1.57322 72.5802C0.666589 73.4232 0.523438 74.0117 0.523438 76.9225C0.523438 79.4038 0.539343 79.5946 0.921082 80.3422C1.17557 80.8512 1.54141 81.2806 1.98677 81.5669L2.65481 81.9964H30.6967C56.2572 81.9964 58.8022 81.9805 59.2634 81.7419C59.9792 81.3761 60.3132 81.0421 60.6631 80.374C60.9335 79.865 60.9653 79.4197 60.9653 76.8906C60.9653 74.0753 60.9494 73.964 60.5677 73.3118C60.3291 72.8983 59.8838 72.4529 59.4702 72.2144C58.8181 71.8326 58.6908 71.8167 56.1459 71.8167H53.4896V69.2559C53.4896 66.9495 53.4578 66.6314 53.1556 66.1065C52.5353 65.009 52.249 64.8977 49.72 64.85L47.4773 64.8023L46.5229 63.8161C45.1868 62.4164 44.8369 61.6688 44.8369 60.285C44.8369 59.4261 44.9323 58.9808 45.2186 58.3763C45.998 56.7699 47.7477 55.4815 49.5927 55.1316C50.6584 54.9248 50.897 54.6226 51.2628 52.9047C52.8375 45.6835 50.9447 35.0108 46.6979 27.1215C44.0734 22.2384 40.256 18.2779 36.2319 16.2579C33.9892 15.1445 30.9035 14.3969 28.4699 14.3969H27.2133L25.6386 13.3471C23.4914 11.9156 21.9485 11.3748 20.008 11.3748C19.0537 11.3907 18.3061 11.4861 17.7653 11.6611ZM22.712 14.7945C23.3323 15.0967 24.3344 15.733 24.9706 16.2101L26.1158 17.0531L28.3903 17.1486C31.1102 17.244 32.5417 17.578 34.7049 18.6278C36.4546 19.4549 37.8225 20.4093 39.2858 21.7613C44.1689 26.3262 47.8272 34.5177 48.8929 43.2659C49.2428 46.1925 49.0678 51.6005 48.5748 52.3799C48.527 52.4594 48.0658 52.6821 47.5727 52.857C44.9641 53.7796 42.7373 56.2768 42.1806 58.9012C41.8307 60.6031 42.2284 62.5914 43.2304 64.1819L43.6281 64.8182H29.8696H16.1111L15.9997 64.3728C15.9202 64.1342 15.8725 62.8299 15.8725 61.478C15.8725 59.4102 15.9361 58.774 16.2542 57.581C17.1768 54.05 18.5606 51.7913 22.0121 48.1648C25.066 44.9678 26.9429 42.6296 27.6905 41.1345C28.2313 40.0211 28.279 39.8461 28.279 38.51C28.279 37.0785 28.2631 37.0467 27.3883 35.2175C26.4498 33.2929 26.0522 32.8476 25.2887 32.8476C24.8274 32.8476 24.4139 33.1975 23.6027 34.2791C22.9824 35.1062 22.3302 35.2812 20.4852 35.1698C15.7612 34.8676 15.4908 34.8676 14.7591 35.1539C13.3276 35.6947 12.7868 36.8876 13.3117 38.3669L13.5344 39.0031L11.6416 39.9256C10.6077 40.4505 9.73288 40.8323 9.70106 40.8005C9.66925 40.7527 8.88987 39.3053 7.96734 37.5716L6.28132 34.4382L13.6934 27.4237C17.7812 23.5586 21.4554 20.0593 21.8849 19.6458C23.0142 18.4847 22.9665 18.1984 21.2009 15.9875C20.4216 15.0013 19.8012 14.1424 19.8489 14.0788C19.9921 13.8402 21.6304 14.2537 22.712 14.7945ZM50.7857 69.5899V71.8167H30.7444H10.7031V69.5899V67.3631H30.7444H50.7857V69.5899ZM57.9592 74.5207C58.2296 74.6797 58.2614 74.8706 58.2614 76.8747C58.2614 78.3699 58.1977 79.1334 58.0705 79.2606C57.816 79.5151 4.0068 79.5469 3.52963 79.2924C3.25923 79.1334 3.22742 78.9266 3.22742 76.8906C3.22742 74.7434 3.24332 74.6638 3.59325 74.5207C4.10223 74.3139 57.5615 74.3139 57.9592 74.5207Z" fill="white"/>
<path d="M30.0927 19.948C29.8064 20.1707 29.7109 20.4092 29.7109 20.8864C29.7109 21.6976 29.9336 21.9362 31.2061 22.5883C35.4052 24.7197 39.1749 29.6505 41.1631 35.5992C42.2129 38.7645 42.8014 42.1047 42.9286 45.8108C42.9763 47.115 43.0877 48.3875 43.1831 48.6261C43.5012 49.4532 44.6942 49.5963 45.394 48.8647C45.728 48.5306 45.728 48.4193 45.6326 45.8108C45.5213 42.7887 45.2668 40.7209 44.6465 37.9851C42.8809 30.1118 38.5068 23.5427 32.9398 20.3933C31.4765 19.5662 30.713 19.439 30.0927 19.948Z" fill="white"/>
<path d="M59.7248 15.6216C59.6135 15.6693 58.3092 17.1963 56.83 19.0413C54.4918 21.9203 54.126 22.4611 54.126 22.9223C54.126 23.9403 55.1121 24.5288 56.0665 24.0835C56.2733 23.988 57.0049 23.2086 57.7048 22.3338L58.9772 20.7433L59.0568 28.6007C59.1363 36.0605 59.1522 36.49 59.4385 36.8081C59.7407 37.1421 59.8521 37.1421 65.769 37.1421H71.7814V44.4428C71.7814 51.3619 71.7973 51.7595 72.0836 52.1094C72.4971 52.6184 73.5469 52.6343 74.04 52.1253L74.4058 51.7595V43.5044V35.2493L74.04 34.8835L73.6742 34.5176L67.7254 34.4699L61.7607 34.4222V27.5827V20.7274L62.9696 22.2225C63.6217 23.0337 64.3057 23.829 64.4965 23.9721C64.9896 24.4016 65.6895 24.338 66.2303 23.7972C66.7233 23.3041 66.8029 22.8587 66.5007 22.302C66.2621 21.8567 61.6653 16.1624 61.2518 15.7807C60.9496 15.5262 60.1702 15.4307 59.7248 15.6216Z" fill="white"/>
<path d="M73.4035 16.4169C73.0536 16.56 72.7037 17.4189 72.815 17.8802C72.8627 18.1029 73.4989 18.8823 74.2147 19.598L75.519 20.9182L74.167 22.2702C72.9104 23.5268 72.815 23.6699 72.815 24.2743C72.815 25.0855 73.2922 25.5309 74.1511 25.5309C74.6601 25.5309 74.8827 25.3877 76.0757 24.1789L77.4277 22.8269L78.7797 24.1789C80.0362 25.4354 80.1794 25.5309 80.7838 25.5309C81.6268 25.5309 81.9608 25.1651 81.9608 24.2425C81.9608 23.5904 81.8972 23.479 80.6565 22.2384L79.3364 20.9182L80.6565 19.598C81.9131 18.3256 81.9608 18.2619 81.9608 17.5462C81.9608 16.6714 81.595 16.3055 80.7043 16.3055C80.243 16.3055 79.9726 16.4964 78.7956 17.6416L77.4277 18.9936L76.0598 17.6416C74.8668 16.4805 74.6123 16.3055 74.1511 16.3214C73.8489 16.3214 73.5149 16.3692 73.4035 16.4169Z" fill="white"/>
<path d="M71.527 57.6764C70.1432 58.0741 68.6481 59.6169 68.2663 61.0484C68.0118 62.0187 68.155 63.8001 68.5685 64.6113C69.4752 66.3769 71.0498 67.363 72.9903 67.363C74.5968 67.363 75.5035 67.0131 76.5691 65.9474C77.603 64.8976 78.0166 63.9115 78.0007 62.4163C78.0007 60.3963 76.9986 58.8057 75.2012 57.9627C74.4219 57.581 74.0401 57.5015 73.1335 57.5174C72.5291 57.5174 71.7974 57.5969 71.527 57.6764ZM74.1037 60.4599C75.2012 60.9848 75.6307 62.5754 74.9627 63.657C74.0878 65.0885 71.7815 64.9613 71.0657 63.4343C70.525 62.3209 71.0817 60.8099 72.1792 60.3645C72.6881 60.1418 73.5311 60.1895 74.1037 60.4599Z" fill="white"/>
</svg>
