<svg width="82" height="82" viewBox="0 0 82 82" fill="none" xmlns="http://www.w3.org/2000/svg">
<path d="M44.6757 1.50479C38.0409 2.39399 29.4567 3.5397 25.5921 4.0527C18.0168 5.04449 17.7945 5.11289 16.4778 6.29279C15.6741 7.01099 14.9388 8.6184 14.9046 9.6786C14.8704 10.2429 14.7849 10.4994 14.5968 10.5507C9.43255 12.0726 3.77244 13.8339 3.27654 14.0904C1.58364 14.9454 0.523438 16.7409 0.523438 18.7416C0.523438 19.8702 1.25874 22.4352 9.17605 48.7008C13.9299 64.5013 17.9484 77.7538 18.0852 78.1471C18.7521 79.9084 20.6844 81.2593 22.7535 81.3961C23.7966 81.4645 24.2412 81.379 27.5757 80.3701C29.5935 79.7545 37.5621 77.3434 45.2742 75.0349L59.2962 70.8112L62.8017 70.3495C66.6321 69.8365 67.4358 69.58 68.5815 68.5369C69.3852 67.8358 69.8811 66.8782 70.1547 65.6128C70.3257 64.8262 70.1547 63.3043 68.7183 52.2747C67.812 45.4176 67.0596 39.5694 67.0425 39.2787C67.0083 38.7486 67.47 37.9962 78.3627 21.3408C80.0214 18.7929 81.5262 16.3818 81.6801 15.9543C82.1247 14.8428 82.0905 12.8934 81.6288 11.6451C81.15 10.3797 80.0214 9.1485 78.7731 8.5158C77.4051 7.83179 75.3189 7.7121 73.8825 8.2593C72.2409 8.8749 71.5569 9.6786 67.9317 15.2361C66.102 18.0576 64.5801 20.3319 64.5459 20.3148C64.5288 20.2977 64.0158 16.5699 63.4173 12.0555C62.4597 4.73669 62.2887 3.71069 61.8783 2.88989C61.1088 1.31669 59.433 0.188087 57.5862 -1.52588e-05C57.0219 -0.0684128 52.6443 0.444588 44.6757 1.50479ZM58.4925 3.2832C58.8003 3.4884 59.1594 3.8988 59.3133 4.18949C59.4843 4.49729 60.0486 8.2764 60.8694 14.3811L62.169 24.0768L58.8687 29.1213C57.0561 31.8915 55.5513 34.2 55.5171 34.2342C55.4829 34.2684 52.6272 34.6617 49.173 35.1234C45.7188 35.5851 42.6237 35.9955 42.3159 36.0468C41.5464 36.1836 41.0847 36.6966 41.0847 37.3806C41.0847 38.133 41.4951 38.6631 42.162 38.7657C42.4698 38.817 45.1032 38.5263 48.0102 38.1159C50.9343 37.7055 53.3283 37.3977 53.3625 37.4148C53.3796 37.4319 52.3878 39.0222 51.1224 40.9545C49.173 43.9299 48.7797 44.6481 48.4548 45.8451C48.2325 46.6146 47.9589 47.2473 47.8563 47.2473C47.7537 47.2473 43.4445 47.8287 38.2632 48.5298C29.0463 49.761 28.8582 49.7952 28.482 50.2398C28.2597 50.4792 28.0887 50.8725 28.0887 51.1119C28.0887 51.5736 28.9266 52.5483 29.3199 52.5483C29.4567 52.5483 33.3897 52.0524 38.058 51.4368C42.7434 50.8212 46.6593 50.3253 46.7961 50.3253C46.9671 50.3253 46.8645 50.8212 46.437 52.2405C45.9924 53.694 45.8727 54.3609 45.9411 54.9081C46.2318 57.1141 48.1641 58.465 50.37 57.9862C51.0711 57.8494 51.6183 57.439 54.3885 55.0791C56.1498 53.5743 57.9111 52.0182 58.3215 51.6249C58.7319 51.2487 60.2709 49.0599 61.7415 46.7856C63.2121 44.5113 64.4775 42.6987 64.5288 42.7671C64.6485 42.9039 67.4187 64.0396 67.4187 64.792C67.4187 65.0827 67.2477 65.5786 67.0425 65.8864C66.2559 67.0492 66.2046 67.0492 60.1341 67.8529C34.5012 71.2387 27.9861 72.0595 27.4389 71.9569C26.6523 71.8201 25.7802 70.9309 25.5408 70.0759C25.3356 69.3235 17.6577 10.944 17.6577 10.1232C17.6577 9.1143 18.6666 7.88309 19.6584 7.67789C19.932 7.62659 27.2166 6.65189 35.8692 5.5062C44.5218 4.37759 52.6101 3.30029 53.8242 3.1293C56.6457 2.73599 57.7743 2.7702 58.4925 3.2832ZM77.73 11.1663C78.6021 11.7648 79.098 12.6027 79.1835 13.6287C79.2519 14.4837 79.0467 15.1335 78.3969 16.1082C78.2601 16.2792 77.6616 15.9543 75.5583 14.5863L72.8907 12.8421L73.4037 12.1068C74.3955 10.6704 76.3791 10.2429 77.73 11.1663ZM16.6146 24.1965C22.6167 70.0246 22.7535 70.9993 23.1468 71.8201C24.0018 73.5985 25.8999 74.7784 27.8835 74.7784C28.4136 74.7784 31.5429 74.4364 34.8261 74.0089C38.0922 73.5814 40.8453 73.2394 40.9308 73.2736C41.0676 73.3249 30.876 76.4371 25.0278 78.1471C22.7877 78.7969 22.2063 78.7456 21.3 77.8222C20.7015 77.1895 21.5052 79.8058 9.21025 38.9538C5.96124 28.1295 3.29364 19.0152 3.29364 18.6903C3.29364 17.9892 3.78954 17.1171 4.40514 16.7067C4.83264 16.4331 14.3574 13.4406 14.9217 13.4064C15.144 13.3893 15.4176 15.1506 16.6146 24.1965ZM74.0193 16.9974L76.6698 18.7416L76.3791 19.1862C75.6609 20.2977 75.9345 20.349 73.0446 18.468L70.377 16.7238L70.8216 15.9885C71.061 15.5952 71.2833 15.2703 71.3175 15.2703C71.3517 15.2703 72.5658 16.0569 74.0193 16.9974ZM71.5227 20.862C72.9249 21.7854 74.0706 22.6062 74.0364 22.6746C74.0193 22.7601 70.2573 28.5399 65.7087 35.5167L57.4152 48.2049L54.8502 46.5462C53.448 45.6228 52.2852 44.7678 52.2852 44.631C52.2852 44.3574 68.6499 19.2204 68.838 19.2033C68.9064 19.2033 70.1205 19.9557 71.5227 20.862ZM53.106 48.8034C54.2517 49.5729 55.2264 50.2227 55.2606 50.2569C55.3632 50.3424 54.7818 50.9751 54.0294 51.5565L53.3967 52.0695L52.6956 51.4368C52.3023 51.0777 51.567 50.616 51.0711 50.3766C50.5581 50.1543 50.1477 49.8978 50.1477 49.8123C50.1477 49.5558 50.8488 47.4183 50.9343 47.4183C50.9685 47.4183 51.9603 48.051 53.106 48.8034ZM49.9425 52.9587C50.199 53.0955 50.5752 53.3862 50.7975 53.6256L51.1908 54.036L50.4726 54.6687C49.6518 55.3698 49.2414 55.4382 48.8994 54.9423C48.6942 54.6345 48.6942 54.4635 48.9165 53.6598C49.0533 53.1468 49.2414 52.7193 49.3269 52.7193C49.4124 52.7193 49.686 52.8219 49.9425 52.9587Z" fill="#171626"/>
<path d="M42.7261 11.9359C32.8594 13.2526 32.107 13.3723 31.8163 13.7314C31.252 14.4325 31.4401 15.4756 32.2096 15.8689C32.6371 16.0912 33.6118 16.0057 43.0852 14.7574C55.3973 13.15 54.5081 13.2868 54.9356 12.8422C55.7393 11.9701 55.0553 10.4653 53.8754 10.4995C53.5676 10.5166 48.5401 11.1664 42.7261 11.9359Z" fill="#171626"/>
<path d="M40.229 24.2478C26.7884 26.0604 25.7624 26.2143 25.4888 26.5563C24.9074 27.2745 25.1639 28.4886 25.9676 28.7793C26.3267 28.9161 38.6387 27.3942 54.1484 25.2738C55.619 25.0686 56.1149 24.9318 56.4227 24.6411C57.329 23.7861 56.6279 22.2642 55.3283 22.2984C54.9692 22.3155 48.1805 23.1876 40.229 24.2478Z" fill="#171626"/>
<path d="M30.1408 37.5857C27.5416 37.9448 27.3022 38.0132 26.9431 38.4236C26.7208 38.6801 26.5498 39.0734 26.5498 39.2786C26.5498 39.7574 27.1141 40.5098 27.5587 40.6637C27.8323 40.7492 31.8508 40.3046 33.8686 39.9626C35.647 39.6719 35.4247 37.124 33.6121 37.1753C33.253 37.1924 31.6969 37.3805 30.1408 37.5857Z" fill="#171626"/>
<path d="M35.4418 60.9273C32.8597 61.2864 30.6025 61.6284 30.4315 61.6968C30.0553 61.8507 29.7988 62.3124 29.7988 62.8767C29.7988 63.5265 29.9698 63.8172 30.4828 64.0908C30.9103 64.3131 31.5088 64.2789 36.331 63.6633C42.2989 62.8938 42.5041 62.8425 42.5896 61.6968C42.6409 61.218 42.5554 60.9615 42.2647 60.6537C41.7517 60.1065 41.2729 60.1236 35.4418 60.9273Z" fill="#171626"/>
</svg>
