<svg width="481" height="151" viewBox="0 0 481 151" fill="none" xmlns="http://www.w3.org/2000/svg">
<path fill-rule="evenodd" clip-rule="evenodd" d="M455.516 1.29541C442.018 1.03133 430.861 11.7597 430.597 25.258C430.407 34.9997 425.778 57.2057 417.357 76.7276C413.199 86.366 408.86 93.5635 405.047 97.8121C404.146 98.8155 403.437 99.4865 402.917 99.9258C401.514 99.3123 399.113 97.8143 395.408 94.1314C391.043 89.7926 387.104 84.8272 382.119 78.5443C380.129 76.0356 377.972 73.3169 375.555 70.3442C361.129 52.6033 336.596 24.5995 296.333 30.0463C283.363 31.8009 272.132 37.5989 261.362 44.1177C255.352 47.7557 248.071 52.5412 239.785 57.9879C233.826 61.9049 227.347 66.1638 220.446 70.5837C217.144 72.6983 214.977 73.5708 213.768 73.9236C213.186 74.0935 212.835 74.1402 212.679 74.1543C212.536 74.1672 212.481 74.1598 212.475 74.159L212.475 74.1589C212.469 74.1581 212.392 74.15 212.21 74.0892C212.017 74.0249 211.667 73.8881 211.135 73.6043C210.003 73.0001 208.352 71.8951 205.965 69.8728C202.493 66.9299 199.342 63.7708 195.241 59.6579C192.783 57.1934 189.984 54.3865 186.569 51.0783C178.288 43.0552 168.07 33.8915 155.068 25.4451C122.326 4.17375 88.7679 8.75929 62.1918 24.1825C36.8245 38.9042 16.8444 63.6543 4.55468 86.9606C-1.74264 98.9028 2.83344 113.689 14.7756 119.986C26.7178 126.283 41.5039 121.707 47.8012 109.765C57.1448 92.046 71.4646 75.3286 86.7321 66.4683C100.791 58.3094 114.202 57.1984 128.433 66.4437C137.701 72.4646 145.359 79.226 152.55 86.1929C154.447 88.0307 156.521 90.1029 158.685 92.2661C163.776 97.3546 169.37 102.946 174.356 107.171C182.035 113.678 192.627 120.998 206.578 122.693C221.007 124.446 234.416 119.695 246.814 111.754C255.193 106.388 262.046 101.874 267.948 97.9865C275.294 93.1477 281.168 89.2789 286.678 85.9436C296.179 80.1929 300.286 78.8477 302.887 78.4958C313.965 76.9971 322.603 82.719 337.621 101.189C339.052 102.948 340.6 104.902 342.241 106.973C347.771 113.953 354.345 122.25 360.942 128.807C369.837 137.648 382.766 147.632 400.38 149.079C419.002 150.609 432.918 139.955 441.432 130.468C450.232 120.663 457.074 108.09 462.249 96.0924C472.493 72.3434 479.134 43.8225 479.479 26.2143C479.743 12.716 469.014 1.55948 455.516 1.29541ZM401.834 100.685C401.834 100.691 401.893 100.668 402.014 100.596C401.894 100.643 401.834 100.679 401.834 100.685Z" stroke="#E33AFF" stroke-width="2" stroke-linecap="round"/>
</svg>
