<svg width="22" height="16" viewBox="0 0 22 16" fill="none" xmlns="http://www.w3.org/2000/svg">
<path d="M12.6815 11.2877C14.2798 8.76438 13.5299 5.42311 11.0066 3.8248C8.48322 2.2265 5.14195 2.9764 3.54364 5.49976C1.94534 8.02311 2.69524 11.3644 5.2186 12.9627C7.74196 14.561 11.0832 13.8111 12.6815 11.2877Z" fill="#6ADA7A"/>
<path d="M12.6815 11.2877C14.2798 8.76438 13.5299 5.42311 11.0066 3.8248C8.48322 2.2265 5.14195 2.9764 3.54364 5.49976C1.94534 8.02311 2.69524 11.3644 5.2186 12.9627C7.74196 14.561 11.0832 13.8111 12.6815 11.2877Z" stroke="#112050" stroke-width="0.88429" stroke-miterlimit="10"/>
<path d="M20.7254 9.17653C21.1597 6.22126 19.1161 3.47348 16.1608 3.03918C13.2055 2.60488 10.4577 4.64852 10.0234 7.60379C9.58913 10.5591 11.6328 13.3068 14.588 13.7411C17.5433 14.1754 20.2911 12.1318 20.7254 9.17653Z" fill="#FEE652"/>
<path d="M20.7254 9.17653C21.1597 6.22126 19.1161 3.47348 16.1608 3.03918C13.2055 2.60488 10.4577 4.64852 10.0234 7.60379C9.58913 10.5591 11.6328 13.3068 14.588 13.7411C17.5433 14.1754 20.2911 12.1318 20.7254 9.17653Z" stroke="#112050" stroke-width="0.88429" stroke-miterlimit="10"/>
</svg>
