<svg width="165" height="160" viewBox="0 0 165 160" fill="none" xmlns="http://www.w3.org/2000/svg">
<path d="M37.7583 61.8731H34.6493L31.4636 57.1242C31.4042 57.0335 31.3066 56.8311 31.174 56.5206H31.1355V61.8731H28.6721V50.9412H31.1355V56.1088H31.174C31.2368 55.9658 31.338 55.7634 31.4775 55.4982L34.4957 50.9377H37.4302L33.6199 56.1507L37.7583 61.8731Z" fill="#ED6160"/>
<path d="M45.361 61.8731H38.8047V50.9412H45.1098V52.9475H41.2681V55.3795H44.8446V57.3754H41.2681V59.8772H45.361V61.8731Z" fill="#ED6160"/>
<path d="M55.3546 50.9412L51.7956 57.986V61.8731H49.3321V58.0314L45.8638 50.9412H48.6761L50.4382 55.0201C50.4696 55.0969 50.5534 55.3935 50.6894 55.9134H50.7208C50.7871 55.547 50.8674 55.2609 50.9581 55.0515L52.7481 50.9412H55.3546Z" fill="#ED6160"/>
<path d="M70.8925 50.9412L68.0034 61.8731H65.2748L63.4603 54.8596C63.3626 54.4933 63.3068 54.085 63.2858 53.6314H63.2545C63.2091 54.1304 63.1428 54.5386 63.0556 54.8596L61.1958 61.8731H58.352L55.4768 50.9412H58.1671L59.7058 58.2233C59.7721 58.5339 59.821 58.9491 59.8524 59.4725H59.8978C59.9187 59.0817 59.992 58.656 60.1176 58.1919L62.0995 50.9412H64.7374L66.5309 58.2826C66.5972 58.5513 66.6565 58.9421 66.7054 59.4585H66.7368C66.7577 59.0573 66.8101 58.649 66.8973 58.2373L68.4081 50.9412H70.8925Z" fill="#ED6160"/>
<path d="M76.901 62.065C75.3343 62.065 74.0607 61.5556 73.0732 60.5367C72.0857 59.5178 71.5938 58.1884 71.5938 56.5519C71.5938 54.8247 72.0962 53.4255 73.0941 52.3578C74.0955 51.2901 75.4215 50.7562 77.0754 50.7562C78.6351 50.7562 79.8982 51.2657 80.8613 52.288C81.8243 53.3104 82.3059 54.6573 82.3059 56.3286C82.3059 58.0454 81.8069 59.4306 80.809 60.4844C79.8076 61.5381 78.506 62.065 76.901 62.065ZM77.0056 52.8777C76.1403 52.8777 75.4564 53.2022 74.947 53.8512C74.4375 54.5002 74.1828 55.3586 74.1828 56.4228C74.1828 57.5045 74.4375 58.3629 74.947 58.991C75.4564 59.6225 76.1193 59.9366 76.9428 59.9366C77.7907 59.9366 78.4642 59.6295 78.9631 59.0189C79.4621 58.4082 79.7099 57.5569 79.7099 56.4682C79.7099 55.3342 79.4691 54.4514 78.9841 53.8233C78.506 53.1918 77.8431 52.8777 77.0056 52.8777Z" fill="#ED6160"/>
<path d="M93.2903 61.8731H90.4605L88.7612 59.0608C88.6356 58.8479 88.5135 58.656 88.3948 58.4885C88.2797 58.321 88.161 58.178 88.0389 58.0593C87.9203 57.9407 87.7946 57.85 87.6655 57.7837C87.5364 57.7209 87.3934 57.6895 87.2433 57.6895H86.5804V61.8766H84.1169V50.9447H88.0214C90.6733 50.9447 91.9992 51.9356 91.9992 53.9176C91.9992 54.2979 91.9399 54.6503 91.8248 54.9748C91.7096 55.2993 91.5421 55.5889 91.3293 55.8471C91.1164 56.1053 90.8582 56.3287 90.5547 56.5171C90.2511 56.7055 89.9161 56.852 89.5463 56.9602V56.9916C89.7103 57.044 89.8673 57.1242 90.0173 57.2394C90.1708 57.3545 90.3174 57.4871 90.4605 57.6406C90.6035 57.7942 90.7396 57.9582 90.8687 58.1326C90.9978 58.3071 91.1165 58.4781 91.2246 58.6455L93.2903 61.8731ZM86.5804 52.787V55.8297H87.6481C88.175 55.8297 88.6007 55.6762 88.9217 55.3726C89.2462 55.062 89.4102 54.6782 89.4102 54.2211C89.4102 53.2651 88.838 52.787 87.6935 52.787H86.5804Z" fill="#ED6160"/>
<path d="M94.3127 61.8731V50.9412H98.1859C102.069 50.9412 104.01 52.7172 104.01 56.2693C104.01 57.9721 103.479 59.3329 102.418 60.3483C101.358 61.3637 99.9479 61.8731 98.1824 61.8731H94.3127ZM96.7762 52.944V59.8738H97.994C99.0617 59.8738 99.8991 59.5527 100.506 58.9142C101.113 58.2722 101.417 57.4033 101.417 56.3007C101.417 55.2574 101.117 54.4409 100.513 53.8408C99.9096 53.2441 99.0652 52.944 97.9765 52.944H96.7762Z" fill="#ED6160"/>
<path d="M70.4179 45.1384H67.3089L64.1232 40.3895C64.0639 40.2988 63.9662 40.0964 63.8336 39.7859H63.7952V45.1384H61.3318V34.2065H63.7952V39.3741H63.8336C63.8964 39.2311 63.9976 39.0287 64.1372 38.7635L67.1554 34.203H70.0899L66.2796 39.416L70.4179 45.1384Z" fill="black"/>
<path d="M78.021 45.1385H71.4646V34.2065H77.7697V36.2129H73.928V38.6449H77.5045V40.6408H73.928V43.1426H78.021V45.1385Z" fill="black"/>
<path d="M88.0145 34.2065L84.4555 41.2514V45.1385H81.992V41.2968L78.5237 34.2065H81.336L83.0981 38.2855C83.1295 38.3623 83.2133 38.6589 83.3494 39.1788H83.3808C83.4471 38.8124 83.5273 38.5263 83.618 38.3169L85.4081 34.2065H88.0145Z" fill="black"/>
<path d="M103.552 34.2065L100.663 45.1385H97.9346L96.1202 38.125C96.0225 37.7586 95.9667 37.3504 95.9458 36.8968H95.9143C95.869 37.3957 95.8027 37.804 95.7155 38.125L93.8556 45.1385H91.0119L88.1367 34.2065H90.827L92.3657 41.4887C92.432 41.7992 92.4809 42.2144 92.5123 42.7378H92.5576C92.5786 42.347 92.6518 41.9213 92.7775 41.4573L94.7594 34.2065H97.3973L99.1908 41.548C99.2571 41.8167 99.3164 42.2075 99.3652 42.7239H99.3966C99.4176 42.3226 99.4699 41.9144 99.5572 41.5026L101.068 34.2065H103.552Z" fill="black"/>
<path d="M109.561 45.3268C107.994 45.3268 106.721 44.8174 105.733 43.7985C104.746 42.7797 104.254 41.4502 104.254 39.8138C104.254 38.0866 104.756 36.6873 105.754 35.6196C106.756 34.5519 108.081 34.018 109.735 34.018C111.295 34.018 112.558 34.5275 113.521 35.5498C114.484 36.5722 114.966 37.9191 114.966 39.5904C114.966 41.3072 114.467 42.6924 113.469 43.7462C112.467 44.8034 111.166 45.3268 109.561 45.3268ZM109.666 36.143C108.8 36.143 108.116 36.4675 107.607 37.1165C107.097 37.7655 106.843 38.6239 106.843 39.6881C106.843 40.7698 107.097 41.6282 107.607 42.2563C108.116 42.8878 108.779 43.2019 109.603 43.2019C110.451 43.2019 111.124 42.8948 111.623 42.2842C112.122 41.6701 112.37 40.8222 112.37 39.7335C112.37 38.5995 112.129 37.7167 111.644 37.0886C111.166 36.4571 110.506 36.143 109.666 36.143Z" fill="black"/>
<path d="M36.2089 28.404H33.1L29.9142 23.655C29.8549 23.5643 29.7572 23.3619 29.6246 23.0514H29.5863V28.404H27.1228V17.4685H29.5863V22.6362H29.6246C29.6874 22.4931 29.7886 22.2907 29.9282 22.0255L32.9465 17.465H35.881L32.0706 22.678L36.2089 28.404Z" fill="black"/>
<path d="M43.8086 28.404H37.2522V17.4685H43.5574V19.4749H39.7157V21.9069H43.2922V23.9028H39.7157V26.4046H43.8086V28.404Z" fill="black"/>
<path d="M53.8019 17.4685L50.2428 24.5134V28.4005H47.7794V24.5588L44.311 17.4685H47.1234L48.8855 21.5475C48.9169 21.6243 49.0007 21.9209 49.1368 22.4408H49.1681C49.2344 22.0744 49.3147 21.7883 49.4054 21.5789L51.1954 17.4685H53.8019Z" fill="black"/>
<path d="M69.3398 17.4685L66.4506 28.4005H63.722L61.9076 21.387C61.8099 21.0206 61.754 20.6124 61.7331 20.1588H61.7017C61.6564 20.6578 61.59 21.066 61.5028 21.387L59.643 28.4005H56.7992L53.9241 17.4685H56.6143L58.1531 24.7507C58.2194 25.0612 58.2683 25.4765 58.2997 25.9999H58.345C58.366 25.6091 58.4392 25.1799 58.5648 24.7193L60.5467 17.4685H63.1847L64.9782 24.81C65.0445 25.0787 65.1038 25.4695 65.1526 25.9859H65.184C65.205 25.5846 65.2573 25.1764 65.3445 24.7646L66.8554 17.4685H69.3398Z" fill="black"/>
<path d="M75.3483 28.5924C73.7816 28.5924 72.508 28.083 71.5205 27.0641C70.533 26.0452 70.041 24.7158 70.041 23.0793C70.041 21.3521 70.5435 19.9529 71.5414 18.8852C72.5429 17.8175 73.8688 17.2836 75.5227 17.2836C77.0824 17.2836 78.3456 17.7931 79.3086 18.8154C80.2716 19.8378 80.7532 21.1847 80.7532 22.856C80.7532 24.5728 80.2542 25.958 79.2563 27.0118C78.2583 28.0655 76.9533 28.5924 75.3483 28.5924ZM75.4564 19.4051C74.5911 19.4051 73.9072 19.7296 73.3977 20.3786C72.8883 21.0276 72.6336 21.886 72.6336 22.9502C72.6336 24.0319 72.8883 24.8903 73.3977 25.5184C73.9072 26.1499 74.5701 26.464 75.3936 26.464C76.2415 26.464 76.9149 26.1569 77.4139 25.5463C77.9129 24.9322 78.1606 24.0843 78.1606 22.9956C78.1606 21.8616 77.9199 20.9788 77.4349 20.3507C76.9533 19.7226 76.2938 19.4051 75.4564 19.4051Z" fill="black"/>
<path d="M91.741 28.404H88.9112L87.2119 25.5916C87.0863 25.3788 86.9641 25.1869 86.8455 25.0194C86.7304 24.8519 86.6117 24.7088 86.4896 24.5902C86.371 24.4715 86.2454 24.3808 86.1163 24.3145C85.9872 24.2517 85.8441 24.2203 85.6941 24.2203H85.0311V28.4075H82.5676V17.4685H86.4722C89.124 17.4685 90.45 18.4595 90.45 20.4414C90.45 20.8217 90.3907 21.1742 90.2755 21.4987C90.1604 21.8232 89.9929 22.1128 89.78 22.371C89.5672 22.6292 89.309 22.8525 89.0054 23.0409C88.7018 23.2294 88.3669 23.3759 87.997 23.4841V23.5155C88.161 23.5678 88.318 23.6481 88.468 23.7632C88.6216 23.8784 88.7681 24.011 88.9112 24.1645C89.0542 24.318 89.1903 24.482 89.3194 24.6565C89.4485 24.8309 89.5671 25.0019 89.6753 25.1694L91.741 28.404ZM85.0311 19.3144V22.357H86.0988C86.6257 22.357 87.0514 22.2035 87.3724 21.8999C87.6969 21.5894 87.8609 21.2056 87.8609 20.7485C87.8609 19.7924 87.2886 19.3144 86.1442 19.3144H85.0311Z" fill="black"/>
<path d="M92.76 28.404V17.4685H96.6331C100.517 17.4685 102.457 19.2446 102.457 22.7967C102.457 24.4995 101.926 25.8603 100.866 26.8757C99.8049 27.8911 98.3952 28.4005 96.6296 28.4005H92.76V28.404ZM95.2234 19.4749V26.4046H96.4412C97.5089 26.4046 98.3464 26.0836 98.9535 25.4451C99.5606 24.803 99.8642 23.9342 99.8642 22.8316C99.8642 21.7883 99.5641 20.9718 98.9604 20.3716C98.3568 19.775 97.5124 19.4749 96.4238 19.4749H95.2234Z" fill="black"/>
<path d="M37.0778 95.3424H33.9688L30.7831 90.5935C30.7238 90.5028 30.6261 90.3004 30.4935 89.9899H30.4551V95.3424H27.9917V84.4105H30.4551V89.5781H30.4935C30.5563 89.4351 30.6575 89.2327 30.7971 88.9675L33.8153 84.407H36.7498L32.9395 89.62L37.0778 95.3424Z" fill="black"/>
<path d="M44.6775 95.3424H38.1211V84.4105H44.4263V86.4168H40.5846V88.8489H44.1611V90.8447H40.5846V93.3466H44.6775V95.3424Z" fill="black"/>
<path d="M54.6706 84.4105L51.1115 91.4554V95.3424H48.6481V91.5007L45.1797 84.4105H47.9921L49.7542 88.4895C49.7856 88.5662 49.8693 88.8628 50.0054 89.3827H50.0368C50.1031 89.0163 50.1834 88.7302 50.2741 88.5209L52.0641 84.4105H54.6706Z" fill="black"/>
<path d="M70.2084 84.4105L67.3193 95.3424H64.5906L62.7762 88.329C62.6785 87.9626 62.6227 87.5543 62.6018 87.1007H62.5704C62.525 87.5997 62.4587 88.0079 62.3715 88.329L60.5117 95.3424H57.6679L54.7927 84.4105H57.483L59.0217 91.6926C59.088 92.0032 59.1369 92.4184 59.1683 92.9418H59.2137C59.2346 92.551 59.3079 92.1253 59.4335 91.6612L61.4154 84.4105H64.0533L65.8468 91.752C65.9131 92.0206 65.9724 92.4114 66.0213 92.9278H66.0527C66.0736 92.5266 66.1259 92.1183 66.2132 91.7066L67.7241 84.4105H70.2084Z" fill="black"/>
<path d="M76.2171 95.5344C74.6504 95.5344 73.3768 95.0249 72.3894 94.0061C71.4019 92.9872 70.9099 91.6578 70.9099 90.0213C70.9099 88.2941 71.4123 86.8949 72.4103 85.8272C73.4117 84.7594 74.7377 84.2256 76.3916 84.2256C77.9513 84.2256 79.2144 84.735 80.1775 85.7574C81.1405 86.7797 81.622 88.1266 81.622 89.798C81.622 91.5147 81.123 92.9 80.1251 93.9537C79.1272 95.0075 77.8222 95.5344 76.2171 95.5344ZM76.3253 86.3471C75.4599 86.3471 74.776 86.6716 74.2666 87.3206C73.7572 87.9696 73.5024 88.8279 73.5024 89.8922C73.5024 90.9739 73.7572 91.8322 74.2666 92.4603C74.776 93.0919 75.439 93.4059 76.2625 93.4059C77.1104 93.4059 77.7838 93.0988 78.2827 92.4882C78.7817 91.8741 79.0295 91.0262 79.0295 89.9375C79.0295 88.8035 78.7887 87.9207 78.3037 87.2927C77.8222 86.6611 77.1627 86.3471 76.3253 86.3471Z" fill="black"/>
<path d="M92.6099 95.3424H89.7801L88.0808 92.5301C87.9552 92.3172 87.833 92.1253 87.7144 91.9578C87.5993 91.7904 87.4806 91.6473 87.3585 91.5287C87.2399 91.41 87.1143 91.3193 86.9852 91.253C86.856 91.1902 86.713 91.1588 86.563 91.1588H85.9V95.3459H83.4365V84.414H87.3411C89.9929 84.414 91.3189 85.4049 91.3189 87.3869C91.3189 87.7672 91.2596 88.1196 91.1444 88.4441C91.0293 88.7686 90.8618 89.0582 90.6489 89.3164C90.4361 89.5746 90.1779 89.798 89.8743 89.9864C89.5707 90.1748 89.2358 90.3214 88.8659 90.4295V90.4609C89.0299 90.5133 89.1869 90.5935 89.3369 90.7087C89.4905 90.8238 89.637 90.9564 89.7801 91.1099C89.9231 91.2635 90.0592 91.4275 90.1883 91.6019C90.3174 91.7764 90.436 91.9474 90.5442 92.1148L92.6099 95.3424ZM85.9 86.2563V89.299H86.9677C87.4946 89.299 87.9203 89.1455 88.2413 88.8419C88.5658 88.5314 88.7298 88.1475 88.7298 87.6904C88.7298 86.7344 88.1575 86.2563 87.013 86.2563H85.9Z" fill="black"/>
<path d="M93.6287 95.3424V84.4105H97.5018C101.385 84.4105 103.325 86.1865 103.325 89.7386C103.325 91.4414 102.795 92.8022 101.734 93.8176C100.674 94.833 99.2639 95.3424 97.4983 95.3424H93.6287ZM96.0921 86.4168V93.3466H97.3098C98.3776 93.3466 99.215 93.0255 99.8222 92.387C100.429 91.745 100.733 90.8761 100.733 89.7735C100.733 88.7302 100.433 87.9137 99.8291 87.3136C99.2255 86.7169 98.3811 86.4168 97.2924 86.4168H96.0921Z" fill="black"/>
<path d="M23.8254 34.2065L20.9362 45.1385H18.2076L16.3932 38.125C16.2955 37.7586 16.2396 37.3504 16.2187 36.8968H16.1873C16.142 37.3957 16.0757 37.804 15.9884 38.125L14.1286 45.1385H11.2849L8.40967 34.2065H11.0999L12.6387 41.4887C12.705 41.7992 12.7539 42.2144 12.7853 42.7378H12.8306C12.8516 42.347 12.9248 41.9213 13.0504 41.4573L15.0324 34.2065H17.6703L19.4638 41.548C19.5301 41.8167 19.5894 42.2075 19.6382 42.7239H19.6696C19.6906 42.3226 19.7429 41.9144 19.8302 41.5026L21.341 34.2065H23.8254Z" fill="black"/>
<path d="M29.8338 45.3268C28.2671 45.3268 26.9935 44.8174 26.0061 43.7985C25.0186 42.7797 24.5266 41.4502 24.5266 39.8138C24.5266 38.0866 25.0291 36.6873 26.027 35.6196C27.0285 34.5519 28.3544 34.018 30.0083 34.018C31.568 34.018 32.8311 34.5275 33.7942 35.5498C34.7572 36.5722 35.2387 37.9191 35.2387 39.5904C35.2387 41.3072 34.7398 42.6924 33.7418 43.7462C32.7439 44.8034 31.4389 45.3268 29.8338 45.3268ZM29.942 36.143C29.0767 36.143 28.3927 36.4675 27.8833 37.1165C27.3739 37.7655 27.1192 38.6239 27.1192 39.6881C27.1192 40.7698 27.3739 41.6282 27.8833 42.2563C28.3927 42.8878 29.0557 43.2019 29.8792 43.2019C30.7271 43.2019 31.4005 42.8948 31.8995 42.2842C32.3985 41.6701 32.6462 40.8222 32.6462 39.7335C32.6462 38.5995 32.4054 37.7167 31.9204 37.0886C31.4389 36.4571 30.7794 36.143 29.942 36.143Z" fill="black"/>
<path d="M46.2265 45.1385H43.3967L41.6975 42.3261C41.5718 42.1132 41.4497 41.9213 41.3311 41.7538C41.216 41.5864 41.0973 41.4433 40.9752 41.3247C40.8565 41.206 40.7309 41.1153 40.6018 41.049C40.4727 40.9862 40.3297 40.9548 40.1796 40.9548H39.5166V45.1419H37.0532V34.21H40.9577C43.6096 34.21 44.9355 35.201 44.9355 37.1829C44.9355 37.5632 44.8762 37.9156 44.7611 38.2401C44.6459 38.5646 44.4784 38.8542 44.2656 39.1125C44.0527 39.3707 43.7945 39.594 43.491 39.7824C43.1874 39.9708 42.8524 40.1174 42.4825 40.2255V40.2569C42.6465 40.3093 42.8035 40.3895 42.9536 40.5047C43.1071 40.6198 43.2537 40.7524 43.3967 40.9059C43.5398 41.0595 43.6759 41.2235 43.805 41.3979C43.9341 41.5724 44.0527 41.7434 44.1609 41.9109L46.2265 45.1385ZM39.5166 36.0489V39.0915H40.5844C41.1113 39.0915 41.537 38.938 41.858 38.6344C42.1825 38.3239 42.3465 37.94 42.3465 37.483C42.3465 36.5269 41.7742 36.0489 40.6297 36.0489H39.5166Z" fill="black"/>
<path d="M47.249 45.1385V34.2065H51.1221C55.0057 34.2065 56.9458 35.9826 56.9458 39.5347C56.9458 41.2374 56.4154 42.5983 55.3546 43.6137C54.2939 44.629 52.8842 45.1385 51.1186 45.1385H47.249ZM49.709 36.2094V43.1391H50.9268C51.9945 43.1391 52.8319 42.8181 53.439 42.1796C54.0462 41.5375 54.3497 40.6687 54.3497 39.5661C54.3497 38.5228 54.0497 37.7063 53.446 37.1061C52.8424 36.5094 51.9979 36.2094 50.9093 36.2094H49.709Z" fill="black"/>
<path d="M72.9128 78.6009H69.8038L66.6181 73.852C66.5588 73.7613 66.4611 73.5589 66.3285 73.2484H66.2901V78.6009H63.8267V67.669H66.2901V72.8366H66.3285C66.3913 72.6936 66.4925 72.4912 66.6321 72.226L69.6503 67.6655H72.5848L68.7745 72.8785L72.9128 78.6009Z" fill="black"/>
<path d="M80.5158 78.6009H73.9595V67.669H80.2646V69.6753H76.4229V72.1074H79.9994V74.1032H76.4229V76.6051H80.5158V78.6009Z" fill="black"/>
<path d="M90.5094 67.669L86.9504 74.7139V78.6009H84.4869V74.7592L81.0186 67.669H83.8309L85.593 71.748C85.6244 71.8247 85.7082 72.1213 85.8442 72.6412H85.8756C85.9419 72.2748 86.0222 71.9887 86.1129 71.7794L87.9029 67.669H90.5094Z" fill="black"/>
<path d="M106.047 67.669L103.158 78.6009H100.43L98.6151 71.5875C98.5174 71.2211 98.4616 70.8128 98.4406 70.3592H98.4092C98.3639 70.8582 98.2976 71.2664 98.2104 71.5875L96.3505 78.6009H93.5068L90.6316 67.669H93.3219L94.8606 74.9511C94.9269 75.2617 94.9758 75.6769 95.0072 76.2003H95.0525C95.0735 75.8095 95.1468 75.3803 95.2724 74.9197L97.2543 67.669H99.8922L101.686 75.0104C101.752 75.2791 101.811 75.6699 101.86 76.1863H101.892C101.912 75.7851 101.965 75.3768 102.052 74.9651L103.563 67.669H106.047Z" fill="black"/>
<path d="M112.056 78.7929C110.489 78.7929 109.215 78.2834 108.228 77.2646C107.241 76.2457 106.749 74.9163 106.749 73.2798C106.749 71.5526 107.251 70.1534 108.249 69.0857C109.25 68.0179 110.576 67.4841 112.23 67.4841C113.79 67.4841 115.053 67.9935 116.016 69.0159C116.979 70.0382 117.461 71.3851 117.461 73.0565C117.461 74.7732 116.962 76.1585 115.964 77.2122C114.962 78.266 113.661 78.7929 112.056 78.7929ZM112.16 69.6056C111.295 69.6056 110.611 69.9301 110.102 70.5791C109.592 71.2281 109.338 72.0864 109.338 73.1507C109.338 74.2324 109.592 75.0907 110.102 75.7188C110.611 76.3504 111.274 76.6644 112.098 76.6644C112.946 76.6644 113.619 76.3573 114.118 75.7467C114.617 75.1326 114.865 74.2847 114.865 73.196C114.865 72.062 114.624 71.1792 114.139 70.5512C113.661 69.9196 113.001 69.6056 112.16 69.6056Z" fill="black"/>
<path d="M10.7858 67.669L7.22672 74.7139V78.6009H4.76326V74.7592L1.29492 67.669H4.10727L5.86938 71.748C5.90078 71.8247 5.98452 72.1213 6.1206 72.6412H6.15199C6.21829 72.2748 6.29856 71.9887 6.38928 71.7794L8.17929 67.669H10.7858Z" fill="black"/>
<path d="M26.3237 67.669L23.4345 78.6009H20.7059L18.8915 71.5875C18.7938 71.2211 18.7379 70.8128 18.717 70.3592H18.6856C18.6402 70.8582 18.5739 71.2664 18.4867 71.5875L16.6269 78.6009H13.7831L10.908 67.669H13.5982L15.137 74.9511C15.2033 75.2617 15.2521 75.6769 15.2835 76.2003H15.3289C15.3498 75.8095 15.4231 75.3803 15.5487 74.9197L17.5306 67.669H20.1686L21.9621 75.0104C22.0284 75.2791 22.0877 75.6699 22.1365 76.1863H22.1679C22.1889 75.7851 22.2412 75.3768 22.3284 74.9651L23.8393 67.669H26.3237Z" fill="black"/>
<path d="M32.3287 78.7929C30.762 78.7929 29.4884 78.2834 28.5009 77.2646C27.5135 76.2457 27.0215 74.9163 27.0215 73.2798C27.0215 71.5526 27.5239 70.1534 28.5219 69.0857C29.5233 68.0179 30.8492 67.4841 32.5032 67.4841C34.0629 67.4841 35.326 67.9935 36.289 69.0159C37.2521 70.0382 37.7336 71.3851 37.7336 73.0565C37.7336 74.7732 37.2346 76.1585 36.2367 77.2122C35.2387 78.266 33.9373 78.7929 32.3287 78.7929ZM32.4369 69.6056C31.5715 69.6056 30.8876 69.9301 30.3782 70.5791C29.8687 71.2281 29.614 72.0864 29.614 73.1507C29.614 74.2324 29.8687 75.0907 30.3782 75.7188C30.8876 76.3504 31.5506 76.6644 32.374 76.6644C33.2219 76.6644 33.8954 76.3573 34.3944 75.7467C34.8933 75.1326 35.1411 74.2847 35.1411 73.196C35.1411 72.062 34.9003 71.1792 34.4153 70.5512C33.9372 69.9196 33.2743 69.6056 32.4369 69.6056Z" fill="black"/>
<path d="M48.7212 78.601H45.8914L44.1921 75.7886C44.0665 75.5757 43.9443 75.3838 43.8257 75.2163C43.7105 75.0489 43.5919 74.9058 43.4698 74.7872C43.3512 74.6685 43.2255 74.5778 43.0964 74.5115C42.9673 74.4487 42.8243 74.4173 42.6742 74.4173H42.0113V78.6044H39.5479V67.6725H43.4524C46.1042 67.6725 47.4302 68.6634 47.4302 70.6454C47.4302 71.0257 47.3708 71.3781 47.2557 71.7026C47.1405 72.0271 46.973 72.3167 46.7602 72.5749C46.5473 72.8332 46.2892 73.0565 45.9856 73.2449C45.682 73.4333 45.347 73.5799 44.9772 73.688V73.7194C45.1412 73.7718 45.2982 73.852 45.4482 73.9672C45.6017 74.0823 45.7483 74.2149 45.8914 74.3684C46.0344 74.522 46.1705 74.686 46.2996 74.8604C46.4287 75.0349 46.5474 75.2059 46.6555 75.3734L48.7212 78.601ZM42.0113 69.5148V72.5575H43.079C43.6059 72.5575 44.0316 72.404 44.3526 72.1004C44.6771 71.7899 44.8411 71.406 44.8411 70.9489C44.8411 69.9929 44.2689 69.5148 43.1244 69.5148H42.0113Z" fill="black"/>
<path d="M49.7437 78.6009V67.669H53.6168C57.5003 67.669 59.4404 69.445 59.4404 72.9971C59.4404 74.6999 58.91 76.0607 57.8493 77.0761C56.7885 78.0915 55.3788 78.6009 53.6133 78.6009H49.7437ZM52.2036 69.6753V76.6051H53.4248C54.4926 76.6051 55.33 76.284 55.9371 75.6455C56.5443 75.0035 56.8478 74.1346 56.8478 73.032C56.8478 71.9887 56.5478 71.1722 55.9441 70.5721C55.3405 69.9754 54.4961 69.6753 53.4074 69.6753H52.2036Z" fill="black"/>
<path d="M152.636 140.616C152.329 140.309 151.921 140.131 151.429 140.061L151.753 139.737L103.353 91.3367L85.551 109.139L133.951 157.539C133.951 157.539 134.527 158.115 134.834 158.422C136.648 160.236 142.105 157.724 147.022 152.808C151.938 147.891 154.454 142.434 152.636 140.616Z" fill="#112050"/>
<path d="M111.956 85.3889L94.1543 103.19L142.552 151.589L160.354 133.787L111.956 85.3889Z" fill="#ED6160"/>
<path d="M111.956 85.3889L94.1543 103.19L142.552 151.589L160.354 133.787L111.956 85.3889Z" stroke="#112050" stroke-width="0.88429" stroke-miterlimit="10"/>
<path d="M155.625 146.857C160.541 141.94 163.054 136.482 161.238 134.666C159.421 132.849 153.963 135.362 149.047 140.279C144.131 145.195 141.617 150.653 143.434 152.47C145.25 154.286 150.708 151.773 155.625 146.857Z" fill="#FEE652"/>
<path d="M155.625 146.857C160.541 141.94 163.054 136.482 161.238 134.666C159.421 132.849 153.963 135.362 149.047 140.279C144.131 145.195 141.617 150.653 143.434 152.47C145.25 154.286 150.708 151.773 155.625 146.857Z" stroke="#112050" stroke-width="0.88429" stroke-miterlimit="10"/>
<path d="M119.39 92.8128L111.962 85.3841L94.1592 103.186L101.588 110.615C105.109 108.417 108.437 105.786 111.501 102.726C114.561 99.6623 117.192 96.3335 119.39 92.8128Z" fill="#112050"/>
<path d="M17.576 22.1406C-4.16923 43.8859 -4.16923 79.1382 17.576 100.88C39.3213 122.625 74.5737 122.625 96.3155 100.88C118.061 79.1347 118.061 43.8824 96.3155 22.1406C74.5702 0.398781 39.3178 0.398781 17.576 22.1406ZM94.5185 91.0786C78.1886 107.408 43.7074 107.408 27.381 91.0786C11.0511 74.7487 11.0511 42.4936 27.381 26.1637C43.7109 9.83383 79.4168 9.94898 95.4082 26.6069C112.624 44.5418 110.845 74.7487 94.5185 91.0786Z" fill="#112050"/>
<path d="M17.576 22.1406C-4.16923 43.8859 -4.16923 79.1382 17.576 100.88C39.3213 122.625 74.5737 122.625 96.3155 100.88C118.061 79.1347 118.061 43.8824 96.3155 22.1406C74.5702 0.398781 39.3178 0.398781 17.576 22.1406Z" stroke="#112050" stroke-width="0.88429" stroke-miterlimit="10"/>
<path d="M26.4703 17.6917C4.72506 39.437 4.72506 74.6893 26.4703 96.4311C48.2156 118.176 83.468 118.176 105.21 96.4311C126.955 74.6859 126.955 39.4335 105.21 17.6917C83.468 -4.05007 48.2121 -4.05007 26.4703 17.6917ZM95.4083 86.6297C79.0784 102.96 52.6052 102.96 36.2753 86.6297C19.9454 70.2998 19.9454 43.8265 36.2753 27.4966C52.6052 11.1667 79.0784 11.1667 95.4083 27.4966C111.735 43.8265 111.735 70.2998 95.4083 86.6297Z" fill="white"/>
<path d="M26.4703 17.6917C4.72506 39.437 4.72506 74.6893 26.4703 96.4311C48.2156 118.176 83.468 118.176 105.21 96.4311C126.955 74.6859 126.955 39.4335 105.21 17.6917C83.468 -4.05007 48.2121 -4.05007 26.4703 17.6917ZM95.4083 86.6297C79.0784 102.96 52.6052 102.96 36.2753 86.6297C19.9454 70.2998 19.9454 43.8265 36.2753 27.4966C52.6052 11.1667 79.0784 11.1667 95.4083 27.4966C111.735 43.8265 111.735 70.2998 95.4083 86.6297Z" stroke="#112050" stroke-width="0.88429" stroke-miterlimit="10"/>
</svg>
