<svg width="83" height="83" viewBox="0 0 83 83" fill="none" xmlns="http://www.w3.org/2000/svg">
<path d="M79.2058 68.6958H76.9684V27.08C76.9684 24.3593 74.7668 22.1577 72.0461 22.1577H68.3588C67.625 22.1577 67.0164 22.7662 67.0164 23.5002C67.0164 24.234 67.625 24.8426 68.3588 24.8426H72.0461C73.2811 24.8426 74.2835 25.845 74.2835 27.08V68.6958H55.9368C55.2029 68.6958 54.5943 69.3044 54.5943 70.0383V71.8282C54.5943 73.0633 53.5919 74.0656 52.3569 74.0656H30.8778C29.6427 74.0656 28.6404 73.0633 28.6404 71.8282V70.0383C28.6404 69.3044 28.0317 68.6958 27.2979 68.6958H8.95116V27.08C8.95116 25.845 9.95352 24.8426 11.1886 24.8426H20.0666C20.8005 24.8426 21.4091 24.234 21.4091 23.5002C21.4091 22.7662 20.8005 22.1577 20.0666 22.1577H11.1886C8.46784 22.1577 6.26627 24.3593 6.26627 27.08V68.6958H4.02886C2.31049 68.6958 0.896484 70.1098 0.896484 71.8282V73.6181C0.896484 78.3077 4.70903 82.1203 9.39864 82.1203H73.836C78.5256 82.1203 82.3382 78.3077 82.3382 73.6181V71.8282C82.3382 70.1098 80.9242 68.6958 79.2058 68.6958ZM79.6533 73.6181C79.6533 76.8221 77.04 79.4354 73.836 79.4354H9.39864C6.19471 79.4354 3.58138 76.8221 3.58138 73.6181V71.8282C3.58138 71.5776 3.77825 71.3807 4.02886 71.3807H25.9555V71.8282C25.9555 74.5488 28.157 76.7505 30.8778 76.7505H52.3569C55.0776 76.7505 57.2792 74.5488 57.2792 71.8282V71.3807H79.2058C79.4564 71.3807 79.6533 71.5776 79.6533 71.8282V73.6181Z" fill="white"/>
<path d="M67.4821 30.2122H68.9137V63.3259H14.3209V30.2122H16.6474C17.3886 30.2122 17.9899 29.6109 17.9899 28.8698C17.9899 28.1287 17.3886 27.5273 16.6474 27.5273H12.9784C12.2373 27.5273 11.636 28.1287 11.636 28.8698V64.6683C11.636 65.4095 12.2373 66.0108 12.9784 66.0108H70.2561C70.9972 66.0108 71.5986 65.4095 71.5986 64.6683V28.8698C71.5986 28.1287 70.9972 27.5273 70.2561 27.5273H67.4821C66.7409 27.5273 66.1396 28.1287 66.1396 28.8698C66.1396 29.6109 66.7409 30.2122 67.4821 30.2122Z" fill="white"/>
<path d="M21.3194 29.4246C19.2611 31.1429 18.9925 34.2932 20.7109 36.3516C20.7109 36.3516 25.311 41.8288 25.311 41.8467C27.0115 43.8514 30.2333 44.1378 32.238 42.4373C32.238 42.4373 33.4014 41.4708 34.2069 40.7906C34.905 41.0949 35.6926 41.1665 36.4086 40.9517C38.5564 42.9385 45.1434 49.0601 45.1434 49.0601C46.2889 50.1162 48.0968 50.1698 49.296 49.1675C49.296 49.1675 53.4606 45.6821 53.4845 45.6593C55.2523 43.9635 54.6549 40.7171 52.1062 40.1999C50.3163 39.8241 48.6875 38.9828 47.3451 37.7477L43.8726 34.5079C44.1053 33.9173 44.1589 33.2551 44.0158 32.6464C47.4704 30.0153 51.8556 28.5117 56.2589 28.4759C58.0309 30.0153 60.859 30.1227 62.6848 28.6012C64.761 26.8471 65.0296 23.7326 63.2933 21.6563L60.6084 18.4703C63.2396 15.3915 63.4007 10.6483 60.7158 7.46217C58.0488 4.27615 53.3592 3.57806 49.8509 5.65433L47.1839 2.46831C45.4298 0.374022 42.3333 0.105587 40.239 1.85968C38.3775 3.41692 38.0016 6.17346 39.2366 8.19609C38.4311 12.5277 36.1937 16.5729 33.0256 19.5263C31.9695 19.0788 30.6987 19.2041 29.7679 19.9917C29.7679 19.9917 24.2908 24.5918 24.2728 24.5918C23.342 25.3794 23.002 26.6502 23.2705 27.7779C22.465 28.458 21.3194 29.4246 21.3194 29.4246ZM45.5193 39.7167C47.2197 41.2918 49.296 42.3658 51.5513 42.8132C51.9272 42.9027 52.0346 43.3681 51.7482 43.6008L47.5777 47.1091C47.3987 47.2522 47.1482 47.2522 46.987 47.0912L38.6817 39.3945C39.5767 38.6427 42.0826 36.5306 42.0826 36.5306L45.5193 39.7167ZM58.6574 9.18054C60.4294 11.2926 60.4473 14.2818 58.8722 16.3939L51.5872 7.71278C53.9678 6.53137 56.9569 7.14 58.6574 9.18054ZM41.9753 3.91815C42.9059 3.13058 44.338 3.25588 45.1255 4.18657L61.2349 23.3746C62.0225 24.3233 61.8972 25.7374 60.9485 26.5429C60.0178 27.3304 58.5857 27.1872 57.7982 26.2564L41.6888 7.06844C40.9012 6.11972 41.0265 4.70572 41.9753 3.91815ZM41.3846 10.8631C44.4811 14.5682 50.907 22.2112 54.0035 25.8984C49.8331 26.3459 45.8773 27.8674 42.5481 30.3553L35.0124 21.3879C38.0374 18.5239 40.239 14.8904 41.3846 10.8631ZM26.0091 26.6502L31.4863 22.0501C31.6832 21.889 31.9695 21.9248 32.1128 22.1038L41.3309 33.076C41.474 33.2729 41.4561 33.5414 41.2772 33.7026L35.7821 38.3026C35.6031 38.4637 35.3167 38.4458 35.1556 38.2489L25.9554 27.2767C25.7942 27.0977 25.8122 26.8113 26.0091 26.6502ZM24.7562 30.0331C25.7943 31.2861 32.238 38.947 32.238 38.947L30.5197 40.3969C29.5711 41.1844 28.157 41.0591 27.3694 40.1104L22.7693 34.6333C21.9818 33.6846 22.0892 32.2705 23.0378 31.483L24.7562 30.0331Z" fill="white"/>
</svg>
