<svg width="66" height="26" viewBox="0 0 66 26" fill="none" xmlns="http://www.w3.org/2000/svg">
<g clip-path="url(#clip0_124_219)">
<path d="M15.9499 0.400391C13.4115 0.400391 10.9771 1.40877 9.18216 3.20369L3.3243 9.06156C1.52937 10.8565 0.520996 13.2909 0.520996 15.8293C0.520996 21.1153 4.80611 25.4004 10.0921 25.4004C12.6305 25.4004 15.0649 24.392 16.8598 22.5971L20.9117 18.5451C20.9117 18.5451 20.9118 18.5452 20.9117 18.5451L32.7177 6.73922C33.5749 5.88198 34.7376 5.40039 35.9499 5.40039C37.9796 5.40039 39.7003 6.72323 40.2969 8.55378L44.0228 4.82786C42.3231 2.16567 39.3427 0.400391 35.9499 0.400391C33.4115 0.400391 30.9771 1.40877 29.1822 3.20369L13.3243 19.0616C12.4671 19.9188 11.3044 20.4004 10.0921 20.4004C7.56753 20.4004 5.521 18.3539 5.521 15.8293C5.521 14.617 6.00259 13.4543 6.85983 12.5971L12.7177 6.73922C13.5749 5.88198 14.7376 5.40039 15.9499 5.40039C17.9797 5.40039 19.7003 6.72329 20.2969 8.5539L24.0229 4.82795C22.3232 2.16572 19.3427 0.400391 15.9499 0.400391Z" fill="white"/>
<path d="M33.3244 19.0616C32.4671 19.9188 31.3044 20.4004 30.0921 20.4004C28.0627 20.4004 26.3421 19.0779 25.7454 17.2476L22.0195 20.9735C23.7194 23.6353 26.6996 25.4004 30.0921 25.4004C32.6305 25.4004 35.0649 24.392 36.8599 22.5971L52.7177 6.73922C53.5749 5.88198 54.7376 5.40039 55.9499 5.40039C58.4745 5.40039 60.521 7.44692 60.521 9.97147C60.521 11.1838 60.0394 12.3465 59.1822 13.2037L53.3244 19.0616C52.4671 19.9188 51.3044 20.4004 50.0921 20.4004C48.0625 20.4004 46.3419 19.0776 45.7452 17.2472L42.0194 20.9731C43.7191 23.6352 46.6994 25.4004 50.0921 25.4004C52.6305 25.4004 55.0649 24.392 56.8599 22.5971L62.7177 16.7392C64.5126 14.9443 65.521 12.5099 65.521 9.97147C65.521 4.68551 61.236 0.400391 55.9499 0.400391C53.4115 0.400391 50.9771 1.40877 49.1822 3.20369L33.3244 19.0616Z" fill="white"/>
</g>
<defs>
<clipPath id="clip0_124_219">
<rect width="65" height="25" fill="white" transform="translate(0.520996 0.400391)"/>
</clipPath>
</defs>
</svg>
