<svg width="128" height="34" viewBox="0 0 128 34" fill="none" xmlns="http://www.w3.org/2000/svg">
<path d="M29.7776 11.835C30.1251 11.835 30.2409 11.9604 30.2409 12.2982V19.9422H34.1691C34.5069 19.9422 34.6324 20.0677 34.6324 20.4055V21.0811C34.6324 21.4189 34.5069 21.5444 34.1691 21.5444H28.9959C28.6581 21.5444 28.5229 21.4189 28.5229 21.0811V12.2982C28.5229 11.9604 28.6581 11.835 28.9959 11.835H29.7776Z" fill="white"/>
<path d="M38.0586 15.2029C38.0586 12.9734 39.4677 11.6318 41.9192 11.6318C44.3707 11.6318 45.7798 12.9734 45.7798 15.2029V18.1756C45.7798 20.4051 44.361 21.7466 41.9192 21.7466C39.4774 21.7466 38.0586 20.4051 38.0586 18.1756V15.2029ZM44.1583 15.2029C44.1583 13.9482 43.3766 13.2726 41.9675 13.2726C40.5583 13.2726 39.7862 13.9579 39.7862 15.2029V18.1949C39.7862 19.4592 40.5583 20.1252 41.9675 20.1252C43.3766 20.1252 44.1583 19.4303 44.1583 18.1949V15.2029Z" fill="white"/>
<path d="M57.2748 16.2265C57.6512 16.2265 57.7381 16.3519 57.7381 16.6897V18.5235C57.7483 18.9554 57.6618 19.3843 57.4848 19.7783C57.3076 20.1725 57.0447 20.522 56.715 20.8013C55.8963 21.4533 54.864 21.7767 53.8196 21.7085C51.3198 21.7085 49.959 20.367 49.959 18.1375V15.1455C49.959 12.945 51.3681 11.5938 53.8196 11.5938C55.7499 11.5938 57.0046 12.3562 57.5354 13.8812C57.5651 13.9385 57.5811 14.0019 57.5819 14.0664C57.5828 14.1309 57.5686 14.1948 57.5405 14.2528C57.5125 14.3109 57.4711 14.3617 57.42 14.4011C57.3688 14.4404 57.3092 14.4673 57.2459 14.4796L56.4931 14.7401C56.1649 14.856 56.0298 14.7884 55.914 14.4506C55.754 14.0384 55.4613 13.6911 55.082 13.4639C54.7027 13.2367 54.2585 13.1423 53.8196 13.1959C52.4008 13.1959 51.6287 13.8812 51.6287 15.1262V18.1954C51.6287 19.4597 52.4105 20.1257 53.8196 20.1257C55.2287 20.1257 56.0973 19.479 56.0973 18.5332V17.819H54.003C53.6555 17.819 53.53 17.6839 53.53 17.3461V16.6897C53.53 16.3519 53.6555 16.2265 54.003 16.2265H57.2748Z" fill="white"/>
<path d="M61.7241 15.2029C61.7241 12.9734 63.1332 11.6318 65.5847 11.6318C68.0362 11.6318 69.4453 12.9734 69.4453 15.2029V18.1756C69.4453 20.4051 68.0266 21.7466 65.5847 21.7466C63.1429 21.7466 61.7241 20.4051 61.7241 18.1756V15.2029ZM67.8142 15.2029C67.8142 13.9482 67.0325 13.2726 65.633 13.2726C64.2335 13.2726 63.4421 13.9579 63.4421 15.2029V18.1949C63.4421 19.4592 64.2239 20.1252 65.633 20.1252C67.0421 20.1252 67.8142 19.4303 67.8142 18.1949V15.2029Z" fill="white"/>
<path d="M73.9912 12.1149C73.9912 11.9025 74.0588 11.835 74.2711 11.835H74.7151C74.9274 11.835 74.9757 11.9025 74.9757 12.1149V21.2645C74.9757 21.4768 74.9757 21.5444 74.7151 21.5444H74.2711C74.0588 21.5444 73.9912 21.4768 73.9912 21.2645V12.1149Z" fill="white"/>
<path d="M83.7683 11.835C84.5721 11.835 85.3429 12.1542 85.9113 12.7226C86.4796 13.2909 86.7989 14.0618 86.7989 14.8655C86.7989 15.6693 86.4796 16.4402 85.9113 17.0085C85.3429 17.5768 84.5721 17.8961 83.7683 17.8961H80.8729V21.2645C80.8729 21.4768 80.8246 21.5444 80.6219 21.5444H80.1683C79.9656 21.5444 79.8884 21.4768 79.8884 21.2645V12.1149C79.8884 11.9025 79.9656 11.835 80.1683 11.835H83.7683ZM83.6815 16.9406C83.9578 16.9406 84.2314 16.8862 84.4867 16.7805C84.7419 16.6747 84.9739 16.5197 85.1693 16.3244C85.3646 16.129 85.5196 15.897 85.6254 15.6418C85.7311 15.3865 85.7855 15.1129 85.7855 14.8366C85.7855 14.5603 85.7311 14.2866 85.6254 14.0314C85.5196 13.7762 85.3646 13.5441 85.1693 13.3488C84.9739 13.1535 84.7419 12.9985 84.4867 12.8927C84.2314 12.787 83.9578 12.7326 83.6815 12.7326H80.786V16.9406H83.6815Z" fill="white"/>
<path d="M94.3366 11.6421C95.0818 11.5599 95.8336 11.7202 96.4804 12.0992C97.1269 12.4783 97.6345 13.0559 97.927 13.7462C98.0042 13.9006 97.927 14.026 97.7726 14.1033L97.3479 14.2963C97.1742 14.3638 97.1066 14.3542 97.0004 14.1708C96.7817 13.6585 96.4058 13.229 95.9269 12.9445C95.4481 12.66 94.8911 12.5351 94.3366 12.588C92.7055 12.588 91.8176 13.2346 91.8176 14.3928C91.8081 14.7467 91.9269 15.0922 92.1523 15.3654C92.3776 15.6385 92.694 15.821 93.0433 15.8791C93.5624 16.0484 94.1007 16.1522 94.6455 16.188C95.305 16.2231 95.9556 16.3565 96.5758 16.5837C97.0516 16.7342 97.4608 17.0436 97.7349 17.4601C98.009 17.8767 98.1316 18.3749 98.0814 18.8711C98.0814 20.6759 96.7688 21.7666 94.3559 21.7666C93.5645 21.8571 92.7659 21.6737 92.0933 21.2469C91.4207 20.8202 90.9146 20.1758 90.6594 19.4212C90.6423 19.3869 90.6331 19.3491 90.6324 19.3107C90.6316 19.2723 90.6394 19.2343 90.6551 19.1993C90.6707 19.1642 90.694 19.133 90.7231 19.108C90.7522 19.083 90.7864 19.0647 90.8235 19.0545L91.2481 18.9001C91.2815 18.8864 91.3175 18.8798 91.3536 18.8808C91.3897 18.8817 91.4252 18.8902 91.458 18.9057C91.4906 18.9211 91.5197 18.9431 91.5434 18.9704C91.5671 18.9977 91.5849 19.0296 91.5956 19.0641C91.8115 19.6093 92.1954 20.0717 92.6917 20.3841C93.188 20.6964 93.771 20.8426 94.3559 20.8014C96.1801 20.8014 97.0777 20.1644 97.0777 18.8711C97.095 18.5312 96.9908 18.1962 96.7837 17.9257C96.5769 17.6554 96.2809 17.4671 95.9484 17.3944C95.4491 17.2455 94.9341 17.1548 94.4138 17.1242L93.3715 16.9891C93.0453 16.9199 92.7231 16.8328 92.4063 16.7285C92.0934 16.634 91.8018 16.4799 91.5473 16.2748C91.2913 16.043 91.0895 15.7577 90.956 15.4391C90.8226 15.1205 90.7608 14.7765 90.7752 14.4314C90.8428 12.7424 92.1071 11.6421 94.3366 11.6421Z" fill="white"/>
<path d="M103.284 18.2436C103.324 18.9261 103.624 19.5673 104.122 20.036C104.62 20.5048 105.279 20.7658 105.962 20.7658C106.645 20.7658 107.304 20.5048 107.802 20.036C108.3 19.5673 108.599 18.9261 108.64 18.2436V12.1149C108.64 11.9025 108.708 11.835 108.92 11.835H109.364C109.576 11.835 109.644 11.9025 109.644 12.1149V18.2339C109.644 20.4248 108.351 21.7471 105.967 21.7471C103.583 21.7471 102.29 20.4248 102.29 18.2339V12.1149C102.29 11.9025 102.357 11.835 102.56 11.835H103.013C103.216 11.835 103.284 11.9025 103.284 12.1149V18.2436Z" fill="white"/>
<path d="M122.963 11.8347C123.175 11.8347 123.243 11.9022 123.243 12.1145V21.2642C123.243 21.4765 123.175 21.5441 122.963 21.5441H122.558C122.355 21.5441 122.287 21.4765 122.287 21.2642V15.6953C122.287 14.885 122.342 14.0756 122.451 13.2727H122.394C122.092 14.0069 121.74 14.7196 121.342 15.4057L119.266 19.0636C119.241 19.1271 119.197 19.1814 119.14 19.2193C119.083 19.2572 119.016 19.2769 118.948 19.276H118.678C118.608 19.2764 118.541 19.2564 118.482 19.2187C118.424 19.181 118.378 19.1271 118.35 19.0636L116.246 15.3671C115.872 14.6908 115.55 13.9875 115.28 13.2631H115.222C115.321 14.0733 115.373 14.8887 115.377 15.7049V21.2642C115.377 21.4765 115.309 21.5441 115.097 21.5441H114.721C114.508 21.5441 114.441 21.4765 114.441 21.2642V12.1145C114.441 11.9022 114.508 11.8347 114.721 11.8347H115.068C115.147 11.8273 115.227 11.8446 115.296 11.8844C115.365 11.9241 115.42 11.9843 115.454 12.0566L118.832 18.0599L122.191 12.1145C122.297 11.9119 122.355 11.8829 122.567 11.8829L122.963 11.8347Z" fill="white"/>
<path d="M12.6077 20.0773V27.0553C12.6077 27.3229 12.5014 27.5794 12.3122 27.7685C12.1231 27.9576 11.8666 28.0639 11.5991 28.0639C11.3316 28.0639 11.0751 27.9576 10.8859 27.7685C10.6968 27.5794 10.5905 27.3229 10.5905 27.0553V20.0869C10.8713 20.292 11.208 20.4065 11.5556 20.4151C11.9346 20.4259 12.3059 20.3067 12.6077 20.0773ZM21.1975 18.0601C20.9415 18.0601 20.696 18.1618 20.515 18.3428C20.3341 18.5238 20.2323 18.7693 20.2323 19.0253V20.2413C20.2323 20.5089 20.3386 20.7654 20.5278 20.9545C20.7169 21.1437 20.9734 21.2499 21.2409 21.2499C21.5085 21.2499 21.765 21.1437 21.9541 20.9545C22.1433 20.7654 22.2495 20.5089 22.2495 20.2413V19.0735C22.257 18.9351 22.2347 18.7967 22.1839 18.6678C22.1331 18.5388 22.0552 18.4222 21.9553 18.3261C21.8555 18.23 21.7362 18.1564 21.6055 18.1105C21.4747 18.0646 21.3355 18.0475 21.1975 18.0601ZM8.3996 22.7218C8.05231 22.7114 7.7161 22.5971 7.43444 22.3936V29.391C7.43444 29.6598 7.54121 29.9176 7.73127 30.1076C7.92131 30.2976 8.17908 30.4044 8.44785 30.4044C8.71663 30.4044 8.97439 30.2976 9.16444 30.1076C9.3545 29.9176 9.46126 29.6598 9.46126 29.391V22.4419C9.14609 22.6456 8.77423 22.7437 8.3996 22.7218ZM18.0511 15.9657C17.9203 15.9592 17.7896 15.9793 17.6669 16.0249C17.5442 16.0704 17.4321 16.1405 17.3372 16.2308C17.2424 16.3211 17.167 16.4297 17.1155 16.55C17.064 16.6704 17.0375 16.8 17.0377 16.9309V22.3068C17.0377 22.5756 17.1444 22.8334 17.3345 23.0234C17.5246 23.2134 17.7823 23.3202 18.0511 23.3202C18.3199 23.3202 18.5777 23.2134 18.7677 23.0234C18.9578 22.8334 19.0645 22.5756 19.0645 22.3068V16.9984C19.0722 16.8592 19.0497 16.7199 18.9983 16.5902C18.947 16.4605 18.8682 16.3434 18.7673 16.2471C18.6663 16.1507 18.5457 16.0774 18.4138 16.0322C18.2819 15.987 18.1416 15.9708 18.0029 15.985L18.0511 15.9657ZM14.8468 18.0311C14.4832 18.0286 14.1294 17.9141 13.8334 17.703V24.7196C13.8334 24.9884 13.9401 25.2462 14.1302 25.4363C14.3203 25.6263 14.578 25.7331 14.8468 25.7331C15.1156 25.7331 15.3733 25.6263 15.5634 25.4363C15.7535 25.2462 15.8602 24.9884 15.8602 24.7196V17.7126C15.5541 17.9407 15.1803 18.0596 14.7985 18.0505L14.8468 18.0311ZM6.2087 23.407V3.80482C6.20616 3.56587 6.10946 3.3376 5.93959 3.16954C5.76972 3.00147 5.54041 2.90722 5.30146 2.90723H5.08913C4.85017 2.90722 4.62086 3.00147 4.451 3.16954C4.28113 3.3376 4.18442 3.56587 4.18188 3.80482V23.407C4.18188 23.6477 4.27747 23.8784 4.44761 24.0486C4.61775 24.2187 4.84851 24.3143 5.08913 24.3143H5.30146C5.54208 24.3143 5.77284 24.2187 5.94298 24.0486C6.11312 23.8784 6.2087 23.6477 6.2087 23.407ZM8.50576 21.9786H8.29343C8.05282 21.9786 7.82205 21.8831 7.65191 21.7129C7.48178 21.5428 7.38619 21.312 7.38619 21.0714V6.14048C7.38874 5.90155 7.48543 5.67325 7.6553 5.5052C7.82517 5.33714 8.05448 5.24288 8.29343 5.24289H8.50576C8.74471 5.24288 8.97402 5.33714 9.14389 5.5052C9.31376 5.67325 9.41047 5.90155 9.413 6.14048V21.0907C9.413 21.3313 9.31742 21.5621 9.14728 21.7322C8.97714 21.9024 8.74637 21.9979 8.50576 21.9979V21.9786ZM11.7004 19.6816H11.4784C11.2404 19.6816 11.0121 19.587 10.8437 19.4186C10.6754 19.2503 10.5808 19.0221 10.5808 18.784V8.45685C10.5796 8.33816 10.6019 8.2204 10.6464 8.11039C10.6909 8.00037 10.7568 7.90028 10.8403 7.81591C10.9238 7.73154 11.0232 7.66455 11.1327 7.61884C11.2423 7.57313 11.3597 7.54959 11.4784 7.5496H11.7004C11.9394 7.55215 12.1676 7.64885 12.3357 7.81872C12.5038 7.98858 12.598 8.21789 12.598 8.45685V18.784C12.598 19.0221 12.5034 19.2503 12.3351 19.4186C12.1668 19.587 11.9385 19.6816 11.7004 19.6816ZM14.8951 17.3169H14.6924C14.4534 17.3169 14.2241 17.2227 14.0542 17.0546C13.8844 16.8866 13.7876 16.6583 13.7851 16.4193V10.8601C13.7772 10.7361 13.7948 10.6119 13.8369 10.4951C13.8789 10.3783 13.9445 10.2712 14.0295 10.1808C14.1145 10.0903 14.2172 10.0183 14.3313 9.96905C14.4453 9.91992 14.5682 9.89463 14.6924 9.89492H14.9047C15.1453 9.89492 15.3761 9.99047 15.5463 10.1606C15.7164 10.3308 15.812 10.5616 15.812 10.8022V16.4C15.8132 16.52 15.7907 16.639 15.7457 16.7502C15.7007 16.8614 15.6341 16.9625 15.5496 17.0479C15.4653 17.1331 15.3649 17.2007 15.2541 17.247C15.1434 17.2932 15.0247 17.3169 14.9047 17.3169H14.8951ZM18.0994 15.2419H17.887C17.6464 15.2419 17.4157 15.1463 17.2455 14.9762C17.0753 14.806 16.9798 14.5752 16.9798 14.3346V12.8965C16.9823 12.6576 17.079 12.4293 17.2489 12.2613C17.4187 12.0932 17.6481 11.999 17.887 11.999H18.0994C18.3383 11.999 18.5677 12.0932 18.7375 12.2613C18.9074 12.4293 19.0041 12.6576 19.0066 12.8965V14.3346C19.0066 14.5736 18.9124 14.8029 18.7443 14.9728C18.5762 15.1426 18.348 15.2394 18.109 15.2419H18.0994Z" fill="white"/>
</svg>
