<svg width="141" height="26" viewBox="0 0 141 26" fill="none" xmlns="http://www.w3.org/2000/svg">
<g clip-path="url(#clip0_124_225)">
<path d="M78.8438 19.0166H81.8383V7.72112H78.8438V19.0166ZM78.8438 5.95968H81.8383V3.27344H78.8438V5.95968Z" fill="white"/>
<path d="M83.7681 22.7159H86.7627V17.7397H86.8063C87.4447 18.7085 88.4799 19.3471 90.0649 19.3471C92.9715 19.3471 94.9533 17.0351 94.9533 13.3801C94.9533 9.85711 93.0376 7.41309 90.043 7.41309C88.5017 7.41309 87.4447 8.13974 86.7183 9.13053H86.6522V7.72134H83.7681V22.7159ZM89.4265 16.859C87.6431 16.859 86.6965 15.5159 86.6965 13.4682C86.6965 11.4425 87.4447 9.83515 89.3167 9.83515C91.1662 9.83515 91.9144 11.3324 91.9144 13.4682C91.9144 15.6039 90.946 16.859 89.4265 16.859Z" fill="white"/>
<path d="M100.926 19.3471C103.745 19.3471 105.683 17.9819 105.683 15.714C105.683 13.0718 103.591 12.5434 101.697 12.1471C100.09 11.8168 98.5926 11.7287 98.5926 10.7599C98.5926 9.94522 99.3632 9.50487 100.53 9.50487C101.807 9.50487 102.578 9.94522 102.71 11.1562H105.418C105.198 8.88835 103.547 7.41309 100.574 7.41309C97.9979 7.41309 95.9724 8.58009 95.9724 11.0241C95.9724 13.4902 97.9543 14.0406 99.9798 14.437C101.521 14.7452 102.952 14.8553 102.952 15.9342C102.952 16.7269 102.204 17.2333 100.883 17.2333C99.5392 17.2333 98.6144 16.6608 98.4166 15.3617H95.6423C95.8183 17.7617 97.646 19.3471 100.926 19.3471Z" fill="white"/>
<path d="M117.051 19.0171V7.72168H114.057V14.2391C114.057 15.7364 113.198 16.7932 111.789 16.7932C110.512 16.7932 109.918 16.0666 109.918 14.7456V7.72168H106.945V15.2519C106.945 17.718 108.354 19.3254 110.864 19.3254C112.45 19.3254 113.33 18.7309 114.101 17.696H114.167V19.0171H117.051Z" fill="white"/>
<path d="M118.988 19.0168H121.983V12.4553C121.983 10.958 122.798 9.98928 124.009 9.98928C125.11 9.98928 125.748 10.6498 125.748 11.9269V19.0168H128.743V12.4553C128.743 10.958 129.513 9.98928 130.768 9.98928C131.87 9.98928 132.508 10.6498 132.508 11.9269V19.0168H135.502V11.4204C135.502 8.95437 134.159 7.41309 131.781 7.41309C130.35 7.41309 129.161 8.1617 128.39 9.39473H128.346C127.796 8.20576 126.651 7.41309 125.22 7.41309C123.656 7.41309 122.556 8.20576 121.939 9.2406H121.873V7.72134H118.988V19.0168Z" fill="white"/>
<path d="M0.796387 19.0166H3.79088V3.27344H0.796387V19.0166Z" fill="white"/>
<path d="M11.1129 19.3471C14.6138 19.3471 17.0137 16.7489 17.0137 13.3801C17.0137 10.0112 14.6138 7.41309 11.1129 7.41309C7.6119 7.41309 5.21191 10.0112 5.21191 13.3801C5.21191 16.7489 7.6119 19.3471 11.1129 19.3471ZM11.1129 17.0572C9.26332 17.0572 8.25044 15.5819 8.25044 13.3801C8.25044 11.1783 9.26332 9.68102 11.1129 9.68102C12.9404 9.68102 13.9752 11.1783 13.9752 13.3801C13.9752 15.5819 12.9404 17.0572 11.1129 17.0572Z" fill="white"/>
<path d="M23.3818 22.87C25.0552 22.87 26.5084 22.4737 27.4552 21.5929C28.2919 20.8223 28.7983 19.7434 28.7983 18.1581V7.72134H25.914V8.91038H25.8699C25.1873 7.96358 24.1525 7.41309 22.7433 7.41309C19.8809 7.41309 17.8552 9.57088 17.8552 12.9397C17.8552 16.3525 20.3213 18.3342 22.8314 18.3342C24.2625 18.3342 25.1213 17.7617 25.7818 17.0131H25.8479V18.2461C25.8479 19.7874 25.0332 20.6021 23.3378 20.6021C21.9506 20.6021 21.3121 20.0516 21.0699 19.3471H18.0974C18.4057 21.5489 20.2993 22.87 23.3818 22.87ZM23.3378 15.9342C21.7965 15.9342 20.7837 14.8113 20.7837 12.8957C20.7837 11.0021 21.7965 9.81312 23.3157 9.81312C25.1213 9.81312 26.002 11.2223 26.002 12.8737C26.002 14.547 25.2314 15.9342 23.3378 15.9342Z" fill="white"/>
<path d="M36.077 19.3471C39.5779 19.3471 41.9779 16.7489 41.9779 13.3801C41.9779 10.0112 39.5779 7.41309 36.077 7.41309C32.5761 7.41309 30.176 10.0112 30.176 13.3801C30.176 16.7489 32.5761 19.3471 36.077 19.3471ZM36.077 17.0572C34.2274 17.0572 33.2146 15.5819 33.2146 13.3801C33.2146 11.1783 34.2274 9.68102 36.077 9.68102C37.9045 9.68102 38.9394 11.1783 38.9394 13.3801C38.9394 15.5819 37.9045 17.0572 36.077 17.0572Z" fill="white"/>
<path d="M136.591 5.86665C136.591 5.35996 137.002 4.94922 137.508 4.94922H139.343C139.85 4.94922 140.261 5.35996 140.261 5.86665C140.261 6.37333 139.85 6.78409 139.343 6.78409H137.508C137.002 6.78409 136.591 6.37333 136.591 5.86665Z" fill="white"/>
<path fill-rule="evenodd" clip-rule="evenodd" d="M60.138 0.0566406C67.2313 0.0566406 72.9822 5.80712 72.9822 12.9007C72.9822 19.9942 67.2313 25.7447 60.138 25.7447C53.0444 25.7447 47.2939 19.9942 47.2939 12.9007C47.2939 5.80712 53.0444 0.0566406 60.138 0.0566406ZM59.6737 1.01775C58.2084 1.22396 56.8132 2.40137 55.7301 4.37057C55.4159 4.94176 55.1325 5.57281 54.8855 6.25417C56.3582 5.88409 57.9759 5.6659 59.6737 5.63215V1.01775ZM53.7999 6.56266C54.1071 5.59857 54.4829 4.71158 54.9166 3.92311C55.4534 2.94693 56.0906 2.10395 56.8085 1.45649C52.9047 2.59027 49.8276 5.66742 48.6938 9.57131C49.3412 8.85339 50.1842 8.2162 51.1604 7.67932C51.9489 7.24564 52.8358 6.86982 53.7999 6.56266ZM53.4914 7.64817C53.1213 9.12087 52.9032 10.7386 52.8694 12.4364H48.255C48.4612 10.9711 49.6386 9.57587 51.6079 8.49286C52.179 8.1787 52.8101 7.89523 53.4914 7.64817ZM53.7981 12.4364C53.8364 10.5836 54.1032 8.84415 54.5445 7.30723C56.0814 6.86591 57.8209 6.59914 59.6737 6.5608V8.56633C58.9825 10.3359 57.5728 11.7455 55.8032 12.4364H53.7981ZM52.8694 13.3649H48.255C48.4612 14.8302 49.6386 16.2254 51.6079 17.3085C52.179 17.6227 52.8101 17.9061 53.4914 18.1532C53.1213 16.6805 52.9032 15.0627 52.8694 13.3649ZM54.5445 18.4941C54.1032 16.9572 53.8364 15.2177 53.7981 13.3649H55.8032C57.5728 14.0559 58.9825 15.4655 59.6737 17.235V19.2406C57.8209 19.2022 56.0814 18.9354 54.5445 18.4941ZM53.7999 19.2387C52.8358 18.9315 51.9489 18.5557 51.1604 18.122C50.1842 17.5852 49.3412 16.948 48.6938 16.23C49.8276 20.1339 52.9047 23.2111 56.8085 24.3448C56.0906 23.6974 55.4534 22.8544 54.9166 21.8782C54.4829 21.0898 54.1071 20.2028 53.7999 19.2387ZM59.6737 24.7836C58.2084 24.5774 56.8132 23.4 55.7301 21.4308C55.4159 20.8596 55.1325 20.2285 54.8855 19.5472C56.3582 19.9172 57.9759 20.1355 59.6737 20.1692V24.7836ZM63.4674 24.3448C64.1853 23.6974 64.8224 22.8544 65.3593 21.8782C65.7928 21.0898 66.1691 20.2028 66.4761 19.2387C67.44 18.9315 68.3269 18.5557 69.1155 18.122C70.0917 17.5852 70.9349 16.948 71.5822 16.23C70.4481 20.1339 67.3713 23.2111 63.4674 24.3448ZM65.3907 19.5472C65.1435 20.2285 64.8596 20.8596 64.5456 21.4308C63.4627 23.4 62.0675 24.5774 60.6022 24.7836V20.1692C62.3 20.1355 63.9177 19.9172 65.3907 19.5472ZM66.7843 18.1532C67.4657 17.9061 68.097 17.6227 68.6679 17.3085C70.6375 16.2255 71.8147 14.8302 72.0208 13.3649H67.4066C67.3726 15.0627 67.1542 16.6805 66.7843 18.1532ZM66.478 13.3649C66.4395 15.2177 66.1729 16.9572 65.7311 18.4941C64.1944 18.9354 62.455 19.2022 60.6022 19.2406V17.2365C61.2932 15.4663 62.7033 14.0561 64.4733 13.3649H66.478ZM67.4066 12.4364H72.0208C71.8147 10.9711 70.6375 9.57587 68.6679 8.49286C68.097 8.1787 67.4657 7.89523 66.7843 7.64817C67.1542 9.12087 67.3726 10.7386 67.4066 12.4364ZM65.7311 7.30723C66.1729 8.84415 66.4395 10.5836 66.478 12.4364H64.4734C62.7033 11.7453 61.2932 10.335 60.6022 8.56485V6.5608C62.455 6.59914 64.1944 6.86591 65.7311 7.30723ZM66.4761 6.56266C67.44 6.86982 68.3269 7.24564 69.1155 7.67932C70.0917 8.2162 70.9349 8.85339 71.5822 9.57131C70.4481 5.66742 67.3713 2.59027 63.4674 1.45649C64.1853 2.10395 64.8224 2.94693 65.3593 3.92311C65.7928 4.71158 66.1691 5.59857 66.4761 6.56266ZM60.6022 1.01775C62.0675 1.22396 63.4627 2.40137 64.5456 4.37057C64.8596 4.94177 65.1435 5.57281 65.3907 6.25417C63.9177 5.88409 62.3 5.6659 60.6022 5.63215V1.01775Z" fill="white"/>
</g>
<defs>
<clipPath id="clip0_124_225">
<rect width="140" height="25.6881" fill="white" transform="translate(0.26709 0.0566406)"/>
</clipPath>
</defs>
</svg>
