<svg width="130" height="34" viewBox="0 0 130 34" fill="none" xmlns="http://www.w3.org/2000/svg">
<path d="M15.2675 6.91244V2.81055H2.33447V30.993H15.2675V26.8911C12.6182 26.8911 10.0773 25.8386 8.20398 23.9652C6.33062 22.0919 5.27818 19.5511 5.27818 16.9018C5.27818 14.2524 6.33062 11.7116 8.20398 9.83825C10.0773 7.96489 12.6182 6.91244 15.2675 6.91244Z" fill="white"/>
<path d="M15.2676 6.91211V26.8908C17.9169 26.8908 20.4578 25.8383 22.3311 23.9649C24.2045 22.0915 25.2569 19.5508 25.2569 16.9014C25.2569 14.2521 24.2045 11.7112 22.3311 9.83792C20.4578 7.96456 17.9169 6.91211 15.2676 6.91211Z" fill="white"/>
<path d="M32.5149 9.42188H35.4103V23.3683H32.5149V9.42188Z" fill="white"/>
<path d="M37.0317 18.5904C37.0317 17.587 37.3296 16.6062 37.8877 15.7723C38.4457 14.9384 39.2388 14.289 40.1664 13.9063C41.094 13.5237 42.1143 13.4251 43.098 13.6229C44.0817 13.8208 44.9845 14.3063 45.6919 15.0178C46.3994 15.7294 46.8797 16.6349 47.072 17.6197C47.2641 18.6046 47.1597 19.6242 46.7717 20.5496C46.3837 21.4749 45.7298 22.2643 44.8928 22.8175C44.0557 23.3709 43.0732 23.6631 42.0698 23.6574C41.4043 23.6626 40.7444 23.5349 40.129 23.2817C39.5135 23.0285 38.9547 22.655 38.4854 22.1831C38.0162 21.7112 37.6459 21.1502 37.3962 20.5333C37.1467 19.9164 37.0227 19.2558 37.0317 18.5904ZM44.2896 18.5904C44.2783 18.1578 44.1396 17.7381 43.8909 17.384C43.6423 17.0298 43.2949 16.7568 42.8918 16.5991C42.4889 16.4414 42.0484 16.4059 41.6254 16.4973C41.2024 16.5886 40.8158 16.8026 40.5138 17.1126C40.2118 17.4225 40.0078 17.8146 39.9275 18.2398C39.8472 18.6651 39.8941 19.1045 40.0622 19.5032C40.2303 19.9019 40.5122 20.2423 40.8728 20.4816C41.2333 20.7209 41.6563 20.8486 42.0891 20.8488C42.3838 20.8546 42.6764 20.7995 42.9488 20.687C43.2211 20.5745 43.4673 20.4071 43.672 20.1951C43.8768 19.9832 44.0355 19.7312 44.1385 19.4551C44.2415 19.179 44.2864 18.8846 44.2703 18.5904H44.2896Z" fill="white"/>
<path d="M58.5642 13.8128V22.8949C58.5642 26.0992 56.0549 27.4601 53.5165 27.4601C52.6211 27.5335 51.7231 27.3556 50.9234 26.9464C50.1237 26.5372 49.4541 25.9128 48.9899 25.1437L51.4318 23.7346C51.6296 24.1336 51.9444 24.4627 52.3341 24.6782C52.7238 24.8937 53.1699 24.9854 53.613 24.941C53.8953 24.9758 54.1818 24.9478 54.4519 24.859C54.7222 24.7701 54.9693 24.6227 55.1759 24.4272C55.3825 24.2316 55.5433 23.9929 55.6469 23.728C55.7504 23.4632 55.7942 23.1786 55.775 22.8949V22.0166C55.438 22.4251 55.0105 22.7494 54.5263 22.9639C54.0421 23.1784 53.5147 23.277 52.9857 23.252C51.7058 23.252 50.4784 22.7435 49.5734 21.8385C48.6684 20.9336 48.1599 19.7061 48.1599 18.4262C48.1599 17.1463 48.6684 15.919 49.5734 15.0139C50.4784 14.1089 51.7058 13.6005 52.9857 13.6005C53.5147 13.5755 54.0421 13.6741 54.5263 13.8886C55.0105 14.103 55.438 14.4273 55.775 14.8359V13.8707L58.5642 13.8128ZM55.775 18.3973C55.7942 17.9356 55.6749 17.4786 55.4323 17.0852C55.1898 16.6918 54.8352 16.3799 54.4139 16.1897C53.9927 15.9995 53.5243 15.9396 53.0688 16.0178C52.6133 16.096 52.1915 16.3086 51.8579 16.6284C51.5242 16.9481 51.2939 17.3604 51.1964 17.8122C51.0989 18.264 51.1388 18.7345 51.3108 19.1634C51.483 19.5923 51.7795 19.96 52.1622 20.219C52.545 20.4781 52.9965 20.6167 53.4586 20.6171C53.7602 20.6388 54.063 20.5971 54.3473 20.4946C54.6317 20.392 54.8916 20.2309 55.1098 20.0216C55.3281 19.8125 55.5001 19.5598 55.6146 19.28C55.7292 19.0002 55.7838 18.6995 55.775 18.3973Z" fill="white"/>
<path d="M60.1954 18.5905C60.1954 17.5879 60.4929 16.6079 61.05 15.7744C61.6072 14.9409 62.3991 14.2914 63.3256 13.9083C64.252 13.525 65.2713 13.4252 66.2545 13.6215C67.2377 13.8178 68.1405 14.3014 68.8489 15.0109C69.5571 15.7206 70.0389 16.6244 70.2333 17.6079C70.4277 18.5915 70.326 19.6106 69.941 20.5362C69.556 21.462 68.905 22.2527 68.0706 22.8083C67.236 23.3639 66.2554 23.6595 65.2528 23.6575C64.5861 23.664 63.9247 23.5373 63.3075 23.2848C62.6904 23.0323 62.1299 22.6592 61.6589 22.1872C61.1878 21.7153 60.8157 21.154 60.5644 20.5364C60.3132 19.9188 60.1877 19.2572 60.1954 18.5905ZM67.4533 18.5905C67.442 18.1575 67.303 17.7375 67.054 17.3831C66.805 17.0288 66.4568 16.7557 66.0533 16.5983C65.6498 16.4409 65.2088 16.4061 64.7856 16.4982C64.3623 16.5903 63.9757 16.8054 63.6741 17.1162C63.3725 17.4271 63.1693 17.8201 63.0902 18.2459C63.0109 18.6718 63.0591 19.1115 63.2287 19.51C63.3983 19.9086 63.6817 20.2482 64.0436 20.4864C64.4053 20.7245 64.8293 20.8507 65.2624 20.849C65.5571 20.8547 65.8497 20.7996 66.1221 20.6871C66.3945 20.5747 66.6407 20.4072 66.8454 20.1953C67.0501 19.9833 67.2089 19.7313 67.3118 19.4553C67.4148 19.1791 67.4597 18.8848 67.4437 18.5905H67.4533Z" fill="white"/>
<path d="M71.6516 11.2561C71.6516 10.9163 71.7524 10.5841 71.9412 10.3016C72.1299 10.0191 72.3983 9.79889 72.7121 9.66886C73.0261 9.53883 73.3715 9.50481 73.7048 9.5711C74.0379 9.63738 74.3441 9.801 74.5844 10.0413C74.8246 10.2815 74.9882 10.5877 75.0545 10.9209C75.1208 11.2541 75.0868 11.5996 74.9568 11.9135C74.8268 12.2274 74.6065 12.4957 74.324 12.6845C74.0415 12.8733 73.7094 12.974 73.3696 12.974C72.9155 12.969 72.4814 12.7864 72.1603 12.4653C71.8392 12.1442 71.6566 11.7102 71.6516 11.2561ZM71.9315 13.8137H74.827V23.3687H71.9315V13.8137Z" fill="white"/>
<path d="M87.2196 18.5908C87.2521 19.2263 87.1585 19.8619 86.9444 20.4611C86.7303 21.0603 86.3997 21.6112 85.9719 22.0821C85.5439 22.5531 85.0272 22.9347 84.4512 23.2051C83.8753 23.4756 83.2515 23.6294 82.6159 23.6579C82.0764 23.6938 81.5359 23.6074 81.0346 23.4052C80.5332 23.2029 80.084 22.8901 79.7204 22.49V27.2096H76.825V13.8133H79.7204V14.7109C80.0845 14.312 80.534 14.0007 81.0354 13.8001C81.5368 13.5995 82.0771 13.5149 82.6159 13.5527C83.249 13.5812 83.8703 13.7342 84.4442 14.0028C85.0182 14.2714 85.5337 14.6505 85.9612 15.1183C86.3887 15.5861 86.7199 16.1336 86.9358 16.7294C87.1517 17.3252 87.2482 17.9577 87.2196 18.5908ZM84.3242 18.5908C84.3128 18.1425 84.1693 17.7076 83.9118 17.3406C83.6543 16.9735 83.2941 16.6905 82.8764 16.5273C82.4588 16.364 82.0023 16.3277 81.564 16.4228C81.1259 16.5179 80.7255 16.7402 80.4131 17.0619C80.1007 17.3836 79.8902 17.7903 79.808 18.2312C79.7258 18.672 79.7755 19.1273 79.951 19.54C80.1264 19.9526 80.4197 20.3043 80.7942 20.551C81.1687 20.7976 81.6077 20.9282 82.0561 20.9265C82.3632 20.9395 82.6696 20.8875 82.9552 20.7738C83.2409 20.6601 83.4993 20.4874 83.7134 20.2668C83.9276 20.0463 84.0926 19.7829 84.1979 19.4941C84.3032 19.2052 84.3462 18.8975 84.3242 18.5908Z" fill="white"/>
<path d="M96.0313 20.5021C96.0313 22.7027 94.101 23.6389 92.0549 23.6389C91.2203 23.7139 90.3825 23.537 89.6496 23.131C88.9166 22.725 88.3223 22.1084 87.9434 21.3611L90.4335 19.952C90.5321 20.2963 90.746 20.5964 91.0394 20.802C91.3328 21.0076 91.6879 21.1061 92.0453 21.0812C92.7305 21.0812 93.078 20.8689 93.078 20.4828C93.078 19.4308 88.3777 19.9906 88.3777 16.6801C88.3777 14.5954 90.1343 13.553 92.1225 13.553C92.8782 13.5192 93.6291 13.6907 94.2951 14.0492C94.9613 14.4078 95.5179 14.94 95.9059 15.5895L93.4158 16.9021C93.3057 16.6531 93.126 16.4413 92.8982 16.2923C92.6704 16.1433 92.4043 16.0635 92.1321 16.0624C91.6302 16.0624 91.331 16.2555 91.331 16.5933C91.331 17.6935 96.0313 16.9697 96.0313 20.5021Z" fill="white"/>
<path d="M106.523 13.8135V23.3685H103.627V22.4709C103.298 22.8682 102.88 23.1826 102.408 23.3888C101.935 23.5951 101.421 23.6873 100.905 23.658C98.9751 23.658 97.3247 22.2779 97.3247 19.7009V13.8135H100.22V19.2666C100.197 19.4946 100.224 19.7247 100.299 19.9413C100.375 20.1578 100.495 20.3555 100.654 20.5207C100.813 20.6858 101.006 20.8146 101.219 20.8981C101.432 20.9815 101.661 21.0176 101.89 21.0039C102.932 21.0039 103.666 20.3862 103.666 19.0736V13.8135H106.523Z" fill="white"/>
<path d="M122.93 17.5003V23.3684H120.035V17.7512C120.035 16.786 119.581 16.1877 118.664 16.1877C117.747 16.1877 117.168 16.8536 117.168 17.9828V23.3684H114.273V17.7512C114.273 16.786 113.819 16.1877 112.902 16.1877C111.985 16.1877 111.406 16.8536 111.406 17.9828V23.3684H108.511V13.8134H111.406V14.6917C111.706 14.3037 112.097 13.9964 112.546 13.7976C112.994 13.5987 113.485 13.5146 113.974 13.5528C114.463 13.5272 114.951 13.6295 115.389 13.8495C115.828 14.0694 116.201 14.3996 116.473 14.8075C116.792 14.3813 117.213 14.0427 117.697 13.8233C118.181 13.6038 118.713 13.5108 119.243 13.5528C121.502 13.5528 122.93 15.1163 122.93 17.5003Z" fill="white"/>
<path d="M125.362 13.7555C126.535 13.7555 127.486 12.8048 127.486 11.6321C127.486 10.4595 126.535 9.50879 125.362 9.50879C124.19 9.50879 123.239 10.4595 123.239 11.6321C123.239 12.8048 124.19 13.7555 125.362 13.7555Z" fill="white"/>
</svg>
