<svg width="141" height="34" viewBox="0 0 141 34" fill="none" xmlns="http://www.w3.org/2000/svg">
<g clip-path="url(#clip0_124_159)">
<path d="M39.9343 24.2282H49.1749V21.5969H42.7521V9.31055H39.9343V24.2282Z" fill="white"/>
<path d="M54.7278 24.5383C55.8466 24.5383 56.8308 24.2896 57.6802 23.7924C58.5366 23.2882 59.2031 22.5941 59.6796 21.7102C60.163 20.8192 60.4048 19.7936 60.4048 18.6334C60.4048 17.4801 60.1665 16.4614 59.69 15.5774C59.2134 14.6865 58.5469 13.9889 57.6906 13.4848C56.8411 12.9806 55.8536 12.7285 54.7278 12.7285C53.6228 12.7285 52.6455 12.9772 51.7961 13.4744C50.9466 13.9717 50.2802 14.6657 49.7967 15.5567C49.3133 16.4406 49.0715 17.4662 49.0715 18.6334C49.0715 19.7867 49.3064 20.8089 49.776 21.6998C50.2525 22.5838 50.9155 23.2779 51.765 23.782C52.6145 24.2862 53.6021 24.5383 54.7278 24.5383ZM54.7278 21.907C53.8507 21.907 53.1843 21.6135 52.7285 21.0265C52.2795 20.4325 52.0551 19.6348 52.0551 18.6334C52.0551 17.6596 52.2691 16.8723 52.6974 16.2714C53.1324 15.6637 53.8092 15.3598 54.7278 15.3598C55.6187 15.3598 56.2886 15.6568 56.7375 16.2507C57.1933 16.8447 57.4212 17.6389 57.4212 18.6334C57.4212 19.5934 57.1968 20.3807 56.7478 20.9954C56.3059 21.6031 55.6325 21.907 54.7278 21.907Z" fill="white"/>
<path d="M65.9773 24.5383C66.5022 24.5383 66.9856 24.4761 67.4277 24.3518C67.8766 24.2275 68.284 24.0514 68.6501 23.8235V24.9527C68.6639 25.3671 68.5568 25.7123 68.3289 25.9886C68.1079 26.2718 67.811 26.4824 67.438 26.6205C67.065 26.7656 66.6679 26.8381 66.2467 26.8381C65.853 26.8381 65.487 26.7518 65.1486 26.5791C64.8171 26.4065 64.5615 26.1544 64.3819 25.8229L61.7714 27.0867C62.1996 27.8118 62.8108 28.3955 63.605 28.8374C64.3993 29.2863 65.2729 29.5108 66.2259 29.5108C67.0478 29.5108 67.811 29.4003 68.5153 29.1793C69.2198 28.9652 69.8138 28.6372 70.2972 28.1951C70.7875 27.7532 71.1225 27.1903 71.3021 26.5066C71.3642 26.2648 71.4056 26.0197 71.4264 25.771C71.454 25.5294 71.4678 25.2704 71.4678 24.9941V13.0393H69.0023V13.6609C68.6224 13.3639 68.1907 13.136 67.7073 12.9772C67.2308 12.8114 66.7025 12.7285 66.1223 12.7285C65.0519 12.7285 64.1195 12.9841 63.3253 13.4951C62.5311 14.0062 61.913 14.7072 61.471 15.5981C61.0358 16.4821 60.8184 17.4939 60.8184 18.6334C60.8184 19.7522 61.0324 20.7571 61.4607 21.648C61.8957 22.5389 62.5 23.2434 63.2735 23.7614C64.047 24.2793 64.9483 24.5383 65.9773 24.5383ZM66.4331 22.0313C65.8254 22.0313 65.3282 21.8793 64.9414 21.5755C64.5547 21.2716 64.268 20.8642 64.0816 20.3531C63.8951 19.8351 63.8018 19.2619 63.8018 18.6334C63.8018 18.0118 63.8985 17.4456 64.0919 16.9345C64.2853 16.4165 64.5822 16.0056 64.9828 15.7017C65.3903 15.3909 65.9083 15.2355 66.5367 15.2355C67.4207 15.2355 68.0526 15.5498 68.4325 16.1782C68.8124 16.7998 69.0023 17.6182 69.0023 18.6334C69.0023 19.6486 68.8089 20.4705 68.4221 21.0989C68.0423 21.7205 67.3793 22.0313 66.4331 22.0313Z" fill="white"/>
<path d="M78.1604 24.5383C79.2793 24.5383 80.2634 24.2896 81.1128 23.7924C81.969 23.2882 82.6357 22.5941 83.1118 21.7102C83.5953 20.8192 83.8371 19.7936 83.8371 18.6334C83.8371 17.4801 83.5994 16.4614 83.1224 15.5774C82.6463 14.6865 81.9796 13.9889 81.1232 13.4848C80.2737 12.9806 79.2861 12.7285 78.1604 12.7285C77.0554 12.7285 76.0781 12.9772 75.2287 13.4744C74.3793 13.9717 73.7128 14.6657 73.2293 15.5567C72.7459 16.4406 72.5042 17.4662 72.5042 18.6334C72.5042 19.7867 72.739 20.8089 73.2086 21.6998C73.6851 22.5838 74.3482 23.2779 75.1976 23.782C76.0471 24.2862 77.0347 24.5383 78.1604 24.5383ZM78.1604 21.907C77.2833 21.907 76.6168 21.6135 76.161 21.0265C75.7121 20.4325 75.4877 19.6348 75.4877 18.6334C75.4877 17.6596 75.7018 16.8723 76.13 16.2714C76.565 15.6637 77.2418 15.3598 78.1604 15.3598C79.0513 15.3598 79.7212 15.6568 80.1701 16.2507C80.6259 16.8447 80.8538 17.6389 80.8538 18.6334C80.8538 19.5934 80.6294 20.3807 80.1805 20.9954C79.7385 21.6031 79.0651 21.907 78.1604 21.907Z" fill="white"/>
<path d="M85.0791 11.4852H87.897V8.99902H85.0791V11.4852ZM85.0791 24.2274H87.897V13.0392H85.0791V24.2274Z" fill="white"/>
<path d="M89.739 29.2H92.5773V23.8234C92.9436 24.0514 93.3473 24.2275 93.7892 24.3518C94.2386 24.4761 94.7253 24.5383 95.2503 24.5383C96.2791 24.5383 97.181 24.2793 97.9543 23.7613C98.7275 23.2433 99.3282 22.5389 99.7563 21.648C100.192 20.757 100.409 19.7522 100.409 18.6334C100.409 17.4939 100.189 16.4821 99.7466 15.5981C99.3111 14.7072 98.6966 14.0062 97.9022 13.4951C97.1077 12.9841 96.1758 12.7285 95.1054 12.7285C94.5251 12.7285 93.9936 12.8114 93.5101 12.9772C93.0331 13.136 92.6049 13.3639 92.2256 13.6609V13.0393H89.739V29.2ZM94.7945 22.0313C93.8552 22.0313 93.1926 21.7205 92.8052 21.0989C92.4185 20.4704 92.2256 19.6486 92.2256 18.6334C92.2256 17.6182 92.4153 16.7998 92.7954 16.1782C93.182 15.5498 93.8137 15.2355 94.6911 15.2355C95.3195 15.2355 95.8339 15.3909 96.2344 15.7016C96.6422 16.0056 96.9425 16.4165 97.1354 16.9345C97.3291 17.4455 97.426 18.0118 97.426 18.6334C97.426 19.2619 97.3324 19.8351 97.146 20.3531C96.9596 20.8642 96.6731 21.2716 96.2865 21.5755C95.8998 21.8793 95.4025 22.0313 94.7945 22.0313Z" fill="white"/>
<path d="M105.514 24.5383C106.978 24.5383 108.124 24.2102 108.953 23.5541C109.782 22.898 110.196 21.9968 110.196 20.8503C110.196 19.9801 109.927 19.293 109.389 18.7888C108.856 18.2847 107.952 17.8668 106.674 17.5353C105.804 17.3143 105.154 17.1347 104.726 16.9966C104.305 16.8585 104.025 16.7238 103.887 16.5926C103.756 16.4614 103.691 16.2991 103.691 16.1057C103.691 15.7811 103.846 15.5325 104.156 15.3598C104.475 15.1871 104.892 15.1181 105.41 15.1526C106.508 15.2355 107.109 15.7051 107.213 16.5615L110.093 16.0435C109.948 15.0283 109.45 14.2238 108.601 13.6298C107.752 13.0289 106.667 12.7285 105.348 12.7285C103.994 12.7285 102.914 13.0462 102.105 13.6816C101.298 14.3169 100.893 15.1733 100.893 16.2507C100.893 17.1071 101.173 17.7839 101.732 18.2812C102.292 18.7716 103.255 19.1928 104.623 19.5451C105.431 19.7591 106.024 19.9318 106.405 20.063C106.791 20.1942 107.04 20.3289 107.15 20.467C107.261 20.5982 107.316 20.7744 107.316 20.9954C107.316 21.3476 107.178 21.6238 106.902 21.8241C106.626 22.0175 106.232 22.1141 105.721 22.1141C105.099 22.1141 104.585 21.9657 104.178 21.6687C103.777 21.3717 103.517 20.9609 103.4 20.4359L100.521 20.871C100.707 22.0382 101.232 22.9429 102.096 23.5852C102.966 24.2206 104.105 24.5383 105.514 24.5383Z" fill="white"/>
<path d="M115.394 24.5588C116.202 24.5588 116.906 24.4241 117.508 24.1548C118.109 23.8854 118.612 23.5263 119.02 23.0774V24.2273H121.506V13.0391H118.668V18.7161C118.668 19.4067 118.588 19.9661 118.429 20.3943C118.278 20.8156 118.081 21.1367 117.839 21.3577C117.597 21.5718 117.338 21.7168 117.062 21.7928C116.786 21.8688 116.527 21.9068 116.285 21.9068C115.685 21.9068 115.218 21.7721 114.887 21.5027C114.562 21.2334 114.327 20.8984 114.182 20.4979C114.037 20.0973 113.951 19.7002 113.923 19.3065C113.895 18.906 113.882 18.5779 113.882 18.3224V13.0391H111.022V19.3169C111.022 19.5033 111.036 19.8003 111.064 20.2078C111.091 20.6153 111.171 21.0677 111.302 21.5649C111.433 22.0552 111.651 22.5283 111.955 22.9841C112.266 23.4399 112.697 23.8163 113.25 24.1133C113.802 24.4103 114.517 24.5588 115.394 24.5588Z" fill="white"/>
<path d="M123.138 24.2281H125.976V17.4529C125.976 16.8107 126.152 16.2893 126.504 15.8887C126.863 15.4812 127.336 15.2775 127.924 15.2775C128.539 15.2775 129.019 15.4847 129.364 15.8991C129.716 16.3066 129.892 16.8798 129.892 17.6187V24.2281H132.71V17.4529C132.71 16.8107 132.886 16.2893 133.238 15.8887C133.597 15.4812 134.07 15.2775 134.657 15.2775C135.272 15.2775 135.752 15.4847 136.097 15.8991C136.449 16.3066 136.626 16.8798 136.626 17.6187V24.2281H139.443V16.8728C139.443 15.6504 139.115 14.6629 138.459 13.91C137.81 13.1504 136.847 12.7705 135.569 12.7705C134.851 12.7705 134.191 12.9259 133.59 13.2367C132.989 13.5475 132.51 13.9722 132.15 14.5109C131.86 13.9861 131.446 13.5648 130.907 13.2471C130.368 12.9294 129.698 12.7705 128.897 12.7705C128.22 12.7705 127.599 12.9052 127.033 13.1746C126.466 13.437 125.997 13.7996 125.624 14.2622V13.0398H123.138V24.2281Z" fill="white"/>
<path d="M16.3001 0.623047C7.30937 0.623047 0.0209961 7.91145 0.0209961 16.9021C9.01167 16.9021 16.3001 9.61375 16.3001 0.623047Z" fill="white"/>
<path d="M16.3 33.1814C25.2907 33.1814 32.5791 25.893 32.5791 16.9023C23.5884 16.9023 16.3 24.1907 16.3 33.1814Z" fill="white"/>
<path d="M16.3 0.623047C25.2907 0.623047 32.5791 7.91145 32.5791 16.9021C23.5884 16.9021 16.3 9.61375 16.3 0.623047Z" fill="white"/>
<path d="M16.3001 33.1814C7.30937 33.1814 0.0209953 25.893 0.0209961 16.9023C9.01167 16.9023 16.3001 24.1907 16.3001 33.1814Z" fill="white"/>
</g>
<defs>
<clipPath id="clip0_124_159">
<rect width="140" height="32.5582" fill="white" transform="translate(0.0209961 0.623047)"/>
</clipPath>
</defs>
</svg>
