<svg width="141" height="27" viewBox="0 0 141 27" fill="none" xmlns="http://www.w3.org/2000/svg">
<g clip-path="url(#clip0_124_187)">
<path d="M55.3514 5.94727H52.4187V19.1803H60.5374V16.5874H55.3514V5.94727Z" fill="white"/>
<path d="M60.8174 14.6917C60.8174 17.5172 62.7129 19.3948 65.5741 19.3948C68.4174 19.3948 70.313 17.5172 70.313 14.6917C70.313 11.8663 68.4174 9.9707 65.5741 9.9707C62.7129 9.9707 60.8174 11.8663 60.8174 14.6917ZM63.5891 14.6738C63.5891 13.3327 64.376 12.4386 65.5741 12.4386C66.7544 12.4386 67.5412 13.3327 67.5412 14.6738C67.5412 16.0329 66.7544 16.9271 65.5741 16.9271C64.376 16.9271 63.5891 16.0329 63.5891 14.6738Z" fill="white"/>
<path d="M70.756 14.5492C70.756 17.2494 72.5085 19.0735 74.9941 19.0735C76.1923 19.0735 77.2295 18.6443 77.7481 17.9469V19.1808C77.7481 20.4147 76.9791 21.2372 75.62 21.2372C74.404 21.2372 73.5635 20.665 73.5099 19.6457H70.7202C70.9706 22.0957 72.8661 23.7408 75.4591 23.7408C78.517 23.7408 80.4483 21.7559 80.4483 18.6085V10.2395H77.9626L77.8196 11.1515C77.3189 10.4183 76.2638 9.93555 75.0478 9.93555C72.5442 9.93555 70.756 11.8132 70.756 14.5492ZM73.5457 14.4777C73.5457 13.1901 74.404 12.3318 75.4949 12.3318C76.7645 12.3318 77.6944 13.1722 77.6944 14.4777C77.6944 15.7831 76.7824 16.6772 75.5127 16.6772C74.4219 16.6772 73.5457 15.7831 73.5457 14.4777Z" fill="white"/>
<path d="M81.251 14.6917C81.251 17.5172 83.1466 19.3948 86.008 19.3948C88.8514 19.3948 90.7467 17.5172 90.7467 14.6917C90.7467 11.8663 88.8514 9.9707 86.008 9.9707C83.1466 9.9707 81.251 11.8663 81.251 14.6917ZM84.0226 14.6738C84.0226 13.3327 84.8094 12.4386 86.008 12.4386C87.1878 12.4386 87.9746 13.3327 87.9746 14.6738C87.9746 16.0329 87.1878 16.9271 86.008 16.9271C84.8094 16.9271 84.0226 16.0329 84.0226 14.6738Z" fill="white"/>
<path d="M93.1209 8.84429C93.9789 8.84429 94.6765 8.14686 94.6765 7.27062C94.6765 6.39438 93.9789 5.71484 93.1209 5.71484C92.2449 5.71484 91.5474 6.39438 91.5474 7.27062C91.5474 8.14686 92.2449 8.84429 93.1209 8.84429ZM91.7258 19.1804H94.498V10.2391H91.7258V19.1804Z" fill="white"/>
<path d="M96.1118 23.4723H98.83V18.2864C99.3482 18.9659 100.529 19.4309 101.763 19.4309C104.427 19.4309 106.036 17.3923 105.965 14.5668C105.893 11.6877 104.23 9.95312 101.745 9.95312C100.475 9.95312 99.277 10.5075 98.7759 11.3301L98.6326 10.2393H96.1118V23.4723ZM98.8832 14.7098C98.8832 13.3687 99.7772 12.4746 101.065 12.4746C102.37 12.4746 103.193 13.3866 103.193 14.7098C103.193 16.0332 102.37 16.9452 101.065 16.9452C99.7772 16.9452 98.8832 16.0511 98.8832 14.7098Z" fill="white"/>
<path d="M106.258 16.3551C106.329 18.1612 107.76 19.4129 110.013 19.4129C112.177 19.4129 113.68 18.2685 113.68 16.4266C113.68 15.1033 112.893 14.2271 111.426 13.8694L109.835 13.476C109.263 13.3329 108.905 13.1898 108.905 12.7249C108.905 12.2599 109.28 11.9559 109.835 11.9559C110.461 11.9559 110.872 12.3673 110.854 12.9752H113.34C113.268 11.1155 111.856 9.95312 109.888 9.95312C107.904 9.95312 106.419 11.1334 106.419 12.9216C106.419 14.1197 107.081 15.1033 108.851 15.5683L110.424 15.9795C110.89 16.1047 111.086 16.3193 111.086 16.6233C111.086 17.0704 110.675 17.3565 109.977 17.3565C109.173 17.3565 108.744 16.981 108.744 16.3551H106.258Z" fill="white"/>
<path d="M117.894 19.4129C118.986 19.4129 120.076 18.9122 120.631 18.1791L120.81 19.1805H123.403V10.2393H120.649V14.8887C120.649 16.2299 120.256 16.963 118.986 16.963C118.002 16.963 117.358 16.516 117.358 14.853V10.2393H114.604V15.8543C114.604 17.9824 115.785 19.4129 117.894 19.4129Z" fill="white"/>
<path d="M127.77 19.1808V14.2989C127.77 12.7967 128.575 12.3675 129.361 12.3675C130.237 12.3675 130.81 12.904 130.81 14.0127V19.1808H133.528V14.2989C133.528 12.7789 134.315 12.3497 135.101 12.3497C135.977 12.3497 136.568 12.8861 136.568 14.0127V19.1808H139.251V13.3332C139.251 11.2946 138.177 9.93555 135.87 9.93555C134.583 9.93555 133.528 10.5614 133.063 11.527C132.526 10.5614 131.596 9.93555 130.112 9.93555C129.129 9.93555 128.217 10.3826 127.68 11.0979L127.573 10.2395H124.998V19.1808H127.77Z" fill="white"/>
<path d="M0.0209961 13.9021C0.0209961 6.66754 5.8858 0.802734 13.1204 0.802734H30.3134C37.548 0.802734 43.4128 6.66754 43.4128 13.9021V27.0016H13.1204C5.8858 27.0016 0.0209961 21.1368 0.0209961 13.9021Z" fill="white"/>
<path d="M30.3135 5.71484H13.1205C8.59885 5.71484 4.93335 9.38035 4.93335 13.902C4.93335 18.4236 8.59885 22.0891 13.1205 22.0891H30.3135C34.8351 22.0891 38.5006 18.4236 38.5006 13.902C38.5006 9.38035 34.8351 5.71484 30.3135 5.71484Z" fill="#171626"/>
<path d="M13.1204 17.9957C15.3812 17.9957 17.214 16.163 17.214 13.9022C17.214 11.6413 15.3812 9.80859 13.1204 9.80859C10.8596 9.80859 9.02686 11.6413 9.02686 13.9022C9.02686 16.163 10.8596 17.9957 13.1204 17.9957Z" fill="white"/>
<path d="M11.483 13.0837C11.9352 13.0837 12.3017 12.7172 12.3017 12.265C12.3017 11.8128 11.9352 11.4463 11.483 11.4463C11.0309 11.4463 10.6643 11.8128 10.6643 12.265C10.6643 12.7172 11.0309 13.0837 11.483 13.0837Z" fill="white"/>
<path d="M31.1321 17.9957C33.393 17.9957 35.2257 16.163 35.2257 13.9022C35.2257 11.6413 33.393 9.80859 31.1321 9.80859C28.8713 9.80859 27.0386 11.6413 27.0386 13.9022C27.0386 16.163 28.8713 17.9957 31.1321 17.9957Z" fill="white"/>
<path d="M29.4947 13.0837C29.9469 13.0837 30.3135 12.7172 30.3135 12.265C30.3135 11.8128 29.9469 11.4463 29.4947 11.4463C29.0426 11.4463 28.676 11.8128 28.676 12.265C28.676 12.7172 29.0426 13.0837 29.4947 13.0837Z" fill="white"/>
</g>
<defs>
<clipPath id="clip0_124_187">
<rect width="140" height="26.1988" fill="white" transform="translate(0.0209961 0.802734)"/>
</clipPath>
</defs>
</svg>
