<svg width="101" height="38" viewBox="0 0 101 38" fill="none" xmlns="http://www.w3.org/2000/svg">
<path d="M92.1182 37.1031H13.7254C9.10048 37.1031 5.3501 33.3527 5.3501 28.7278V14.1852C5.3501 9.56025 9.10048 5.80988 13.7254 5.80988H92.1182C96.7431 5.80988 100.493 9.56025 100.493 14.1852V28.7278C100.493 33.3527 96.7431 37.1031 92.1182 37.1031Z" fill="#112050"/>
<path d="M87.313 32.2981H8.92021C4.2953 32.2981 0.544922 28.5477 0.544922 23.9228V9.38017C0.544922 4.75526 4.2953 1.00488 8.92021 1.00488H87.313C91.9379 1.00488 95.6883 4.75526 95.6883 9.38017V23.9228C95.6883 28.5477 91.9379 32.2981 87.313 32.2981Z" fill="#E33AFF"/>
<path d="M40.7349 30.0661C39.1276 29.8931 37.5083 29.773 35.925 29.4294C34.4859 29.1195 33.1357 28.6029 31.8647 27.8629C29.4694 26.4695 27.4633 24.5306 25.3082 22.8104C24.191 21.9166 23.0257 21.0133 21.7428 20.3694C20.4046 19.6967 18.8597 19.3795 17.4783 20.1147C15.3736 21.2367 14.9027 24.0381 14.5519 26.1619C14.2084 28.2425 13.6942 30.2991 13.0095 32.2957H14.2732C14.6649 31.116 15.0036 29.9171 15.2775 28.7014C15.573 27.3968 15.734 26.0682 16.0319 24.766C16.2602 23.7714 16.5773 22.6782 17.2092 21.8926C17.9251 21.0013 18.975 20.6961 20.1138 21.0061C21.4545 21.3713 22.6558 22.2818 23.7513 23.1083C25.9016 24.7324 27.8405 26.6232 30.07 28.1464C31.1968 28.9177 32.4005 29.5736 33.6859 30.0421C35.1827 30.5874 36.7659 30.8325 38.342 31.0151C40.8046 31.301 43.3729 31.4091 45.7106 32.2957H48.351C46.1262 30.7941 43.3585 30.3472 40.7349 30.0661Z" fill="#112050"/>
<path d="M76.2903 31.3442C75.0794 29.1123 73.4698 27.0557 71.2762 25.7175C66.87 23.0242 61.3633 23.6177 56.4789 24.2111C51.9861 24.7565 46.8663 25.3451 42.7147 23.0939C40.7542 22.032 39.392 20.367 38.4238 18.4185C39.9902 18.3825 41.5375 18.0558 42.9021 17.2533C45.0115 16.0112 46.5347 13.6591 46.1383 11.1556C45.7611 8.77471 43.6829 6.84064 41.2732 6.69649C38.8178 6.54993 36.5329 8.17165 35.8242 10.5117C35.1683 12.6812 35.7449 15.0381 36.5666 17.1452C34.51 16.9313 32.4678 16.3091 30.5986 15.4874C25.5365 13.265 21.4137 9.47145 17.8363 5.33185C16.6206 3.92396 15.4602 2.47282 14.319 1.00726H12.8005C13.3771 1.74244 13.9514 2.48241 14.5352 3.21279C18.1318 7.72718 22.0984 12.0758 27.1101 15.0405C29.4502 16.4244 32.0065 17.5008 34.6758 18.0461C35.4566 18.2071 36.2687 18.3272 37.0855 18.3849C37.0879 18.3897 37.0903 18.3945 37.0927 18.3993C38.1475 20.7778 39.7524 22.8368 42.0588 24.1054C44.1634 25.261 46.5708 25.7223 48.9493 25.8496C54.1196 26.1259 59.1986 24.6483 64.3689 24.9631C66.9084 25.1168 69.4431 25.7727 71.5045 27.3176C73.2199 28.6053 74.4572 30.4049 75.4398 32.2981H76.7853C76.6243 31.9761 76.4609 31.659 76.2903 31.3442ZM37.888 17.2197C37.0063 15.0958 36.163 12.3881 37.2153 10.2258C38.1619 8.28218 40.699 7.26831 42.6787 8.27257C44.7257 9.31047 45.593 11.8331 44.5382 13.8825C43.3562 16.1818 40.8191 17.1644 38.3517 17.2173C38.1955 17.2221 38.0418 17.2221 37.888 17.2197Z" fill="#112050"/>
<path d="M4.90095 31.2722C5.01146 30.2823 4.99944 29.2829 4.79762 28.2858C4.55497 27.0821 3.99997 25.9746 3.61556 24.8141C3.26238 23.7498 3.12546 22.6614 3.21435 21.5418C3.38974 19.3699 4.40842 17.3134 5.85956 15.7109C7.32271 14.0939 9.17265 12.9071 11.15 12.0109C12.1326 11.5665 13.1657 10.9898 13.4084 9.83901C13.639 8.73624 13.1201 7.64788 12.481 6.77816C11.7698 5.80993 10.9025 4.94502 10.076 4.07529C9.2087 3.16473 8.32458 2.271 7.42122 1.39647C7.34674 1.3244 7.26984 1.25231 7.19296 1.18024C6.73647 1.27634 6.292 1.41089 5.86675 1.57666C7.38996 3.0206 8.86513 4.51256 10.285 6.0574C10.9866 6.819 11.8059 7.61907 12.1422 8.62814C12.2792 9.03898 12.332 9.47142 12.1278 9.86784C11.9212 10.2667 11.5151 10.4997 11.1283 10.6967C10.1673 11.1845 9.18707 11.6049 8.2693 12.1791C7.34912 12.7557 6.47459 13.4164 5.68656 14.1684C4.08646 15.6916 2.86117 17.6161 2.30859 19.7664C2.03229 20.8379 1.91695 21.9671 2.02267 23.0723C2.13559 24.2663 2.5224 25.3571 2.95486 26.4671C3.39212 27.5867 3.75251 28.699 3.77654 29.9147C3.78135 30.1165 3.77413 30.3184 3.76452 30.5202C4.12009 30.7989 4.49972 31.0511 4.90095 31.2722Z" fill="#112050"/>
<path d="M23.3548 1.51178C23.9626 2.76831 24.7531 4.03686 25.964 4.78886C27.2806 5.60573 28.8662 5.51924 30.2092 4.81769C31.5811 4.10173 32.6455 2.89804 33.5609 1.67754C33.729 1.45411 33.8972 1.22828 34.0678 1.00244H32.5854C32.4244 1.20906 32.2635 1.41088 32.1001 1.60548C31.2063 2.68423 30.0819 3.80862 28.6644 4.12335C27.3406 4.41646 26.1874 3.67888 25.4162 2.6554C25.0318 2.14365 24.7074 1.58386 24.4191 1.00244H23.1169C23.1986 1.17302 23.2731 1.3436 23.3548 1.51178Z" fill="#112050"/>
<path d="M43.3442 1.17544C45.1389 3.46988 46.8375 5.90367 49.1896 7.67195C50.29 8.50083 51.5514 9.14469 52.8992 9.45222C54.5521 9.82942 56.2867 9.69968 57.9037 9.21677C61.2192 8.22932 63.8596 5.90605 66.3102 3.56116C67.1967 2.71306 68.0761 1.85537 68.9578 1.00006H67.2424C65.0176 3.18638 62.7809 5.48803 60.0468 7.01125C57.3439 8.51764 54.0812 9.0558 51.2558 7.56622C48.8004 6.27125 47.0249 3.99123 45.3624 1.83614C45.1557 1.56706 44.9419 1.28596 44.7233 1.00006H43.2073C43.2529 1.06012 43.301 1.11778 43.3442 1.17544Z" fill="#112050"/>
<path d="M90.78 31.5461C89.9656 30.7244 89.1607 29.8955 88.3703 29.0474C87.0296 27.6107 85.7178 26.1523 84.4157 24.6796C83.1567 23.2572 81.9242 21.8133 80.6172 20.4367C78.5654 18.2744 76.2686 16.2706 73.5849 14.9685C75.3893 13.193 77.1936 11.4151 79.0123 9.65162C81.7464 6.9968 84.5142 4.378 87.3684 1.85052C87.6687 1.58384 87.969 1.32198 88.2718 1.0577C87.957 1.02166 87.6375 1.00244 87.3132 1.00244H86.5227C85.0139 2.33826 83.5267 3.69809 82.0587 5.07716C79.3319 7.63828 76.6626 10.2595 73.9958 12.883C73.4648 13.4068 72.9315 13.9282 72.4005 14.4519C72.1747 14.363 71.9464 14.2813 71.7134 14.202C68.5732 13.1521 65.0103 13.2987 62.1873 15.1463C60.8779 16.004 59.7054 17.2268 59.124 18.6996C58.396 20.5424 60.0586 22.08 61.738 22.4476C65.5436 23.2861 68.4483 20.0042 70.8797 17.6257C71.4803 17.0394 72.0785 16.4484 72.6768 15.8598C74.6949 16.7728 76.5233 18.1446 78.121 19.6438C79.464 20.9028 80.6965 22.2746 81.9122 23.6537C83.1736 25.0856 84.4349 26.5199 85.7154 27.935C86.9623 29.3093 88.2261 30.6691 89.5211 31.9977C89.9583 31.8824 90.3764 31.7287 90.78 31.5461ZM69.9931 16.816C68.739 18.0413 67.5137 19.3892 66.0313 20.343C64.7123 21.1935 62.9969 21.734 61.4689 21.1118C60.8899 20.8763 60.21 20.3814 60.1451 19.7039C60.1091 19.3219 60.3085 18.9447 60.4862 18.6227C60.652 18.3248 60.837 18.0365 61.0485 17.7698C62.9297 15.3865 66.1442 14.4447 69.0802 14.8147C69.897 14.918 70.6899 15.1126 71.4587 15.3745C70.971 15.8574 70.4833 16.3379 69.9931 16.816Z" fill="#112050"/>
<path d="M95.6884 23.6465C94.0883 22.6158 93.1009 20.9916 92.803 19.1176C92.4666 17.0154 93.0024 14.8363 93.8409 12.9142C94.3767 11.6841 95.0253 10.5117 95.6884 9.34647C95.686 8.65213 95.5971 7.97942 95.4362 7.33313C94.737 8.57765 94.0187 9.81016 93.3796 11.0859C92.3561 13.1209 91.5657 15.2928 91.5152 17.592C91.4672 19.7255 92.0991 21.8541 93.5694 23.435C94.1749 24.0861 94.8668 24.6051 95.6163 25.0183C95.6644 24.6603 95.6908 24.2951 95.6908 23.9227V23.6465H95.6884Z" fill="#112050"/>
<path d="M87.313 32.2981H8.92021C4.2953 32.2981 0.544922 28.5477 0.544922 23.9228V9.38017C0.544922 4.75526 4.2953 1.00488 8.92021 1.00488H87.313C91.9379 1.00488 95.6883 4.75526 95.6883 9.38017V23.9228C95.6883 28.5477 91.9379 32.2981 87.313 32.2981Z" stroke="#112050" stroke-width="0.88429" stroke-miterlimit="10"/>
</svg>
