<svg width="344" height="334" viewBox="0 0 344 334" fill="none" xmlns="http://www.w3.org/2000/svg">
<path d="M292.508 40.6777L291.923 39.6116L290.99 40.392L203.057 113.951L225.036 2.36562L225.271 1.17236H224.055H120.957H119.741L119.976 2.36562L141.955 113.951L54.0217 40.392L53.092 39.6142L52.5051 40.6748L3.12203 129.911L2.53665 130.969L3.68543 131.345L106.577 165.08L2.80061 201.36L1.66379 201.757L2.26336 202.802L55.9783 296.37L56.5942 297.442L57.5141 296.615L141.099 221.473L120.84 331.211L120.622 332.393H121.823H223.189H224.399L224.171 331.204L203.063 221.447L287.506 295.756L288.43 296.57L289.037 295.498L341.019 203.663L341.613 202.613L340.472 202.224L236.647 166.771L340.479 130.473L341.594 130.083L341.025 129.047L292.508 40.6777Z" stroke="#E33AFF" stroke-width="2"/>
</svg>
