<svg width="83" height="82" viewBox="0 0 83 82" fill="none" xmlns="http://www.w3.org/2000/svg">
<path d="M8.9564 31.8069C8.9564 18.721 19.6032 8.07506 32.6883 8.07506C37.9197 8.07506 42.8887 9.75757 47.062 12.9398C48.4086 13.9667 50.0788 11.8617 48.6926 10.8045C44.047 7.26085 38.5128 5.38843 32.6883 5.38843C18.1217 5.38843 6.26978 17.2395 6.26978 31.8069C6.26978 33.8768 6.51635 35.9641 7.00425 38.0104C7.40133 39.6757 10.0247 39.102 9.61757 37.3883C9.17853 35.5457 8.9564 33.668 8.9564 31.8069Z" fill="#171626"/>
<path d="M58.5399 26.3333C58.1931 24.707 55.5514 25.2082 55.9128 26.893C56.2486 28.4743 56.42 30.1272 56.42 31.8072C56.42 44.8931 45.7732 55.5391 32.6881 55.5391C27.6806 55.5391 22.8987 53.9982 18.8584 51.0827C17.4955 50.0992 15.8963 52.257 17.2872 53.2617C21.7877 56.5089 27.112 58.2257 32.6881 58.2257C47.2547 58.2257 59.1066 46.3746 59.1066 31.8072C59.1066 29.9401 58.916 28.0984 58.5399 26.3333Z" fill="#171626"/>
<path d="M79.8984 66.9856L67.2349 54.3212C65.7034 52.7891 63.2422 52.5387 61.3773 53.5311L58.3416 50.5069C62.1831 45.2519 64.48 38.8 64.48 31.8067C64.48 14.2762 50.2178 0.0148926 32.6883 0.0148926C15.1587 0.0148926 0.896484 14.2762 0.896484 31.8067C0.896484 49.3371 15.1587 63.5984 32.6883 63.5984C39.6812 63.5984 46.1329 61.3016 51.3879 57.4604L54.4008 60.4854C53.3607 62.3589 53.6139 64.7636 55.2028 66.3524L67.868 79.0177C71.0668 82.2165 76.6572 82.2598 79.8985 79.0176C83.2147 75.7004 83.2165 70.3027 79.8984 66.9856ZM32.6883 60.9118C16.6402 60.9118 3.58311 47.8556 3.58311 31.8067C3.58311 15.7577 16.6402 2.70152 32.6883 2.70152C48.7363 2.70152 61.7934 15.7577 61.7934 31.8067C61.7934 47.8556 48.7363 60.9118 32.6883 60.9118ZM53.5047 55.7791C54.6291 54.8014 55.6824 53.748 56.6602 52.6237L59.318 55.2714L56.1522 58.4372L53.5047 55.7791ZM57.1024 64.453C56.2439 63.5945 56.2478 62.1406 57.1023 61.2861C57.1023 61.2861 62.156 56.2324 62.1677 56.2207C63.0337 55.3546 64.47 55.3553 65.3353 56.2207L66.93 57.8156L58.6975 66.0481C57.746 65.0966 57.1122 64.4628 57.1024 64.453ZM77.9989 77.1182C75.802 79.3168 71.9645 79.3168 69.7676 77.1182C69.7676 77.1182 64.3462 71.6968 60.597 67.9476L68.8295 59.7151L77.9989 68.8851C80.2692 71.1546 80.2692 74.8487 77.9989 77.1182Z" fill="#171626"/>
<path d="M19.7833 43.8082C19.7833 42.2981 19.086 40.9616 18.0129 40.0575L23.1551 27.7184C23.3469 27.7411 23.535 27.7768 23.7328 27.7768C24.708 27.7768 25.6123 27.4835 26.3779 26.9928L35.4296 35.0532C35.1173 35.6996 34.9271 36.4152 34.9271 37.18C34.9271 39.8963 37.1362 42.1055 39.8526 42.1055C42.569 42.1055 44.7781 39.8963 44.7781 37.18C44.7781 35.9618 44.3172 34.8599 43.5821 33.9992L49.5523 25.0427C49.9681 25.157 50.3974 25.2379 50.8492 25.2379C53.5656 25.2379 55.7747 23.0288 55.7747 20.3124C55.7747 17.5961 53.5656 15.387 50.8492 15.387C48.1329 15.387 45.9238 17.5961 45.9238 20.3124C45.9238 21.6045 46.4342 22.7725 47.2507 23.6518L41.3457 32.5107C40.8718 32.3587 40.3765 32.2545 39.8526 32.2545C38.8775 32.2545 37.9732 32.5478 37.2075 33.0384L28.1559 24.9781C28.4681 24.3317 28.6583 23.6161 28.6583 22.8513C28.6583 20.1349 26.4492 17.9258 23.7328 17.9258C21.0165 17.9258 18.8073 20.1349 18.8073 22.8513C18.8073 24.407 19.5461 25.7796 20.6756 26.6828L15.5618 38.9539C15.3299 38.9203 15.0989 38.8827 14.8579 38.8827C12.1415 38.8827 9.93237 41.0919 9.93237 43.8082C9.93237 46.5246 12.1415 48.7337 14.8579 48.7337C17.5742 48.7337 19.7833 46.5246 19.7833 43.8082ZM50.8492 18.0736C52.0841 18.0736 53.0881 19.0776 53.0881 20.3124C53.0881 21.5473 52.0841 22.5513 50.8492 22.5513C49.6144 22.5513 48.6104 21.5473 48.6104 20.3124C48.6104 19.0776 49.6144 18.0736 50.8492 18.0736ZM42.0915 37.18C42.0915 38.4148 41.0875 39.4188 39.8526 39.4188C38.6177 39.4188 37.6137 38.4148 37.6137 37.18C37.6137 35.9451 38.6177 34.9411 39.8526 34.9411C41.0875 34.9411 42.0915 35.9451 42.0915 37.18ZM23.7328 20.6124C24.9677 20.6124 25.9717 21.6164 25.9717 22.8513C25.9717 24.0861 24.9677 25.0901 23.7328 25.0901C22.498 25.0901 21.494 24.0861 21.494 22.8513C21.494 21.6164 22.498 20.6124 23.7328 20.6124ZM14.8579 46.0471C13.623 46.0471 12.619 45.0431 12.619 43.8082C12.619 42.5733 13.623 41.5693 14.8579 41.5693C16.0927 41.5693 17.0967 42.5733 17.0967 43.8082C17.0967 45.0431 16.0927 46.0471 14.8579 46.0471Z" fill="#171626"/>
</svg>
