<svg width="358" height="348" viewBox="0 0 358 348" fill="none" xmlns="http://www.w3.org/2000/svg">
<path d="M304.855 42.6568L304.27 41.5907L303.337 42.3711L211.558 119.147L234.499 2.68081L234.734 1.48755H233.518H126.02H124.803L125.038 2.68081L147.979 119.147L56.2002 42.3711L55.2705 41.5933L54.6836 42.6539L3.19294 135.698L2.60756 136.756L3.75634 137.133L111.159 172.347L2.83454 210.216L1.69772 210.614L2.2973 211.658L58.3047 309.22L58.9206 310.292L59.8405 309.465L147.086 231.032L125.94 345.577L125.721 346.759H126.923H232.614H233.825L233.596 345.57L211.565 231.006L299.705 308.569L300.629 309.383L301.236 308.311L355.436 212.556L356.03 211.507L354.889 211.117L246.517 174.112L354.896 136.223L356.011 135.833L355.443 134.798L304.855 42.6568Z" stroke="#FBEC5D" stroke-width="2"/>
</svg>
