<svg width="83" height="83" viewBox="0 0 83 83" fill="none" xmlns="http://www.w3.org/2000/svg">
<path d="M41.3985 0.702148C25.8665 0.702148 13.2153 13.3533 13.2153 28.8854C13.2153 38.226 17.85 46.9404 25.598 52.2192C26.4927 52.8098 27.1012 53.6866 27.3695 54.635C25.4012 55.2792 23.9518 57.1222 23.9518 59.3053C23.9518 61.2021 25.0433 62.8483 26.6359 63.6536C26.0633 64.4588 25.7412 65.4251 25.7412 66.463C25.7412 68.7354 27.298 70.6322 29.3738 71.187C29.9642 77.3068 35.1356 82.1203 41.3985 82.1203C47.6615 82.1203 52.8329 77.3068 53.4233 71.187C55.4991 70.6322 57.0559 68.7354 57.0559 66.463C57.0559 65.4251 56.7338 64.4588 56.1612 63.6536C57.7538 62.8483 58.8453 61.2021 58.8453 59.3053C58.8453 57.1222 57.3959 55.2792 55.4276 54.635C55.6959 53.6865 56.3044 52.8097 57.1991 52.2192C64.9471 46.9404 69.5817 38.226 69.5817 28.8854C69.5817 13.3533 56.9306 0.702148 41.3985 0.702148ZM41.3985 79.4362C36.6745 79.4362 32.7557 75.9289 32.0936 71.3838H50.7035C50.0414 75.9289 46.1226 79.4362 41.3985 79.4362ZM52.135 68.6997H30.6621C29.4274 68.6997 28.4253 67.6977 28.4253 66.463C28.4253 65.2283 29.4274 64.2262 30.6621 64.2262H52.135C53.3697 64.2262 54.3718 65.2283 54.3718 66.463C54.3718 67.6977 53.3697 68.6997 52.135 68.6997ZM56.1612 59.3053C56.1612 60.54 55.1591 61.5421 53.9244 61.5421H28.8727C27.638 61.5421 26.6359 60.54 26.6359 59.3053C26.6359 58.0706 27.638 57.0686 28.8727 57.0686H53.9244C55.1591 57.0686 56.1612 58.0706 56.1612 59.3053ZM41.3985 43.648C33.2588 43.648 26.6359 37.0251 26.6359 28.8854C26.6359 20.7456 33.2588 14.1227 41.3985 14.1227C49.5383 14.1227 56.1612 20.7456 56.1612 28.8854C56.1612 37.0251 49.5383 43.648 41.3985 43.648ZM55.6959 50.0004C54.1391 51.0382 53.0834 52.6129 52.7255 54.3844H42.7406V46.2642C51.7339 45.5745 58.8453 38.0522 58.8453 28.8854C58.8453 19.2655 51.0184 11.4386 41.3985 11.4386C31.7787 11.4386 23.9518 19.2655 23.9518 28.8854C23.9518 38.0521 31.0632 45.5745 40.0565 46.2642V54.3844H30.0715C29.7136 52.6129 28.6579 51.0382 27.1012 50.0004C20.0867 45.2227 15.8994 37.3313 15.8994 28.8854C15.8994 14.8206 27.3338 3.38626 41.3985 3.38626C55.4633 3.38626 66.8976 14.8206 66.8976 28.8854C66.8976 37.3313 62.7104 45.2227 55.6959 50.0004Z" fill="#171626"/>
<path d="M80.7655 27.5432C80.7272 27.5432 75.3975 27.5432 75.3975 27.5432C73.7108 27.5432 73.7364 30.2273 75.3978 30.2273C75.4441 30.2273 80.7657 30.2273 80.7657 30.2273C82.5109 30.2273 82.4929 27.5432 80.7655 27.5432Z" fill="#171626"/>
<path d="M7.39983 27.5432C7.39983 27.5432 2.07016 27.5432 2.03181 27.5432C0.304442 27.5432 0.286423 30.2273 2.0316 30.2273C2.0316 30.2273 7.3532 30.2273 7.39951 30.2273C9.0609 30.2273 9.08647 27.5432 7.39983 27.5432Z" fill="#171626"/>
<path d="M11.1255 13.3528C11.1255 13.3528 6.28999 11.1077 6.25723 11.0924C4.67675 10.3587 3.55312 12.7962 5.12639 13.5266C5.12639 13.5266 9.96088 15.7711 9.99462 15.7869C11.5243 16.4962 12.7103 14.0886 11.1255 13.3528Z" fill="#171626"/>
<path d="M9.99474 41.9834C9.99474 41.9834 5.14801 44.2336 5.1264 44.2437C3.62007 44.9431 4.68767 47.4066 6.25689 46.678C6.27414 46.6699 11.1043 44.4274 11.1252 44.4177C12.6199 43.7238 11.5978 41.2413 9.99474 41.9834Z" fill="#171626"/>
<path d="M72.8026 15.7869C72.8364 15.7711 77.6709 13.5266 77.6709 13.5266C79.2441 12.7962 78.1205 10.3587 76.54 11.0924C76.5073 11.1077 71.6718 13.3528 71.6718 13.3528C70.087 14.0886 71.2729 16.4962 72.8026 15.7869Z" fill="#171626"/>
<path d="M77.671 44.2437C77.6494 44.2336 72.8027 41.9834 72.8027 41.9834C71.1996 41.2413 70.1775 43.7238 71.6722 44.4177C71.6932 44.4274 76.5233 46.6699 76.5405 46.678C78.1097 47.4066 79.1773 44.9431 77.671 44.2437Z" fill="#171626"/>
</svg>
